<mxfile host="app.diagrams.net" modified="2023-11-17T10:42:39.697Z" agent="Mozilla/5.0 (Macintosh; Intel Mac OS X 10_15_7) AppleWebKit/537.36 (KHTML, like Gecko) Chrome/119.0.0.0 Safari/537.36" etag="kZiGDFp2QTO12PNE3bL5" version="21.6.1" type="device">
  <diagram name="Page-1" id="PUBXs66Qr9maKTsmUnUU">
    <mxGraphModel dx="1193" dy="656" grid="1" gridSize="10" guides="1" tooltips="1" connect="1" arrows="1" fold="1" page="1" pageScale="1" pageWidth="827" pageHeight="1169" math="0" shadow="0">
      <root>
        <mxCell id="0" />
        <mxCell id="1" parent="0" />
        <mxCell id="kadZX5GVxVAv7vQqAE7d-1" value="" style="shape=image;verticalLabelPosition=bottom;labelBackgroundColor=default;verticalAlign=top;aspect=fixed;imageAspect=0;image=data:image/svg+xml,PHN2ZyB4bWxucz0iaHR0cDovL3d3dy53My5vcmcvMjAwMC9zdmciIHhtbG5zOnhsaW5rPSJodHRwOi8vd3d3LnczLm9yZy8xOTk5L3hsaW5rIiBzdHJva2UtbWl0ZXJsaW1pdD0iMTAiIHN0cm9rZS1saW5lY2FwPSJzcXVhcmUiIHN0cm9rZT0ibm9uZSIgZmlsbD0ibm9uZSIgdmlld0JveD0iMC4wIDAuMCAyNTYwLjAgMTQ0MC4wIiB2ZXJzaW9uPSIxLjEiPjxjbGlwUGF0aCBpZD0iZzIxZDM4NDkyZmU3XzBfNjIwLjAiPjxwYXRoIGNsaXAtcnVsZT0ibm9uemVybyIgZD0ibTAgMGwyNTYwLjAgMGwwIDE0NDAuMGwtMjU2MC4wIDBsMCAtMTQ0MC4weiIvPjwvY2xpcFBhdGg+PGcgY2xpcC1wYXRoPSJ1cmwoI2cyMWQzODQ5MmZlN18wXzYyMC4wKSI+PHBhdGggZmlsbC1ydWxlPSJldmVub2RkIiBkPSJtMCAwbDI1NjAuMCAwbDAgMTQ0MC4wbC0yNTYwLjAgMHoiIGZpbGwtb3BhY2l0eT0iMC4wIiBmaWxsPSIjMDAwMDAwIi8+PGcgZmlsdGVyPSJ1cmwoI3NoYWRvd0ZpbHRlci1nMjFkMzg0OTJmZTdfMF82MjAuMSkiPjx1c2UgdHJhbnNmb3JtPSJtYXRyaXgoMS4wIDAuMCAwLjAgMS4wIC0wLjQ4ODY2NzQ1NDA2ODI0MjUgMjcuOTk1NzM1MTcwNjAzNjg3KSIgeGxpbms6aHJlZj0iI2cyMWQzODQ5MmZlN18wXzYyMC4xIi8+PC9nPjxkZWZzPjxmaWx0ZXIgZmlsdGVyVW5pdHM9InVzZXJTcGFjZU9uVXNlIiBpZD0ic2hhZG93RmlsdGVyLWcyMWQzODQ5MmZlN18wXzYyMC4xIj48ZmVHYXVzc2lhbkJsdXIgcmVzdWx0PSJibHVyIiBzdGREZXZpYXRpb249IjIzLjUiIGluPSJTb3VyY2VBbHBoYSIvPjxmZUNvbXBvbmVudFRyYW5zZmVyIGNvbG9yLWludGVycG9sYXRpb24tZmlsdGVycz0ic1JHQiIgaW49ImJsdXIiPjxmZUZ1bmNSIHR5cGU9ImxpbmVhciIvPjxmZUZ1bmNHIHR5cGU9ImxpbmVhciIvPjxmZUZ1bmNCIHR5cGU9ImxpbmVhciIvPjxmZUZ1bmNBIHR5cGU9ImxpbmVhciIvPjwvZmVDb21wb25lbnRUcmFuc2Zlcj48L2ZpbHRlcj48L2RlZnM+PGcgaWQ9ImcyMWQzODQ5MmZlN18wXzYyMC4xIj48cGF0aCBmaWxsLXJ1bGU9ImV2ZW5vZGQiIGQ9Im05Ni4wIDI3MS40MjI1OGwyMzkwLjgwMzIgMGwwIDEwMjMuNzE2NTVsLTIzOTAuODAzMiAweiIgZmlsbD0iI2ZmZmZmZiIvPjwvZz48cGF0aCBmaWxsLXJ1bGU9ImV2ZW5vZGQiIGQ9Im0xMjcuOTQ0MDE2IDczLjkzNTI2bDIxNzcuMjkxMyAwbDAgMTExLjY1MzU1bC0yMTc3LjI5MTMgMHoiIGZpbGwtb3BhY2l0eT0iMC4wIiBmaWxsPSIjMDAwMDAwIi8+PHBhdGggZmlsbC1ydWxlPSJub256ZXJvIiBkPSJtMTUyLjQxMjc3IDE1NC42ODQ1MXEtNi40NTMxMjUgMCAtMTIuMzU5Mzc1IC0xLjg0Mzc1cS01Ljg5MDYyNSAtMS44NDM3NSAtOS4zNTkzNzUgLTQuNzY1NjI1bDMuNTQ2ODc1IC03LjkzNzVxMy4yOTY4NzUgMi41OTM3NSA4LjE3MTg3NSA0LjMyODEyNXE0Ljg3NSAxLjczNDM3NSAxMC4wIDEuNzM0Mzc1cTQuMzEyNSAwIDYuOTg0Mzc1IC0wLjkzNzVxMi42ODc1IC0wLjk1MzEyNSAzLjkzNzUgLTIuNTYyNXExLjI2NTYyNSAtMS42MjUgMS4yNjU2MjUgLTMuNjU2MjVxMCAtMi41MzEyNSAtMS44MTI1IC00LjA2MjVxLTEuODEyNSAtMS41MzEyNSAtNC42ODc1IC0yLjQzNzVxLTIuODU5Mzc1IC0wLjkwNjI1IC02LjM1OTM3NSAtMS42ODc1cS0zLjUgLTAuNzgxMjUgLTcuMCAtMS44NDM3NXEtMy41IC0xLjA2MjUwNzYgLTYuMzc1IC0yLjc1MDAwNzZxLTIuODc1IC0xLjcwMzEyNSAtNC42ODc1IC00LjUzMTI1cS0xLjc5Njg3NSAtMi44MjgxMjUgLTEuNzk2ODc1IC03LjIzNDM3NXEwIC00LjQ4NDM3NSAyLjM5MDYyNSAtOC4yMTg3NXEyLjQwNjI1IC0zLjczNDM3NSA3LjMxMjUgLTUuOTY4NzVxNC45MjE4NzUgLTIuMjUgMTIuNDY4NzUgLTIuMjVxNC45NTMxMjUgMCA5LjgyODEyNSAxLjI2NTYyNXE0Ljg5MDYyNSAxLjI1IDguNSAzLjYwOTM3NWwtMy4yMTg3NSA3LjkzNzVxLTMuNzAzMTI1IC0yLjIwMzEyNSAtNy42NDA2MjUgLTMuMjVxLTMuOTIxODc1IC0xLjA2MjUgLTcuNTQ2ODc1IC0xLjA2MjVxLTQuMjUgMCAtNi44OTA2MjUgMS4wMTU2MjVxLTIuNjI1IDEuMDE1NjI1IC0zLjg0Mzc1IDIuNjcxODc1cS0xLjIxODc1IDEuNjU2MjUgLTEuMjE4NzUgMy43ODEyNXEwIDIuNTE1NjI1IDEuNzY1NjI1IDQuMDQ2ODc1cTEuNzgxMjUgMS41MzEyNSA0LjY0MDYyNSAyLjQwNjI1cTIuODc1IDAuODU5Mzc1IDYuNDA2MjUgMS42ODc1cTMuNTQ2ODc1IDAuODI4MTI1IDcuMDQ2ODc1IDEuODU5Mzc1cTMuNSAxLjAxNTYyNSA2LjM3NSAyLjY3MTg3NXEyLjg3NSAxLjY0MDYzMjYgNC42NDA2MjUgNC40Njg3NTc2cTEuNzY1NjI1IDIuODI4MTI1IDEuNzY1NjI1IDcuMTU2MjVxMCA0LjQwNjI1IC0yLjQwNjI1IDguMTQwNjI1cS0yLjM5MDYyNSAzLjczNDM3NSAtNy4zNDM3NSA1Ljk4NDM3NXEtNC45NTMxMjUgMi4yMzQzNzUgLTEyLjUgMi4yMzQzNzV6bTQ3LjI3MTYyIC0wLjIzNDM3NXEtNi45MjE4NzUgMCAtMTAuNzAzMTI1IC0zLjU3ODEyNXEtMy43ODEyNSAtMy41NzgxMjUgLTMuNzgxMjUgLTEwLjU3ODEyNWwwIC0zNy42NzE4ODNsOS44NDM3NSAwbDAgMzcuNDM3NTA4cTAgMi45ODQzNzUgMS41MzEyNSA0LjY0MDYyNXExLjUzMTI1IDEuNjU2MjUgNC4yODEyNSAxLjY1NjI1cTMuMzEyNSAwIDUuNTE1NjI1IC0xLjczNDM3NWwyLjc1IDcuMHEtMS43MzQzNzUgMS40MjE4NzUgLTQuMjUgMi4xMjVxLTIuNTE1NjI1IDAuNzAzMTI1IC01LjE4NzUgMC43MDMxMjV6bS0yMS40MDYyNSAtMzQuMzc1MDA4bDAgLTcuODU5Mzc1bDI4LjAgMGwwIDcuODU5Mzc1bC0yOC4wIDB6bTM4Ljk0Mzk4NSAzMy44MjgxMzNsMCAtNDIuMDAwMDA4bDkuMzU5Mzc1IDBsMCAxMS41NjI1bC0xLjEwOTM3NSAtMy4zOTA2MjVxMS44OTA2MjUgLTQuMjM0Mzc1IDUuOTM3NSAtNi40Mzc1cTQuMDYyNSAtMi4yMDMxMjUgMTAuMTA5Mzc1IC0yLjIwMzEyNWwwIDkuMzU5Mzc1cS0wLjYyNSAtMC4xNTYyNSAtMS4xNzE4NzUgLTAuMTg3NXEtMC41NDY4NzUgLTAuMDQ2ODc1IC0xLjEwOTM3NSAtMC4wNDY4NzVxLTUuNTc4MTI1IDAgLTguODkwNjI1IDMuMjY1NjI1cS0zLjI5Njg3NSAzLjI1IC0zLjI5Njg3NSA5LjcwMzEzM2wwIDIwLjM3NWwtOS44MjgxMjUgMHptNTEuOTgzMjkgMC41NDY4NzVxLTcuMCAwIC0xMi4yMzQzNzUgLTIuNzgxMjVxLTUuMjE4NzM0NyAtMi43OTY4NzUgLTguMDkzNzM1IC03LjY3MTg3NXEtMi44NzUgLTQuODc1IC0yLjg3NSAtMTEuMDkzNzVxMCAtNi4yOTY4ODI2IDIuNzk2ODc1IC0xMS4xMjUwMDhxMi43OTY4NzUgLTQuODQzNzUgNy43MDMxMDk3IC03LjU5Mzc1cTQuOTIxODc1IC0yLjc1IDExLjIxODc1IC0yLjc1cTYuMTI1IDAgMTAuOTIxODc1IDIuNjcxODc1cTQuNzk2ODc1IDIuNjcxODc1IDcuNTQ2ODc1IDcuNTQ2ODc1cTIuNzY1NjI1IDQuODc1IDIuNzY1NjI1IDExLjQ4NDM4M3EwIDAuNjI1IC0wLjA0Njg3NSAxLjQyMTg3NXEtMC4wMzEyNSAwLjc4MTI1IC0wLjEwOTM3NSAxLjQ4NDM3NWwtMzQuOTk5OTg1IDBsMCAtNi41MzEyNWwyOS44MTI0ODUgMGwtMy44NTkzNzUgMi4wNDY4NzVxMC4wNzgxMjUgLTMuNjA5MzgyNiAtMS41IC02LjM1OTM4MjZxLTEuNTYyNSAtMi43NjU2MjUgLTQuMjgxMjUgLTQuMzI4MTI1cS0yLjcxODc1IC0xLjU3ODEyNSAtNi4yNSAtMS41NzgxMjVxLTMuNjI1IDAgLTYuMzQzNzUgMS41NzgxMjVxLTIuNzAzMTI1IDEuNTYyNSAtNC4yNSA0LjM1OTM3NXEtMS41MzEyMzQ3IDIuNzk2ODgyNiAtMS41MzEyMzQ3IDYuNTYyNTA3NmwwIDEuNTc4MTI1cTAgMy43ODEyNSAxLjczNDM1OTcgNi42ODc1cTEuNzM0Mzc1IDIuOTA2MjUgNC44NzUgNC40ODQzNzVxMy4xNTYyNSAxLjU3ODEyNSA3LjIzNDM3NSAxLjU3ODEyNXEzLjU0Njg3NSAwIDYuMzc1IC0xLjA5Mzc1cTIuODI4MTI1IC0xLjEwOTM3NSA1LjAzMTI1IC0zLjQ2ODc1bDUuMjgxMjUgNi4wNDY4NzVxLTIuODQzNzUgMy4zMTI1IC03LjEyNSA1LjA3ODEyNXEtNC4yODEyNSAxLjc2NTYyNSAtOS43OTY4NzUgMS43NjU2MjV6bTUzLjg4NDc5NiAtMC41NDY4NzVsMCAtOC41bC0wLjU0Njg3NSAtMS43OTY4NzVsMCAtMTQuODc1cTAgLTQuMzI4MTMyNiAtMi42MDkzNzUgLTYuNzE4NzU3NnEtMi41OTM3NSAtMi40MDYyNSAtNy44NTkzNzUgLTIuNDA2MjVxLTMuNTMxMjUgMCAtNi45NTMxMjUgMS4xMDkzNzVxLTMuNDIxODc1IDEuMDkzNzUgLTUuNzgxMjUgMy4wNjI1bC0zLjg1OTM3NSAtNy4xNTYyNXEzLjM5MDYyNSAtMi41OTM3NSA4LjA2MjUgLTMuODkwNjI1cTQuNjg3NSAtMS4yOTY4NzUgOS43MTg3NSAtMS4yOTY4NzVxOS4xMjUgMCAxNC4xMDkzNzUgNC4zNTkzNzVxNS4wIDQuMzU5Mzc1IDUuMCAxMy40ODQzODNsMCAyNC42MjVsLTkuMjgxMjUgMHptLTEzLjIxODc1IDAuNTQ2ODc1cS00LjcxODc1IDAgLTguMjY1NjI1IC0xLjYwOTM3NXEtMy41MzEyNSAtMS42MDkzNzUgLTUuNDY4NzUgLTQuNDg0Mzc1cS0xLjkyMTg3NSAtMi44NzUgLTEuOTIxODc1IC02LjQ4NDM3NXEwIC0zLjU0Njg3NSAxLjY4NzUgLTYuMzc1cTEuNzAzMTI1IC0yLjgyODEyNSA1LjU0Njg3NSAtNC40ODQzNzVxMy44NTkzNzUgLTEuNjU2MjUgMTAuMjM0Mzc1IC0xLjY1NjI1bDEyLjE4NzUgMGwwIDYuNTMxMjVsLTExLjQ4NDM3NSAwcS01LjAzMTI1IDAgLTYuNzY1NjI1IDEuNjI1cS0xLjcxODc1IDEuNjA5Mzc1IC0xLjcxODc1IDMuOTY4NzVxMCAyLjY3MTg3NSAyLjEyNSA0LjI1cTIuMTI1IDEuNTYyNSA1Ljg5MDYyNSAxLjU2MjVxMy42MjUgMCA2LjQ4NDM3NSAtMS42NDA2MjVxMi44NzUgLTEuNjU2MjUgNC4xNDA2MjUgLTQuODkwNjI1bDEuNjQwNjI1IDUuOTA2MjVxLTEuNDA2MjUgMy42ODc1IC01LjA2MjUgNS43MzQzNzVxLTMuNjU2MjUgMi4wNDY4NzUgLTkuMjUgMi4wNDY4NzV6bTg4LjEwMzY3IC00My4wMTU2MzNxNS4wMzEyNSAwIDguOTIxODc1IDEuOTY4NzVxMy44OTA2MjUgMS45NTMxMjUgNi4wOTM3NSA2LjAxNTYyNXEyLjIwMzEyNSA0LjA0Njg3NSAyLjIwMzEyNSAxMC40MjE4ODNsMCAyNC4wNjI1bC05LjgyODEyNSAwbDAgLTIyLjgxMjVxMCAtNS41NzgxMzI2IC0yLjQzNzUgLTguMzI4MTMzcS0yLjQzNzUgLTIuNzY1NjI1IC03LjAgLTIuNzY1NjI1cS0zLjIzNDM3NSAwIC01LjcxODc1IDEuNDIxODc1cS0yLjQ2ODc1IDEuNDIxODc1IC0zLjg0Mzc1IDQuMTcxODc1cS0xLjM3NSAyLjc1MDAwNzYgLTEuMzc1IDcuMDAwMDA3NmwwIDIxLjMxMjVsLTkuODI4MTI1IDBsMCAtMjIuODEyNXEwIC01LjU3ODEzMjYgLTIuNDM3NSAtOC4zMjgxMzNxLTIuNDM3NSAtMi43NjU2MjUgLTcuMCAtMi43NjU2MjVxLTMuMjM0Mzc1IDAgLTUuNzE4NzUgMS40MjE4NzVxLTIuNDY4NzUgMS40MjE4NzUgLTMuODQzNzUgNC4xNzE4NzVxLTEuMzc1IDIuNzUwMDA3NiAtMS4zNzUgNy4wMDAwMDc2bDAgMjEuMzEyNWwtOS44MjgxMjUgMGwwIC00Mi4wMDAwMDhsOS4zNTkzNzUgMGwwIDExLjE3MTg3NWwtMS42NTYyNSAtMy4zMTI1cTIuMTI1IC00LjA5Mzc1IDYuMTcxODc1IC02LjIwMzEyNXE0LjA2MjUgLTIuMTI1IDkuMjUgLTIuMTI1cTUuODkwNjI1IDAgMTAuMjUgMi45MDYyNXE0LjM3NSAyLjkwNjI1IDUuNzk2ODc1IDguODEyNWwtMy44NTkzNzUgLTEuMzQzNzVxMi4wNDY4NzUgLTQuNzE4NzUgNi43NjU2MjUgLTcuNTQ2ODc1cTQuNzE4NzUgLTIuODI4MTI1IDEwLjkzNzUgLTIuODI4MTI1em0yNy42ODQzNTcgMjQuNjg3NTA4bDAgLTguMTcxODgzbDIxLjYyNSAwbDAgOC4xNzE4ODNsLTIxLjYyNSAwem00MS43NjM3MDIgMTcuNzgxMjVsMCAtNDYuNDA2MjU4bC0xOC4yNSAwbDAgLTguNjU2MjVsNDYuNzE4NzUgMGwwIDguNjU2MjVsLTE4LjI1IDBsMCA0Ni40MDYyNThsLTEwLjIxODc1IDB6bTU4LjkxNDAzMiAwbDAgLTguNWwtMC41NDY4NzUgLTEuNzk2ODc1bDAgLTE0Ljg3NXEwIC00LjMyODEzMjYgLTIuNjA5Mzc1IC02LjcxODc1NzZxLTIuNTkzNzUgLTIuNDA2MjUgLTcuODU5Mzc1IC0yLjQwNjI1cS0zLjUzMTI4MDUgMCAtNi45NTMxNTU1IDEuMTA5Mzc1cS0zLjQyMTg3NSAxLjA5Mzc1IC01Ljc4MTI1IDMuMDYyNWwtMy44NTkzNzUgLTcuMTU2MjVxMy4zOTA2MjUgLTIuNTkzNzUgOC4wNjI1IC0zLjg5MDYyNXE0LjY4NzUgLTEuMjk2ODc1IDkuNzE4NzgwNSAtMS4yOTY4NzVxOS4xMjUgMCAxNC4xMDkzNzUgNC4zNTkzNzVxNS4wIDQuMzU5Mzc1IDUuMCAxMy40ODQzODNsMCAyNC42MjVsLTkuMjgxMjUgMHptLTEzLjIxODc1IDAuNTQ2ODc1cS00LjcxODc4MDUgMCAtOC4yNjU2NTU1IC0xLjYwOTM3NXEtMy41MzEyNSAtMS42MDkzNzUgLTUuNDY4NzUgLTQuNDg0Mzc1cS0xLjkyMTg3NSAtMi44NzUgLTEuOTIxODc1IC02LjQ4NDM3NXEwIC0zLjU0Njg3NSAxLjY4NzUgLTYuMzc1cTEuNzAzMTI1IC0yLjgyODEyNSA1LjU0Njg3NSAtNC40ODQzNzVxMy44NTkzNzUgLTEuNjU2MjUgMTAuMjM0NDA1NSAtMS42NTYyNWwxMi4xODc1IDBsMCA2LjUzMTI1bC0xMS40ODQzNzUgMHEtNS4wMzEyODA1IDAgLTYuNzY1NjU1NSAxLjYyNXEtMS43MTg3NSAxLjYwOTM3NSAtMS43MTg3NSAzLjk2ODc1cTAgMi42NzE4NzUgMi4xMjUgNC4yNXEyLjEyNSAxLjU2MjUgNS44OTA2NTU1IDEuNTYyNXEzLjYyNSAwIDYuNDg0Mzc1IC0xLjY0MDYyNXEyLjg3NSAtMS42NTYyNSA0LjE0MDYyNSAtNC44OTA2MjVsMS42NDA2MjUgNS45MDYyNXEtMS40MDYyNSAzLjY4NzUgLTUuMDYyNSA1LjczNDM3NXEtMy42NTYyNSAyLjA0Njg3NSAtOS4yNSAyLjA0Njg3NXptNTguMzY5MzI0IDBxLTUuMzQzNzUgMCAtOS41MTU2MjUgLTIuMzU5Mzc1cS00LjE3MTg3NSAtMi4zNTkzNzUgLTYuNTc4MTI1IC03LjEwOTM3NXEtMi4zOTA2MjUgLTQuNzY1NjI1IC0yLjM5MDYyNSAtMTIuMDc4MTI1cTAgLTcuMzkwNjMyNiAyLjQ2ODc1IC0xMi4xMDkzODNxMi40ODQzNzUgLTQuNzE4NzUgNi42ODc1IC03LjAzMTI1cTQuMjE4NzUgLTIuMzI4MTI1IDkuMzI4MTI1IC0yLjMyODEyNXE2LjIxODc1IDAgMTAuOTY4NzUgMi42NzE4NzVxNC43NjU2MjUgMi42NzE4NzUgNy41NDY4NzUgNy40Njg3NXEyLjc5Njg3NSA0Ljc5Njg3NSAyLjc5Njg3NSAxMS4zMjgxMzNxMCA2LjUzMTI1IC0yLjc5Njg3NSAxMS4zMjgxMjVxLTIuNzgxMjUgNC43OTY4NzUgLTcuNTQ2ODc1IDcuNTE1NjI1cS00Ljc1IDIuNzAzMTI1IC0xMC45Njg3NSAyLjcwMzEyNXptLTIzLjI4MTI1IC0wLjU0Njg3NWwwIC01OC4zNTkzODNsOS44MjgxMjUgMGwwIDI2LjEwOTM3NWwtMC43ODEyNSAxMS4xNzE4ODNsMC4zMTI1IDExLjE3MTg3NWwwIDkuOTA2MjVsLTkuMzU5Mzc1IDB6bTIyLjE3MTg3NSAtNy44NTkzNzVxMy41NDY4NzUgMCA2LjMyODEyNSAtMS41NzgxMjVxMi43OTY4NzUgLTEuNTc4MTI1IDQuNDUzMTI1IC00LjU2MjVxMS42NTYyNSAtMi45ODQzNzUgMS42NTYyNSAtNy4wcTAgLTQuMDkzNzUgLTEuNjU2MjUgLTcuMDMxMjU3NnEtMS42NTYyNSAtMi45NTMxMjUgLTQuNDUzMTI1IC00LjUzMTI1cS0yLjc4MTI1IC0xLjU3ODEyNSAtNi4zMjgxMjUgLTEuNTc4MTI1cS0zLjUzMTI1IDAgLTYuMzc1IDEuNTc4MTI1cS0yLjgyODEyNSAxLjU3ODEyNSAtNC40ODQzNzUgNC41MzEyNXEtMS42NDA2MjUgMi45Mzc1MDc2IC0xLjY0MDYyNSA3LjAzMTI1NzZxMCA0LjAxNTYyNSAxLjY0MDYyNSA3LjBxMS42NTYyNSAyLjk4NDM3NSA0LjQ4NDM3NSA0LjU2MjVxMi44NDM3NSAxLjU3ODEyNSA2LjM3NSAxLjU3ODEyNXptMzEuNzg2MjU1IDcuODU5Mzc1bDAgLTU4LjM1OTM4M2w5LjgyODEyNSAwbDAgNTguMzU5MzgzbC05LjgyODEyNSAwem00Mi40NjYwMDMgMC41NDY4NzVxLTcuMCAwIC0xMi4yMzQzNzUgLTIuNzgxMjVxLTUuMjE4NzUgLTIuNzk2ODc1IC04LjA5Mzc1IC03LjY3MTg3NXEtMi44NzUgLTQuODc1IC0yLjg3NSAtMTEuMDkzNzVxMCAtNi4yOTY4ODI2IDIuNzk2ODc1IC0xMS4xMjUwMDhxMi43OTY4NzUgLTQuODQzNzUgNy43MDMxMjUgLTcuNTkzNzVxNC45MjE4NzUgLTIuNzUgMTEuMjE4NzUgLTIuNzVxNi4xMjUgMCAxMC45MjE4NzUgMi42NzE4NzVxNC43OTY4NzUgMi42NzE4NzUgNy41NDY4NzUgNy41NDY4NzVxMi43NjU2MjUgNC44NzUgMi43NjU2MjUgMTEuNDg0MzgzcTAgMC42MjUgLTAuMDQ2ODc1IDEuNDIxODc1cS0wLjAzMTI1IDAuNzgxMjUgLTAuMTA5Mzc1IDEuNDg0Mzc1bC0zNS4wIDBsMCAtNi41MzEyNWwyOS44MTI1IDBsLTMuODU5Mzc1IDIuMDQ2ODc1cTAuMDc4MTI1IC0zLjYwOTM4MjYgLTEuNSAtNi4zNTkzODI2cS0xLjU2MjUgLTIuNzY1NjI1IC00LjI4MTI1IC00LjMyODEyNXEtMi43MTg3NSAtMS41NzgxMjUgLTYuMjUgLTEuNTc4MTI1cS0zLjYyNSAwIC02LjM0Mzc1IDEuNTc4MTI1cS0yLjcwMzEyNSAxLjU2MjUgLTQuMjUgNC4zNTkzNzVxLTEuNTMxMjUgMi43OTY4ODI2IC0xLjUzMTI1IDYuNTYyNTA3NmwwIDEuNTc4MTI1cTAgMy43ODEyNSAxLjczNDM3NSA2LjY4NzVxMS43MzQzNzUgMi45MDYyNSA0Ljg3NSA0LjQ4NDM3NXEzLjE1NjI1IDEuNTc4MTI1IDcuMjM0Mzc1IDEuNTc4MTI1cTMuNTQ2ODc1IDAgNi4zNzUgLTEuMDkzNzVxMi44MjgxMjUgLTEuMTA5Mzc1IDUuMDMxMjUgLTMuNDY4NzVsNS4yODEyNSA2LjA0Njg3NXEtMi44NDM3NSAzLjMxMjUgLTcuMTI1IDUuMDc4MTI1cS00LjI4MTI1IDEuNzY1NjI1IC05Ljc5Njg3NSAxLjc2NTYyNXptNjguNjY0NDkgMHEtNi4wNDY4NzUgMCAtMTAuODkwNjI1IC0yLjcwMzEyNXEtNC44MjgxMjUgLTIuNzE4NzUgLTcuNTkzNzUgLTcuNTE1NjI1cS0yLjc1IC00Ljc5Njg3NSAtMi43NSAtMTEuMzI4MTI1cTAgLTYuNTMxMjU3NiAyLjc1IC0xMS4zMjgxMzNxMi43NjU2MjUgLTQuNzk2ODc1IDcuNTkzNzUgLTcuNDY4NzVxNC44NDM3NSAtMi42NzE4NzUgMTAuODkwNjI1IC0yLjY3MTg3NXE1LjI4MTI1IDAgOS40Mzc1IDIuMzI4MTI1cTQuMTcxODc1IDIuMzEyNSA2LjYwOTM3NSA3LjAzMTI1cTIuNDM3NSA0LjcxODc1IDIuNDM3NSAxMi4xMDkzODNxMCA3LjMxMjUgLTIuMzU5Mzc1IDEyLjA3ODEyNXEtMi4zNTkzNzUgNC43NSAtNi41MzEyNSA3LjEwOTM3NXEtNC4xNTYyNSAyLjM1OTM3NSAtOS41OTM3NSAyLjM1OTM3NXptMS4xODc1IC04LjQwNjI1cTMuNTQ2ODc1IDAgNi4zMjgxMjUgLTEuNTc4MTI1cTIuNzk2ODc1IC0xLjU3ODEyNSA0LjQ4NDM3NSAtNC41NjI1cTEuNjg3NSAtMi45ODQzNzUgMS42ODc1IC03LjBxMCAtNC4wOTM3NSAtMS42ODc1IC03LjAzMTI1NzZxLTEuNjg3NSAtMi45NTMxMjUgLTQuNDg0Mzc1IC00LjUzMTI1cS0yLjc4MTI1IC0xLjU3ODEyNSAtNi4zMjgxMjUgLTEuNTc4MTI1cS0zLjU0Njg3NSAwIC02LjM0Mzc1IDEuNTc4MTI1cS0yLjc4MTI1IDEuNTc4MTI1IC00LjQ2ODc1IDQuNTMxMjVxLTEuNjg3NSAyLjkzNzUwNzYgLTEuNjg3NSA3LjAzMTI1NzZxMCA0LjAxNTYyNSAxLjY4NzUgNy4wcTEuNjg3NSAyLjk4NDM3NSA0LjQ2ODc1IDQuNTYyNXEyLjc5Njg3NSAxLjU3ODEyNSA2LjM0Mzc1IDEuNTc4MTI1em0xMi43MzQzNzUgNy44NTkzNzVsMCAtOS45MDYyNWwwLjQwNjI1IC0xMS4xNzE4NzVsLTAuNzk2ODc1IC0xMS4xNzE4ODNsMCAtMjYuMTA5Mzc1bDkuNzY1NjI1IDBsMCA1OC4zNTkzODNsLTkuMzc1IDB6bTQwLjExNDkzIDAuNTQ2ODc1cS01LjM0Mzc1IDAgLTkuNDM3NSAtMi4wcS00LjA3ODEyNSAtMi4wIC02LjM1OTM3NSAtNi4xMjVxLTIuMjgxMjUgLTQuMTQwNjI1IC0yLjI4MTI1IC0xMC40Mzc1bDAgLTIzLjk4NDM4M2w5LjgyODEyNSAwbDAgMjIuNjU2MjU4cTAgNS42NTYyNSAyLjU0Njg3NSA4LjQ1MzEyNXEyLjU2MjUgMi43ODEyNSA3LjI4MTI1IDIuNzgxMjVxMy40Njg3NSAwIDYuMDE1NjI1IC0xLjQwNjI1cTIuNTYyNSAtMS40MjE4NzUgNC4wMTU2MjUgLTQuMjVxMS40NTMxMjUgLTIuODI4MTI1IDEuNDUzMTI1IC03LjBsMCAtMjEuMjM0MzgzbDkuODI4MTI1IDBsMCA0Mi4wMDAwMDhsLTkuMzU5Mzc1IDBsMCAtMTEuMzI4MTI1bDEuNjU2MjUgMy40Njg3NXEtMi4xMjUgNC4wNzgxMjUgLTYuMjE4NzUgNi4yNXEtNC4wNzgxMjUgMi4xNTYyNSAtOC45Njg3NSAyLjE1NjI1em02MS42NzQyNTUgLTAuNTQ2ODc1bDAgLTguNWwtMC41NDY4NzUgLTEuNzk2ODc1bDAgLTE0Ljg3NXEwIC00LjMyODEzMjYgLTIuNjA5Mzc1IC02LjcxODc1NzZxLTIuNTkzNzUgLTIuNDA2MjUgLTcuODU5Mzc1IC0yLjQwNjI1cS0zLjUzMTI1IDAgLTYuOTUzMTI1IDEuMTA5Mzc1cS0zLjQyMTg3NSAxLjA5Mzc1IC01Ljc4MTI1IDMuMDYyNWwtMy44NTkzNzUgLTcuMTU2MjVxMy4zOTA2MjUgLTIuNTkzNzUgOC4wNjI1IC0zLjg5MDYyNXE0LjY4NzUgLTEuMjk2ODc1IDkuNzE4NzUgLTEuMjk2ODc1cTkuMTI1IDAgMTQuMTA5Mzc1IDQuMzU5Mzc1cTUuMCA0LjM1OTM3NSA1LjAgMTMuNDg0MzgzbDAgMjQuNjI1bC05LjI4MTI1IDB6bS0xMy4yMTg3NSAwLjU0Njg3NXEtNC43MTg3NSAwIC04LjI2NTYyNSAtMS42MDkzNzVxLTMuNTMxMjUgLTEuNjA5Mzc1IC01LjQ2ODc1IC00LjQ4NDM3NXEtMS45MjE4NzUgLTIuODc1IC0xLjkyMTg3NSAtNi40ODQzNzVxMCAtMy41NDY4NzUgMS42ODc1IC02LjM3NXExLjcwMzEyNSAtMi44MjgxMjUgNS41NDY4NzUgLTQuNDg0Mzc1cTMuODU5Mzc1IC0xLjY1NjI1IDEwLjIzNDM3NSAtMS42NTYyNWwxMi4xODc1IDBsMCA2LjUzMTI1bC0xMS40ODQzNzUgMHEtNS4wMzEyNSAwIC02Ljc2NTYyNSAxLjYyNXEtMS43MTg3NSAxLjYwOTM3NSAtMS43MTg3NSAzLjk2ODc1cTAgMi42NzE4NzUgMi4xMjUgNC4yNXEyLjEyNSAxLjU2MjUgNS44OTA2MjUgMS41NjI1cTMuNjI1IDAgNi40ODQzNzUgLTEuNjQwNjI1cTIuODc1IC0xLjY1NjI1IDQuMTQwNjI1IC00Ljg5MDYyNWwxLjY0MDYyNSA1LjkwNjI1cS0xLjQwNjI1IDMuNjg3NSAtNS4wNjI1IDUuNzM0Mzc1cS0zLjY1NjI1IDIuMDQ2ODc1IC05LjI1IDIuMDQ2ODc1em0zNS4wODgwNzQgLTAuNTQ2ODc1bDAgLTU4LjM1OTM4M2w5LjgyODEyNSAwbDAgNTguMzU5MzgzbC05LjgyODEyNSAwem0yMi43MzE2MjggMGwwIC00Mi4wMDAwMDhsOS44MjgxMjUgMGwwIDQyLjAwMDAwOGwtOS44MjgxMjUgMHptNC45NTMxMjUgLTQ4LjkyMTg4M3EtMi43NSAwIC00LjUzMTI1IC0xLjczNDM3NXEtMS43NjU2MjUgLTEuNzM0Mzc1IC0xLjc2NTYyNSAtNC4xNzE4NzVxMCAtMi41MTU2MjUgMS43NjU2MjUgLTQuMjAzMTI1cTEuNzgxMjUgLTEuNjg3NSA0LjUzMTI1IC0xLjY4NzVxMi43NSAwIDQuNTE1NjI1IDEuNjA5Mzc1cTEuNzgxMjUgMS42MDkzNzUgMS43ODEyNSA0LjA0Njg3NXEwIDIuNTkzNzUgLTEuNzM0Mzc1IDQuMzc1cS0xLjczNDM3NSAxLjc2NTYyNSAtNC41NjI1IDEuNzY1NjI1em0zMy41OTEwMDMgNDkuNDY4NzU4cS02LjkyMTg3NSAwIC0xMC43MDMxMjUgLTMuNTc4MTI1cS0zLjc4MTI1IC0zLjU3ODEyNSAtMy43ODEyNSAtMTAuNTc4MTI1bDAgLTM3LjY3MTg4M2w5Ljg0Mzc1IDBsMCAzNy40Mzc1MDhxMCAyLjk4NDM3NSAxLjUzMTI1IDQuNjQwNjI1cTEuNTMxMjUgMS42NTYyNSA0LjI4MTI1IDEuNjU2MjVxMy4zMTI1IDAgNS41MTU2MjUgLTEuNzM0Mzc1bDIuNzUgNy4wcS0xLjczNDM3NSAxLjQyMTg3NSAtNC4yNSAyLjEyNXEtMi41MTU2MjUgMC43MDMxMjUgLTUuMTg3NSAwLjcwMzEyNXptLTIxLjQwNjI1IC0zNC4zNzUwMDhsMCAtNy44NTkzNzVsMjguMCAwbDAgNy44NTkzNzVsLTI4LjAgMHptNDEuNjEwNDc0IDQ5LjY0MDYzM3EtMy4wNjI1IDAgLTYuMTQwNjI1IC0xLjAzMTI1cS0zLjA2MjUgLTEuMDE1NjI1IC01LjEwOTM3NSAtMi44MjgxMjVsMy45Mzc1IC03LjIzNDM3NXExLjUgMS4zNDM3NSAzLjM3NSAyLjEyNXExLjg5MDYyNSAwLjc4MTI1IDMuODU5Mzc1IDAuNzgxMjVxMi42NzE4NzUgMCA0LjMyODEyNSAtMS4zNDM3NXExLjY1NjI1IC0xLjMyODEyNSAzLjA2MjUgLTQuNDY4NzVsMi40Mzc1IC01LjUxNTYyNWwwLjc5Njg3NSAtMS4xNzE4NzVsMTUuODkwNjI1IC0zNy4xMjUwMDhsOS40Mzc1IDBsLTE5LjY3MTg3NSA0NS4zNzUwMDhxLTEuOTY4NzUgNC43MzQzNzUgLTQuMzc1IDcuNDg0Mzc1cS0yLjM5MDYyNSAyLjc1IC01LjM0Mzc1IDMuODQzNzVxLTIuOTM3NSAxLjEwOTM3NSAtNi40ODQzNzUgMS4xMDkzNzV6bTguNjU2MjUgLTE0LjMxMjVsLTE4Ljk1MzEyNSAtNDMuNTAwMDA4bDEwLjIxODc1IDBsMTUuNDIxODc1IDM2LjI2NTYzM2wtNi42ODc1IDcuMjM0Mzc1eiIgZmlsbD0iIzAwMDAwMCIvPjxwYXRoIGZpbGwtcnVsZT0iZXZlbm9kZCIgZD0ibTMwMy43MTE5IDYwOS41MDY2bDIwMi4yOTkyMiAwbDAgNzcuMTAyMzU2bC0yMDIuMjk5MjIgMHoiIGZpbGw9IiMwMDk5ZmYiLz48cGF0aCBmaWxsLXJ1bGU9ImV2ZW5vZGQiIGQ9Im0zMDMuNzExOSA2MDkuNTA2NmwyMDIuMjk5MjIgMGwwIDc3LjEwMjM1NmwtMjAyLjI5OTIyIDB6IiBzdHJva2UtbGluZWNhcD0iYnV0dCIgc3Ryb2tlLW1pdGVybGltaXQ9IjgwMC4wIiBzdHJva2Utd2lkdGg9IjEuMCIgc3Ryb2tlPSIjMDBiMGJhIi8+PHBhdGggZmlsbC1ydWxlPSJub256ZXJvIiBkPSJtMzcwLjQyODkgNjM5LjgxNDY0bDAgLTQuNTYyNWw0Ljk1MzEyNSAwbDAgNC41NjI1bC00Ljk1MzEyNSAwem0wIDIxLjIwMzEyNWwwIC0xOC42NzE4NzVsNC45NTMxMjUgMGwwIDE4LjY3MTg3NWwtNC45NTMxMjUgMHptMTguNTY0NDUzIC0xOC42NzE4NzVsMCAzLjkzNzVsLTMuMzc1IDBsMCA3LjUzMTI1cTAgMi4yODEyNSAwLjA5Mzc1IDIuNjU2MjVxMC4xMDkzNzUgMC4zNzUgMC40NTMxMjUgMC42MjVxMC4zNDM3NSAwLjI1IDAuODI4MTI1IDAuMjVxMC42ODc1IDAgMS45ODQzNzUgLTAuNDg0Mzc1bDAuNDIxODc1IDMuODQzNzVxLTEuNzE4NzUgMC43MzQzNzUgLTMuOTA2MjUgMC43MzQzNzVxLTEuMzI4MTI1IDAgLTIuNDA2MjUgLTAuNDM3NXEtMS4wNjI1IC0wLjQ1MzEyNSAtMS41NjI1IC0xLjE3MTg3NXEtMC41IC0wLjcxODc1IC0wLjcwMzEyNSAtMS45MjE4NzVxLTAuMTU2MjUgLTAuODU5Mzc1IC0wLjE1NjI1IC0zLjQ4NDM3NWwwIC04LjE0MDYyNWwtMi4yNjU2MjUgMGwwIC0zLjkzNzVsMi4yNjU2MjUgMGwwIC0zLjcwMzEyNWw0Ljk1MzEyNSAtMi44OTA2MjVsMCA2LjU5Mzc1bDMuMzc1IDB6bTE0LjIzODI4MSAxMi43MzQzNzVsNC45MjE4NzUgMC44MjgxMjVxLTAuOTM3NSAyLjcwMzEyNSAtMy4wIDQuMTI1cS0yLjA0Njg3NSAxLjQwNjI1IC01LjEwOTM3NSAxLjQwNjI1cS00Ljg3NSAwIC03LjIxODc1IC0zLjE4NzVxLTEuODQzNzUgLTIuNTQ2ODc1IC0xLjg0Mzc1IC02LjQyMTg3NXEwIC00LjY0MDYyNSAyLjQyMTg3NSAtNy4yNjU2MjVxMi40Mzc1IC0yLjY0MDYyNSA2LjE0MDYyNSAtMi42NDA2MjVxNC4xNzE4NzUgMCA2LjU3ODEyNSAyLjc1cTIuNDA2MjUgMi43NSAyLjI5Njg3NSA4LjQzNzVsLTEyLjM3NSAwcTAuMDYyNSAyLjE4NzUgMS4yMDMxMjUgMy40MjE4NzVxMS4xNDA2MjUgMS4yMTg3NSAyLjg0Mzc1IDEuMjE4NzVxMS4xNTYyNSAwIDEuOTM3NSAtMC42MjVxMC43OTY4NzUgLTAuNjQwNjI1IDEuMjAzMTI1IC0yLjA0Njg3NXptMC4yODEyNSAtNS4wcS0wLjA0Njg3NSAtMi4xNDA2MjUgLTEuMTA5Mzc1IC0zLjI1cS0xLjA0Njg3NSAtMS4xMjUgLTIuNTYyNSAtMS4xMjVxLTEuNjA5Mzc1IDAgLTIuNjcxODc1IDEuMTcxODc1cS0xLjA0Njg3NSAxLjE4NzUgLTEuMDMxMjUgMy4yMDMxMjVsNy4zNzUgMHptOC41NjgzNTkgLTcuNzM0Mzc1bDQuNTQ2ODc1IDBsMCAyLjU0Njg3NXEyLjQ1MzEyNSAtMi45Njg3NSA1LjgyODEyNSAtMi45Njg3NXExLjc4MTI1IDAgMy4wOTM3NSAwLjc1cTEuMzI4MTI1IDAuNzM0Mzc1IDIuMTcxODc1IDIuMjE4NzVxMS4yMzQzNzUgLTEuNDg0Mzc1IDIuNjU2MjUgLTIuMjE4NzVxMS40MjE4NzUgLTAuNzUgMy4wNDY4NzUgLTAuNzVxMi4wNDY4NzUgMCAzLjQ2ODc1IDAuODQzNzVxMS40MjE4NzUgMC44MjgxMjUgMi4xMjUgMi40NTMxMjVxMC41MTU2MjUgMS4xODc1IDAuNTE1NjI1IDMuODU5Mzc1bDAgMTEuOTM3NWwtNC45Mzc1IDBsMCAtMTAuNjcxODc1cTAgLTIuNzgxMjUgLTAuNTE1NjI1IC0zLjU3ODEyNXEtMC42ODc1IC0xLjA2MjUgLTIuMTA5Mzc1IC0xLjA2MjVxLTEuMDMxMjUgMCAtMS45NTMxMjUgMC42NDA2MjVxLTAuOTA2MjUgMC42MjUgLTEuMzEyNSAxLjg0Mzc1cS0wLjQwNjI1IDEuMjE4NzUgLTAuNDA2MjUgMy44NTkzNzVsMCA4Ljk2ODc1bC00LjkzNzUgMGwwIC0xMC4yMzQzNzVxMCAtMi43MTg3NSAtMC4yNjU2MjUgLTMuNXEtMC4yNjU2MjUgLTAuNzk2ODc1IC0wLjgyODEyNSAtMS4xODc1cS0wLjU0Njg3NSAtMC4zOTA2MjUgLTEuNDg0Mzc1IC0wLjM5MDYyNXEtMS4xNDA2MjUgMCAtMi4wNjI1IDAuNjI1cS0wLjkwNjI1IDAuNjA5Mzc1IC0xLjMxMjUgMS43NjU2MjVxLTAuMzkwNjI1IDEuMTU2MjUgLTAuMzkwNjI1IDMuODQzNzVsMCA5LjA3ODEyNWwtNC45Mzc1IDBsMCAtMTguNjcxODc1eiIgZmlsbD0iI2ZmZmZmZiIvPjxwYXRoIGZpbGwtcnVsZT0iZXZlbm9kZCIgZD0ibTUwNi4wNTA1NyA2MDkuNTA2NmwyMDIuMjk5MjIgMGwwIDc3LjEwMjM1NmwtMjAyLjI5OTIyIDB6IiBmaWxsPSIjMDA5OWZmIi8+PHBhdGggZmlsbC1ydWxlPSJldmVub2RkIiBkPSJtNTA2LjA1MDU3IDYwOS41MDY2bDIwMi4yOTkyMiAwbDAgNzcuMTAyMzU2bC0yMDIuMjk5MjIgMHoiIHN0cm9rZS1saW5lY2FwPSJidXR0IiBzdHJva2UtbWl0ZXJsaW1pdD0iODAwLjAiIHN0cm9rZS13aWR0aD0iMS4wIiBzdHJva2U9IiMwMGIwYmEiLz48cGF0aCBmaWxsLXJ1bGU9Im5vbnplcm8iIGQ9Im01NzcuMDY5MzQgNjQ3Ljg2MTVsLTQuODU5Mzc1IDAuODkwNjI1cS0wLjI1IC0xLjQ2ODc1IC0xLjEyNSAtMi4yMDMxMjVxLTAuODc1IC0wLjczNDM3NSAtMi4yNSAtMC43MzQzNzVxLTEuODU5Mzc1IDAgLTIuOTUzMTI1IDEuMjgxMjVxLTEuMDkzNzUgMS4yNjU2MjUgLTEuMDkzNzUgNC4yNXEwIDMuMzI4MTI1IDEuMTA5Mzc1IDQuNzAzMTI1cTEuMTI1IDEuMzU5Mzc1IDMuMCAxLjM1OTM3NXExLjQwNjI1IDAgMi4yOTY4NzUgLTAuNzk2ODc1cTAuOTA2MjUgLTAuNzk2ODc1IDEuMjY1NjI1IC0yLjc1bDQuODU5Mzc1IDAuODI4MTI1cS0wLjc1IDMuMzQzNzUgLTIuOTA2MjUgNS4wNDY4NzVxLTIuMTQwNjI1IDEuNzAzMTI1IC01Ljc1IDEuNzAzMTI1cS00LjA5Mzc1IDAgLTYuNTMxMjUgLTIuNTc4MTI1cS0yLjQyMTg3NSAtMi41OTM3NSAtMi40MjE4NzUgLTcuMTU2MjVxMCAtNC42MjUgMi40Mzc1IC03LjIwMzEyNXEyLjQzNzUgLTIuNTc4MTI1IDYuNjA5Mzc1IC0yLjU3ODEyNXEzLjQwNjI1IDAgNS40MjE4NzUgMS40Njg3NXEyLjAxNTYyNSAxLjQ2ODc1IDIuODkwNjI1IDQuNDY4NzV6bTIuNTk5NjA5NCAzLjU2MjVxMCAtMi40Njg3NSAxLjIxODc1IC00Ljc2NTYyNXExLjIxODc1IC0yLjMxMjUgMy40Mzc1IC0zLjUxNTYyNXEyLjIxODc1IC0xLjIxODc1IDQuOTY4NzUgLTEuMjE4NzVxNC4yMzQzNzUgMCA2LjkzNzUgMi43NXEyLjcwMzEyNSAyLjc1IDIuNzAzMTI1IDYuOTUzMTI1cTAgNC4yMzQzNzUgLTIuNzM0Mzc1IDcuMDMxMjVxLTIuNzM0Mzc1IDIuNzgxMjUgLTYuODc1IDIuNzgxMjVxLTIuNTYyNSAwIC00Ljg5MDYyNSAtMS4xNTYyNXEtMi4zMjgxMjUgLTEuMTcxODc1IC0zLjU0Njg3NSAtMy40MDYyNXEtMS4yMTg3NSAtMi4yMzQzNzUgLTEuMjE4NzUgLTUuNDUzMTI1em01LjA2MjUgMC4yNjU2MjVxMCAyLjc2NTYyNSAxLjMxMjUgNC4yNXExLjMyODEyNSAxLjQ2ODc1IDMuMjY1NjI1IDEuNDY4NzVxMS45Mzc1IDAgMy4yMzQzNzUgLTEuNDY4NzVxMS4zMTI1IC0xLjQ4NDM3NSAxLjMxMjUgLTQuMjk2ODc1cTAgLTIuNzM0Mzc1IC0xLjMxMjUgLTQuMjAzMTI1cS0xLjI5Njg3NSAtMS40ODQzNzUgLTMuMjM0Mzc1IC0xLjQ4NDM3NXEtMS45Mzc1IDAgLTMuMjY1NjI1IDEuNDg0Mzc1cS0xLjMxMjUgMS40Njg3NSAtMS4zMTI1IDQuMjV6bTMwLjM2NTIzNCA5LjMyODEyNWwwIC0yLjc5Njg3NXEtMS4wMTU2MjUgMS41IC0yLjY4NzUgMi4zNTkzNzVxLTEuNjU2MjUgMC44NTkzNzUgLTMuNSAwLjg1OTM3NXEtMS44OTA2MjUgMCAtMy4zOTA2MjUgLTAuODI4MTI1cS0xLjQ4NDM3NSAtMC44MjgxMjUgLTIuMTU2MjUgLTIuMzEyNXEtMC42NTYyNSAtMS41IC0wLjY1NjI1IC00LjE0MDYyNWwwIC0xMS44MTI1bDQuOTM3NSAwbDAgOC41NzgxMjVxMCAzLjkzNzUgMC4yNjU2MjUgNC44MjgxMjVxMC4yODEyNSAwLjg5MDYyNSAxLjAgMS40MDYyNXEwLjcxODc1IDAuNTE1NjI1IDEuODI4MTI1IDAuNTE1NjI1cTEuMjY1NjI1IDAgMi4yNjU2MjUgLTAuNjg3NXExLjAgLTAuNzAzMTI1IDEuMzU5Mzc1IC0xLjcxODc1cTAuMzc1IC0xLjAzMTI1IDAuMzc1IC01LjA0Njg3NWwwIC03Ljg3NWw0LjkzNzUgMGwwIDE4LjY3MTg3NWwtNC41NzgxMjUgMHptMjYuNjc3NjczIDBsLTQuOTM3NSAwbDAgLTkuNTMxMjVxMCAtMy4wMTU2MjUgLTAuMzEyNSAtMy45MDYyNXEtMC4zMTI1IC0wLjg5MDYyNSAtMS4wMzEyNSAtMS4zNzVxLTAuNzE4NzUgLTAuNSAtMS43MTg2ODkgLTAuNXEtMS4yODEyNSAwIC0yLjI5Njg3NSAwLjcwMzEyNXEtMS4wMTU2MjUgMC43MDMxMjUgLTEuNDA2MjUgMS44NzVxLTAuMzc1IDEuMTU2MjUgLTAuMzc1IDQuMjgxMjVsMCA4LjQ1MzEyNWwtNC45Mzc1IDBsMCAtMTguNjcxODc1bDQuNTkzNzUgMGwwIDIuNzVxMi40Mzc1IC0zLjE3MTg3NSA2LjE1NjE4OSAtMy4xNzE4NzVxMS42MjUgMCAyLjk2ODc1IDAuNTkzNzVxMS4zNTkzNzUgMC41OTM3NSAyLjA0Njg3NSAxLjUxNTYyNXEwLjcwMzEyNSAwLjkwNjI1IDAuOTY4NzUgMi4wNjI1cTAuMjgxMjUgMS4xNTYyNSAwLjI4MTI1IDMuMzEyNWwwIDExLjYwOTM3NXptMTMuNTY4MzU5IC0xOC42NzE4NzVsMCAzLjkzNzVsLTMuMzc1IDBsMCA3LjUzMTI1cTAgMi4yODEyNSAwLjA5Mzc1IDIuNjU2MjVxMC4xMDkzNzUgMC4zNzUgMC40NTMxMjUgMC42MjVxMC4zNDM3NSAwLjI1IDAuODI4MTI1IDAuMjVxMC42ODc1IDAgMS45ODQzNzUgLTAuNDg0Mzc1bDAuNDIxODc1IDMuODQzNzVxLTEuNzE4NzUgMC43MzQzNzUgLTMuOTA2MjUgMC43MzQzNzVxLTEuMzI4MTI1IDAgLTIuNDA2MjUgLTAuNDM3NXEtMS4wNjI1IC0wLjQ1MzEyNSAtMS41NjI1IC0xLjE3MTg3NXEtMC41IC0wLjcxODc1IC0wLjcwMzEyNSAtMS45MjE4NzVxLTAuMTU2MjUgLTAuODU5Mzc1IC0wLjE1NjI1IC0zLjQ4NDM3NWwwIC04LjE0MDYyNWwtMi4yNjU2MjUgMGwwIC0zLjkzNzVsMi4yNjU2MjUgMGwwIC0zLjcwMzEyNWw0Ljk1MzEyNSAtMi44OTA2MjVsMCA2LjU5Mzc1bDMuMzc1IDB6IiBmaWxsPSIjZmZmZmZmIi8+PHBhdGggZmlsbC1ydWxlPSJldmVub2RkIiBkPSJtMTg4NC42MzI2IDYwOC45NjQ1NGwyMDIuMjk5MDcgMGwwIDc3LjEwMjQybC0yMDIuMjk5MDcgMHoiIGZpbGw9IiMwMDk5ZmYiLz48cGF0aCBmaWxsLXJ1bGU9ImV2ZW5vZGQiIGQ9Im0xODg0LjYzMjYgNjA4Ljk2NDU0bDIwMi4yOTkwNyAwbDAgNzcuMTAyNDJsLTIwMi4yOTkwNyAweiIgc3Ryb2tlLWxpbmVjYXA9ImJ1dHQiIHN0cm9rZS1taXRlcmxpbWl0PSI4MDAuMCIgc3Ryb2tlLXdpZHRoPSIxLjAiIHN0cm9rZT0iIzAwYjBiYSIvPjxwYXRoIGZpbGwtcnVsZT0ibm9uemVybyIgZD0ibTE5NTEuMzQ5NSA2MzkuMjcyNjRsMCAtNC41NjI1bDQuOTUzMTI1IDBsMCA0LjU2MjVsLTQuOTUzMTI1IDB6bTAgMjEuMjAzMTI1bDAgLTE4LjY3MTg3NWw0Ljk1MzEyNSAwbDAgMTguNjcxODc1bC00Ljk1MzEyNSAwem0xOC41NjQ0NTMgLTE4LjY3MTg3NWwwIDMuOTM3NWwtMy4zNzUgMGwwIDcuNTMxMjVxMCAyLjI4MTI1IDAuMDkzNzUgMi42NTYyNXEwLjEwOTM3NSAwLjM3NSAwLjQ1MzEyNSAwLjYyNXEwLjM0Mzc1IDAuMjUgMC44MjgxMjUgMC4yNXEwLjY4NzUgMCAxLjk4NDM3NSAtMC40ODQzNzVsMC40MjE4NzUgMy44NDM3NXEtMS43MTg3NSAwLjczNDM3NSAtMy45MDYyNSAwLjczNDM3NXEtMS4zMjgxMjUgMCAtMi40MDYyNSAtMC40Mzc1cS0xLjA2MjUgLTAuNDUzMTI1IC0xLjU2MjUgLTEuMTcxODc1cS0wLjUgLTAuNzE4NzUgLTAuNzAzMTI1IC0xLjkyMTg3NXEtMC4xNTYyNSAtMC44NTkzNzUgLTAuMTU2MjUgLTMuNDg0Mzc1bDAgLTguMTQwNjI1bC0yLjI2NTYyNSAwbDAgLTMuOTM3NWwyLjI2NTYyNSAwbDAgLTMuNzAzMTI1bDQuOTUzMTI1IC0yLjg5MDYyNWwwIDYuNTkzNzVsMy4zNzUgMHptMTQuMjM4MjgxIDEyLjczNDM3NWw0LjkyMTg3NSAwLjgyODEyNXEtMC45Mzc1IDIuNzAzMTI1IC0zLjAgNC4xMjVxLTIuMDQ2ODc1IDEuNDA2MjUgLTUuMTA5Mzc1IDEuNDA2MjVxLTQuODc1IDAgLTcuMjE4NzUgLTMuMTg3NXEtMS44NDM3NSAtMi41NDY4NzUgLTEuODQzNzUgLTYuNDIxODc1cTAgLTQuNjQwNjI1IDIuNDIxODc1IC03LjI2NTYyNXEyLjQzNzUgLTIuNjQwNjI1IDYuMTQwNjI1IC0yLjY0MDYyNXE0LjE3MTg3NSAwIDYuNTc4MTI1IDIuNzVxMi40MDYyNSAyLjc1IDIuMjk2ODc1IDguNDM3NWwtMTIuMzc1IDBxMC4wNjI1IDIuMTg3NSAxLjIwMzEyNSAzLjQyMTg3NXExLjE0MDYyNSAxLjIxODc1IDIuODQzNzUgMS4yMTg3NXExLjE1NjI1IDAgMS45Mzc1IC0wLjYyNXEwLjc5Njg3NSAtMC42NDA2MjUgMS4yMDMxMjUgLTIuMDQ2ODc1em0wLjI4MTI1IC01LjBxLTAuMDQ2ODc1IC0yLjE0MDYyNSAtMS4xMDkzNzUgLTMuMjVxLTEuMDQ2ODc1IC0xLjEyNSAtMi41NjI1IC0xLjEyNXEtMS42MDkzNzUgMCAtMi42NzE4NzUgMS4xNzE4NzVxLTEuMDQ2ODc1IDEuMTg3NSAtMS4wMzEyNSAzLjIwMzEyNWw3LjM3NSAwem04LjU2ODM1OSAtNy43MzQzNzVsNC41NDY4NzUgMGwwIDIuNTQ2ODc1cTIuNDUzMTI1IC0yLjk2ODc1IDUuODI4MTI1IC0yLjk2ODc1cTEuNzgxMjUgMCAzLjA5Mzc1IDAuNzVxMS4zMjgxMjUgMC43MzQzNzUgMi4xNzE4NzUgMi4yMTg3NXExLjIzNDM3NSAtMS40ODQzNzUgMi42NTYyNSAtMi4yMTg3NXExLjQyMTg3NSAtMC43NSAzLjA0Njg3NSAtMC43NXEyLjA0Njg3NSAwIDMuNDY4NzUgMC44NDM3NXExLjQyMTg3NSAwLjgyODEyNSAyLjEyNSAyLjQ1MzEyNXEwLjUxNTYyNSAxLjE4NzUgMC41MTU2MjUgMy44NTkzNzVsMCAxMS45Mzc1bC00LjkzNzUgMGwwIC0xMC42NzE4NzVxMCAtMi43ODEyNSAtMC41MTU2MjUgLTMuNTc4MTI1cS0wLjY4NzUgLTEuMDYyNSAtMi4xMDkzNzUgLTEuMDYyNXEtMS4wMzEyNSAwIC0xLjk1MzEyNSAwLjY0MDYyNXEtMC45MDYyNSAwLjYyNSAtMS4zMTI1IDEuODQzNzVxLTAuNDA2MjUgMS4yMTg3NSAtMC40MDYyNSAzLjg1OTM3NWwwIDguOTY4NzVsLTQuOTM3NSAwbDAgLTEwLjIzNDM3NXEwIC0yLjcxODc1IC0wLjI2NTYyNSAtMy41cS0wLjI2NTYyNSAtMC43OTY4NzUgLTAuODI4MTI1IC0xLjE4NzVxLTAuNTQ2ODc1IC0wLjM5MDYyNSAtMS40ODQzNzUgLTAuMzkwNjI1cS0xLjE0MDYyNSAwIC0yLjA2MjUgMC42MjVxLTAuOTA2MjUgMC42MDkzNzUgLTEuMzEyNSAxLjc2NTYyNXEtMC4zOTA2MjUgMS4xNTYyNSAtMC4zOTA2MjUgMy44NDM3NWwwIDkuMDc4MTI1bC00LjkzNzUgMGwwIC0xOC42NzE4NzV6IiBmaWxsPSIjZmZmZmZmIi8+PHBhdGggZmlsbC1ydWxlPSJldmVub2RkIiBkPSJtMjA4Ni45NjM2IDYwOC45NjQ1NGwyMDIuMjk5MDcgMGwwIDc3LjEwMjQybC0yMDIuMjk5MDcgMHoiIGZpbGw9IiMwMDk5ZmYiLz48cGF0aCBmaWxsLXJ1bGU9ImV2ZW5vZGQiIGQ9Im0yMDg2Ljk2MzYgNjA4Ljk2NDU0bDIwMi4yOTkwNyAwbDAgNzcuMTAyNDJsLTIwMi4yOTkwNyAweiIgc3Ryb2tlLWxpbmVjYXA9ImJ1dHQiIHN0cm9rZS1taXRlcmxpbWl0PSI4MDAuMCIgc3Ryb2tlLXdpZHRoPSIxLjAiIHN0cm9rZT0iIzAwYjBiYSIvPjxwYXRoIGZpbGwtcnVsZT0ibm9uemVybyIgZD0ibTIxNjEuMjU4OCA2NDEuODAzOWwwIDMuOTM3NWwtMy4zNzUgMGwwIDcuNTMxMjVxMCAyLjI4MTI1IDAuMDkzNzUgMi42NTYyNXEwLjEwOTM3NSAwLjM3NSAwLjQ1MzEyNSAwLjYyNXEwLjM0Mzc1IDAuMjUgMC44MjgxMjUgMC4yNXEwLjY4NzUgMCAxLjk4NDM3NSAtMC40ODQzNzVsMC40MjE4NzUgMy44NDM3NXEtMS43MTg3NSAwLjczNDM3NSAtMy45MDYyNSAwLjczNDM3NXEtMS4zMjgxMjUgMCAtMi40MDYyNSAtMC40Mzc1cS0xLjA2MjUgLTAuNDUzMTI1IC0xLjU2MjUgLTEuMTcxODc1cS0wLjUgLTAuNzE4NzUgLTAuNzAzMTI1IC0xLjkyMTg3NXEtMC4xNTYyNSAtMC44NTkzNzUgLTAuMTU2MjUgLTMuNDg0Mzc1bDAgLTguMTQwNjI1bC0yLjI2NTYyNSAwbDAgLTMuOTM3NWwyLjI2NTYyNSAwbDAgLTMuNzAzMTI1bDQuOTUzMTI1IC0yLjg5MDYyNWwwIDYuNTkzNzVsMy4zNzUgMHptMi4yODUxNTYyIDkuMDc4MTI1cTAgLTIuNDY4NzUgMS4yMTg3NSAtNC43NjU2MjVxMS4yMTg3NSAtMi4zMTI1IDMuNDM3NSAtMy41MTU2MjVxMi4yMTg3NSAtMS4yMTg3NSA0Ljk2ODc1IC0xLjIxODc1cTQuMjM0Mzc1IDAgNi45Mzc1IDIuNzVxMi43MDMxMjUgMi43NSAyLjcwMzEyNSA2Ljk1MzEyNXEwIDQuMjM0Mzc1IC0yLjczNDM3NSA3LjAzMTI1cS0yLjczNDM3NSAyLjc4MTI1IC02Ljg3NSAyLjc4MTI1cS0yLjU2MjUgMCAtNC44OTA2MjUgLTEuMTU2MjVxLTIuMzI4MTI1IC0xLjE3MTg3NSAtMy41NDY4NzUgLTMuNDA2MjVxLTEuMjE4NzUgLTIuMjM0Mzc1IC0xLjIxODc1IC01LjQ1MzEyNXptNS4wNjI1IDAuMjY1NjI1cTAgMi43NjU2MjUgMS4zMTI1IDQuMjVxMS4zMjgxMjUgMS40Njg3NSAzLjI2NTYyNSAxLjQ2ODc1cTEuOTM3NSAwIDMuMjM0Mzc1IC0xLjQ2ODc1cTEuMzEyNSAtMS40ODQzNzUgMS4zMTI1IC00LjI5Njg3NXEwIC0yLjczNDM3NSAtMS4zMTI1IC00LjIwMzEyNXEtMS4yOTY4NzUgLTEuNDg0Mzc1IC0zLjIzNDM3NSAtMS40ODQzNzVxLTEuOTM3NSAwIC0zLjI2NTYyNSAxLjQ4NDM3NXEtMS4zMTI1IDEuNDY4NzUgLTEuMzEyNSA0LjI1em0yNi42MzA4NiAtOS4zNDM3NWwwIDMuOTM3NWwtMy4zNzUgMGwwIDcuNTMxMjVxMCAyLjI4MTI1IDAuMDkzNzUgMi42NTYyNXEwLjEwOTM3NSAwLjM3NSAwLjQ1MzEyNSAwLjYyNXEwLjM0Mzc1IDAuMjUgMC44MjgxMjUgMC4yNXEwLjY4NzUgMCAxLjk4NDM3NSAtMC40ODQzNzVsMC40MjE4NzUgMy44NDM3NXEtMS43MTg3NSAwLjczNDM3NSAtMy45MDYyNSAwLjczNDM3NXEtMS4zMjgxMjUgMCAtMi40MDYyNSAtMC40Mzc1cS0xLjA2MjUgLTAuNDUzMTI1IC0xLjU2MjUgLTEuMTcxODc1cS0wLjUgLTAuNzE4NzUgLTAuNzAzMTI1IC0xLjkyMTg3NXEtMC4xNTYyNSAtMC44NTkzNzUgLTAuMTU2MjUgLTMuNDg0Mzc1bDAgLTguMTQwNjI1bC0yLjI2NTYyNSAwbDAgLTMuOTM3NWwyLjI2NTYyNSAwbDAgLTMuNzAzMTI1bDQuOTUzMTI1IC0yLjg5MDYyNWwwIDYuNTkzNzVsMy4zNzUgMHptNy4xMjg5MDYyIDUuNzAzMTI1bC00LjQ4NDM3NSAtMC44MTI1cTAuNzUgLTIuNzAzMTI1IDIuNTkzNzUgLTQuMHExLjg0Mzc1IC0xLjMxMjUgNS40ODQzNzUgLTEuMzEyNXEzLjMxMjUgMCA0LjkyMTg3NSAwLjc4MTI1cTEuNjI1IDAuNzgxMjUgMi4yODEyNSAxLjk4NDM3NXEwLjY1NjI1IDEuMjAzMTI1IDAuNjU2MjUgNC40MjE4NzVsLTAuMDQ2ODc1IDUuNzY1NjI1cTAgMi40Njg3NSAwLjIzNDM3NSAzLjY0MDYyNXEwLjIzNDM3NSAxLjE1NjI1IDAuODkwNjI1IDIuNWwtNC44OTA2MjUgMHEtMC4xODc1IC0wLjUgLTAuNDY4NzUgLTEuNDUzMTI1cS0wLjEyNSAtMC40NTMxMjUgLTAuMTg3NSAtMC41OTM3NXEtMS4yNjU2MjUgMS4yMzQzNzUgLTIuNzAzMTI1IDEuODU5Mzc1cS0xLjQzNzUgMC42MDkzNzUgLTMuMDc4MTI1IDAuNjA5Mzc1cS0yLjg3NSAwIC00LjU0Njg3NSAtMS41NjI1cS0xLjY1NjI1IC0xLjU2MjUgLTEuNjU2MjUgLTMuOTUzMTI1cTAgLTEuNTkzNzUgMC43NSAtMi44MjgxMjVxMC43NjU2MjUgLTEuMjM0Mzc1IDIuMTI1IC0xLjg5MDYyNXExLjM1OTM3NSAtMC42NzE4NzUgMy45Mzc1IC0xLjE1NjI1cTMuNDUzMTI1IC0wLjY1NjI1IDQuNzk2ODc1IC0xLjIxODc1bDAgLTAuNDg0Mzc1cTAgLTEuNDIxODc1IC0wLjcwMzEyNSAtMi4wMzEyNXEtMC43MDMxMjUgLTAuNjA5Mzc1IC0yLjY1NjI1IC0wLjYwOTM3NXEtMS4zMjgxMjUgMCAtMi4wNjI1IDAuNTE1NjI1cS0wLjczNDM3NSAwLjUxNTYyNSAtMS4xODc1IDEuODI4MTI1em02LjYwOTM3NSA0LjBxLTAuOTUzMTI1IDAuMzEyNSAtMy4wMTU2MjUgMC43NjU2MjVxLTIuMDQ2ODc1IDAuNDM3NSAtMi42ODc1IDAuODU5Mzc1cS0wLjk2ODc1IDAuNjg3NSAtMC45Njg3NSAxLjczNDM3NXEwIDEuMDMxMjUgMC43NjU2MjUgMS43OTY4NzVxMC43ODEyNSAwLjc1IDEuOTg0Mzc1IDAuNzVxMS4zMjgxMjUgMCAyLjU0Njg3NSAtMC44NzVxMC44OTA2MjUgLTAuNjcxODc1IDEuMTcxODc1IC0xLjY0MDYyNXEwLjIwMzEyNSAtMC42MjUgMC4yMDMxMjUgLTIuNDA2MjVsMCAtMC45ODQzNzV6bTkuNzA4OTg0IDguOTY4NzVsMCAtMjUuNzY1NjI1bDQuOTUzMTI1IDBsMCAyNS43NjU2MjVsLTQuOTUzMTI1IDB6IiBmaWxsPSIjZmZmZmZmIi8+PHBhdGggZmlsbC1ydWxlPSJldmVub2RkIiBkPSJtMTE5Ny4xMjQ2IDEwNTQuNDAxNmwwIDBjLTkuNzY1MDE1IDAgLTE3LjY4MTAzIDMxLjY2NDMwNyAtMTcuNjgxMDMgNzAuNzI0MzY1YzAgMzkuMDYwMDYgNy45MTYwMTU2IDcwLjcyNDM2NSAxNy42ODEwMyA3MC43MjQzNjVsLTEwMjcuNDcyNCAwYy05Ljc2NDk5OSAwIC0xNy42ODExMDcgLTMxLjY2NDMwNyAtMTcuNjgxMTA3IC03MC43MjQzNjVjMCAtMzkuMDYwMDYgNy45MTYxMDcgLTcwLjcyNDM2NSAxNy42ODExMDcgLTcwLjcyNDM2NXoiIGZpbGw9IiNlNmY1ZmIiLz48cGF0aCBmaWxsLXJ1bGU9ImV2ZW5vZGQiIGQ9Im0xMTk3LjEyNDYgMTA1NC40MDE2bDAgMGM5Ljc2NTAxNSAwIDE3LjY4MTE1MiAzMS42NjQzMDcgMTcuNjgxMTUyIDcwLjcyNDM2NWMwIDM5LjA2MDA2IC03LjkxNjEzNzcgNzAuNzI0MzY1IC0xNy42ODExNTIgNzAuNzI0MzY1bDAgMGMtOS43NjUwMTUgMCAtMTcuNjgxMDMgLTMxLjY2NDMwNyAtMTcuNjgxMDMgLTcwLjcyNDM2NWMwIC0zOS4wNjAwNiA3LjkxNjAxNTYgLTcwLjcyNDM2NSAxNy42ODEwMyAtNzAuNzI0MzY1eiIgZmlsbD0iI2YwZjlmYyIvPjxwYXRoIGZpbGwtcnVsZT0iZXZlbm9kZCIgZD0ibTExOTcuMTI0NiAxMTk1Ljg1MDNsMCAwYy05Ljc2NTAxNSAwIC0xNy42ODEwMyAtMzEuNjY0MzA3IC0xNy42ODEwMyAtNzAuNzI0MzY1YzAgLTM5LjA2MDA2IDcuOTE2MDE1NiAtNzAuNzI0MzY1IDE3LjY4MTAzIC03MC43MjQzNjVsMCAwYzkuNzY1MDE1IDAgMTcuNjgxMTUyIDMxLjY2NDMwNyAxNy42ODExNTIgNzAuNzI0MzY1YzAgMzkuMDYwMDYgLTcuOTE2MTM3NyA3MC43MjQzNjUgLTE3LjY4MTE1MiA3MC43MjQzNjVsLTEwMjcuNDcyNCAwYy05Ljc2NDk5OSAwIC0xNy42ODExMDcgLTMxLjY2NDMwNyAtMTcuNjgxMTA3IC03MC43MjQzNjVjMCAtMzkuMDYwMDYgNy45MTYxMDcgLTcwLjcyNDM2NSAxNy42ODExMDcgLTcwLjcyNDM2NWwxMDI3LjQ3MjQgMCIgZmlsbC1vcGFjaXR5PSIwLjAiIGZpbGw9IiMwMDAwMDAiLz48cGF0aCBmaWxsLXJ1bGU9ImV2ZW5vZGQiIGQ9Im0xMTk3LjEyNDYgMTE5NS44NTAzbDAgMGMtOS43NjUwMTUgMCAtMTcuNjgxMDMgLTMxLjY2NDMwNyAtMTcuNjgxMDMgLTcwLjcyNDM2NWMwIC0zOS4wNjAwNiA3LjkxNjAxNTYgLTcwLjcyNDM2NSAxNy42ODEwMyAtNzAuNzI0MzY1bDAgMGM5Ljc2NTAxNSAwIDE3LjY4MTE1MiAzMS42NjQzMDcgMTcuNjgxMTUyIDcwLjcyNDM2NWMwIDM5LjA2MDA2IC03LjkxNjEzNzcgNzAuNzI0MzY1IC0xNy42ODExNTIgNzAuNzI0MzY1bC0xMDI3LjQ3MjQgMGMtOS43NjQ5OTkgMCAtMTcuNjgxMTA3IC0zMS42NjQzMDcgLTE3LjY4MTEwNyAtNzAuNzI0MzY1YzAgLTM5LjA2MDA2IDcuOTE2MTA3IC03MC43MjQzNjUgMTcuNjgxMTA3IC03MC43MjQzNjVsMTAyNy40NzI0IDAiIHN0cm9rZS1saW5lY2FwPSJidXR0IiBzdHJva2UtbWl0ZXJsaW1pdD0iODAwLjAiIHN0cm9rZS13aWR0aD0iMS4zMzMzMzMzMzMzMzMzMzMzIiBzdHJva2U9IiMxNTgxNTgiLz48cGF0aCBmaWxsLXJ1bGU9ImV2ZW5vZGQiIGQ9Im0yNDM1LjI5MTcgMTA1Ny44ODM1bDAgMGMtOS43NjQ4OTMgMCAtMTcuNjgwOTA4IDMxLjY2NDMwNyAtMTcuNjgwOTA4IDcwLjcyNDM2NWMwIDM5LjA2MDA2IDcuOTE2MDE1NiA3MC43MjQzNjUgMTcuNjgwOTA4IDcwLjcyNDM2NWwtMTAyOS4xMTAxIDBjLTkuNzY1MDE1IDAgLTE3LjY4MTE1MiAtMzEuNjY0MzA3IC0xNy42ODExNTIgLTcwLjcyNDM2NWMwIC0zOS4wNjAwNiA3LjkxNjEzNzcgLTcwLjcyNDM2NSAxNy42ODExNTIgLTcwLjcyNDM2NXoiIGZpbGw9IiNlNmY1ZmIiLz48cGF0aCBmaWxsLXJ1bGU9ImV2ZW5vZGQiIGQ9Im0yNDM1LjI5MTcgMTA1Ny44ODM1bDAgMGM5Ljc2NTEzNyAwIDE3LjY4MTE1MiAzMS42NjQzMDcgMTcuNjgxMTUyIDcwLjcyNDM2NWMwIDM5LjA2MDA2IC03LjkxNjAxNTYgNzAuNzI0MzY1IC0xNy42ODExNTIgNzAuNzI0MzY1bDAgMGMtOS43NjQ4OTMgMCAtMTcuNjgwOTA4IC0zMS42NjQzMDcgLTE3LjY4MDkwOCAtNzAuNzI0MzY1YzAgLTM5LjA2MDA2IDcuOTE2MDE1NiAtNzAuNzI0MzY1IDE3LjY4MDkwOCAtNzAuNzI0MzY1eiIgZmlsbD0iI2YwZjlmYyIvPjxwYXRoIGZpbGwtcnVsZT0iZXZlbm9kZCIgZD0ibTI0MzUuMjkxNyAxMTk5LjMzMjNsMCAwYy05Ljc2NDg5MyAwIC0xNy42ODA5MDggLTMxLjY2NDMwNyAtMTcuNjgwOTA4IC03MC43MjQzNjVjMCAtMzkuMDYwMDYgNy45MTYwMTU2IC03MC43MjQzNjUgMTcuNjgwOTA4IC03MC43MjQzNjVsMCAwYzkuNzY1MTM3IDAgMTcuNjgxMTUyIDMxLjY2NDMwNyAxNy42ODExNTIgNzAuNzI0MzY1YzAgMzkuMDYwMDYgLTcuOTE2MDE1NiA3MC43MjQzNjUgLTE3LjY4MTE1MiA3MC43MjQzNjVsLTEwMjkuMTEwMSAwYy05Ljc2NTAxNSAwIC0xNy42ODExNTIgLTMxLjY2NDMwNyAtMTcuNjgxMTUyIC03MC43MjQzNjVjMCAtMzkuMDYwMDYgNy45MTYxMzc3IC03MC43MjQzNjUgMTcuNjgxMTUyIC03MC43MjQzNjVsMTAyOS4xMTAxIDAiIGZpbGwtb3BhY2l0eT0iMC4wIiBmaWxsPSIjMDAwMDAwIi8+PHBhdGggZmlsbC1ydWxlPSJldmVub2RkIiBkPSJtMjQzNS4yOTE3IDExOTkuMzMyM2wwIDBjLTkuNzY0ODkzIDAgLTE3LjY4MDkwOCAtMzEuNjY0MzA3IC0xNy42ODA5MDggLTcwLjcyNDM2NWMwIC0zOS4wNjAwNiA3LjkxNjAxNTYgLTcwLjcyNDM2NSAxNy42ODA5MDggLTcwLjcyNDM2NWwwIDBjOS43NjUxMzcgMCAxNy42ODExNTIgMzEuNjY0MzA3IDE3LjY4MTE1MiA3MC43MjQzNjVjMCAzOS4wNjAwNiAtNy45MTYwMTU2IDcwLjcyNDM2NSAtMTcuNjgxMTUyIDcwLjcyNDM2NWwtMTAyOS4xMTAxIDBjLTkuNzY1MDE1IDAgLTE3LjY4MTE1MiAtMzEuNjY0MzA3IC0xNy42ODExNTIgLTcwLjcyNDM2NWMwIC0zOS4wNjAwNiA3LjkxNjEzNzcgLTcwLjcyNDM2NSAxNy42ODExNTIgLTcwLjcyNDM2NWwxMDI5LjExMDEgMCIgc3Ryb2tlLWxpbmVjYXA9ImJ1dHQiIHN0cm9rZS1taXRlcmxpbWl0PSI4MDAuMCIgc3Ryb2tlLXdpZHRoPSIxLjMzMzMzMzMzMzMzMzMzMzMiIHN0cm9rZT0iIzE1ODE1OCIvPjxwYXRoIGZpbGwtcnVsZT0iZXZlbm9kZCIgZD0ibTE4MzAuNjE2OCAzNjcuMzQzODRsNTEyLjY2MTUgMGwwIDE4OS42MDYzbC01MTIuNjYxNSAweiIgZmlsbD0iIzE0NDQ5YSIvPjxwYXRoIGZpbGwtcnVsZT0ibm9uemVybyIgZD0ibTE4NjguOTkxOCA0MjMuMzc2MzRxLTIuNTYyNSAwIC00Ljc1IC0wLjg0Mzc1cS0yLjE4NzUgLTAuODQzNzUgLTMuODEyNSAtMi4zOTA2MjVxLTEuNjA5Mzc1IC0xLjU2MjUgLTIuNTE1NjI1IC0zLjY3MTg3NXEtMC44OTA2MjUgLTIuMTA5Mzc1IC0wLjg5MDYyNSAtNC42MDkzNzVxMCAtMi41IDAuODkwNjI1IC00LjYwOTM3NXEwLjkwNjI1IC0yLjEwOTM3NSAyLjUzMTI1IC0zLjY1NjI1cTEuNjQwNjI1IC0xLjU2MjUgMy44MTI1IC0yLjQwNjI1cTIuMTcxODc1IC0wLjg0Mzc1IDQuNzY1NjI1IC0wLjg0Mzc1cTIuNzUgMCA1LjAxNTYyNSAwLjk1MzEyNXEyLjI4MTI1IDAuOTM3NSAzLjg0Mzc1IDIuNzk2ODc1bC0yLjY4NzUgMi41MTU2MjVxLTEuMjAzMTI1IC0xLjMxMjUgLTIuNzE4NzUgLTEuOTY4NzVxLTEuNSAtMC42NTYyNSAtMy4yNjU2MjUgLTAuNjU2MjVxLTEuNzUgMCAtMy4yMTg3NSAwLjU3ODEyNXEtMS40NTMxMjUgMC41NzgxMjUgLTIuNTMxMjUgMS42NDA2MjVxLTEuMDYyNSAxLjA0Njg3NSAtMS42NTYyNSAyLjVxLTAuNTkzNzUgMS40Mzc1IC0wLjU5Mzc1IDMuMTU2MjVxMCAxLjczNDM3NSAwLjU5Mzc1IDMuMTcxODc1cTAuNTkzNzUgMS40Mzc1IDEuNjU2MjUgMi41cTEuMDc4MTI1IDEuMDQ2ODc1IDIuNTMxMjUgMS42MjVxMS40Njg3NSAwLjU3ODEyNSAzLjIxODc1IDAuNTc4MTI1cTEuNzY1NjI1IDAgMy4yNjU2MjUgLTAuNjU2MjVxMS41MTU2MjUgLTAuNjU2MjUgMi43MTg3NSAtMi4wbDIuNjg3NSAyLjU2MjVxLTEuNTYyNSAxLjgyODEyNSAtMy44NDM3NSAyLjc4MTI1cS0yLjI2NTYyNSAwLjk1MzEyNSAtNS4wNDY4NzUgMC45NTMxMjV6bTEyLjkwNDY2MyAtMC4zMTI1bDAgLTIyLjQwNjI1bDkuMjAzMTI1IDBxMi45ODQzNzUgMCA1LjEwOTM3NSAwLjk2ODc1cTIuMTI1IDAuOTUzMTI1IDMuMjgxMjUgMi43NXExLjE1NjI1IDEuNzk2ODc1IDEuMTU2MjUgNC4yNXEwIDIuNDY4NzUgLTEuMTU2MjUgNC4yNXEtMS4xNTYyNSAxLjc2NTYyNSAtMy4yODEyNSAyLjcxODc1cS0yLjEyNSAwLjkzNzUgLTUuMTA5Mzc1IDAuOTM3NWwtNi45MDYyNSAwbDEuODU5Mzc1IC0xLjg5MDYyNWwwIDguNDIxODc1bC00LjE1NjI1IDB6bTE0LjY0MDYyNSAwbC01LjY1NjI1IC04LjEyNWw0LjQ1MzEyNSAwbDUuNjg3NSA4LjEyNWwtNC40ODQzNzUgMHptLTEwLjQ4NDM3NSAtNy45Njg3NWwtMS44NTkzNzUgLTEuOTg0Mzc1bDYuNzE4NzUgMHEyLjc1IDAgNC4xNDA2MjUgLTEuMTcxODc1cTEuMzkwNjI1IC0xLjE4NzUgMS4zOTA2MjUgLTMuMzEyNXEwIC0yLjE0MDYyNSAtMS4zOTA2MjUgLTMuMjgxMjVxLTEuMzkwNjI1IC0xLjE1NjI1IC00LjE0MDYyNSAtMS4xNTYyNWwtNi43MTg3NSAwbDEuODU5Mzc1IC0yLjA0Njg3NWwwIDEyLjk1MzEyNXptMjMuMDYzOTY1IC01LjEyNWwxMS4xNDA2MjUgMGwwIDMuNDM3NWwtMTEuMTQwNjI1IDBsMCAtMy40Mzc1em0wLjMyODEyNSA5LjYwOTM3NWwxMi42NDA2MjUgMGwwIDMuNDg0Mzc1bC0xNi43OTY4NzUgMGwwIC0yMi40MDYyNWwxNi4zNDM3NSAwbDAgMy41bC0xMi4xODc1IDBsMCAxNS40MjE4NzV6bTE0LjExMTkzOCAzLjQ4NDM3NWwxMC4wNzgxMjUgLTIyLjQwNjI1bDQuMDkzNzUgMGwxMC4xMDkzNzUgMjIuNDA2MjVsLTQuMzQzNzUgMGwtOC42NzE4NzUgLTIwLjE4NzVsMS42NTYyNSAwbC04LjY0MDYyNSAyMC4xODc1bC00LjI4MTI1IDB6bTQuNjQwNjI1IC01LjE4NzVsMS4xMDkzNzUgLTMuMjY1NjI1bDEyLjEwOTM3NSAwbDEuMTA5Mzc1IDMuMjY1NjI1bC0xNC4zMjgxMjUgMHptMjUuOTEwNTIyIDUuMTg3NWwwIC0xOC44NzVsLTcuNDIxODc1IDBsMCAtMy41MzEyNWwxOS4wMTU2MjUgMGwwIDMuNTMxMjVsLTcuNDIxODc1IDBsMCAxOC44NzVsLTQuMTcxODc1IDB6bTE4LjU2MDkxMyAtMTMuMDkzNzVsMTEuMTQwNjI1IDBsMCAzLjQzNzVsLTExLjE0MDYyNSAwbDAgLTMuNDM3NXptMC4zMjgxMjUgOS42MDkzNzVsMTIuNjQwNjI1IDBsMCAzLjQ4NDM3NWwtMTYuNzk2ODc1IDBsMCAtMjIuNDA2MjVsMTYuMzQzNzUgMGwwIDMuNWwtMTIuMTg3NSAwbDAgMTUuNDIxODc1em0zMC42NDcwOTUgMy40ODQzNzVsMCAtMTguODc1bC03LjQyMTg3NSAwbDAgLTMuNTMxMjVsMTkuMDE1NjI1IDBsMCAzLjUzMTI1bC03LjQyMTg3NSAwbDAgMTguODc1bC00LjE3MTg3NSAwem0xMC40NDA5MTggMGwxMC4wNzgxMjUgLTIyLjQwNjI1bDQuMDkzNzUgMGwxMC4xMDkzNzUgMjIuNDA2MjVsLTQuMzQzNzUgMGwtOC42NzE4NzUgLTIwLjE4NzVsMS42NTYyNSAwbC04LjY0MDYyNSAyMC4xODc1bC00LjI4MTI1IDB6bTQuNjQwNjI1IC01LjE4NzVsMS4xMDkzNzUgLTMuMjY1NjI1bDEyLjEwOTM3NSAwbDEuMTA5Mzc1IDMuMjY1NjI1bC0xNC4zMjgxMjUgMHptMjIuNDk5MjY4IDUuMTg3NWwwIC0yMi40MDYyNWwxMC40ODQzNzUgMHE0LjAzMTI1IDAgNi4xNDA2MjUgMS41OTM3NXEyLjEyNSAxLjU3ODEyNSAyLjEyNSA0LjIzNDM3NXEwIDEuNzk2ODc1IC0wLjg0Mzc1IDMuMDYyNXEtMC44MjgxMjUgMS4yNjU2MjUgLTIuMjE4NzUgMS45NTMxMjVxLTEuMzkwNjI1IDAuNjg3NSAtMy4wMTU2MjUgMC42ODc1bDAuNTYyNSAtMS4xNTYyNXExLjg5MDYyNSAwIDMuMzkwNjI1IDAuNjg3NXExLjUxNTYyNSAwLjY4NzUgMi4zOTA2MjUgMi4wcTAuODc1IDEuMzEyNSAwLjg3NSAzLjI2NTYyNXEwIDIuODc1IC0yLjIwMzEyNSA0LjQ4NDM3NXEtMi4yMDMxMjUgMS41OTM3NSAtNi41NjI1IDEuNTkzNzVsLTExLjEyNSAwem00LjE1NjI1IC0zLjI2NTYyNWw2LjcxODc1IDBxMi4zMjgxMjUgMCAzLjU3ODEyNSAtMC43NjU2MjVxMS4yNSAtMC43NjU2MjUgMS4yNSAtMi40Njg3NXEwIC0xLjY1NjI1IC0xLjI1IC0yLjQzNzVxLTEuMjUgLTAuNzk2ODc1IC0zLjU3ODEyNSAtMC43OTY4NzVsLTcuMDQ2ODc1IDBsMCAtMy4yMTg3NWw2LjIxODc1IDBxMi4xNzE4NzUgMCAzLjMyODEyNSAtMC43NjU2MjVxMS4xNzE4NzUgLTAuNzgxMjUgMS4xNzE4NzUgLTIuMzEyNXEwIC0xLjU2MjUgLTEuMTcxODc1IC0yLjMyODEyNXEtMS4xNTYyNSAtMC43ODEyNSAtMy4zMjgxMjUgLTAuNzgxMjVsLTUuODkwNjI1IDBsMCAxNS44NzV6bTIwLjE5NTggMy4yNjU2MjVsMCAtMjIuNDA2MjVsNC4xNTYyNSAwbDAgMTguODkwNjI1bDExLjcwMzEyNSAwbDAgMy41MTU2MjVsLTE1Ljg1OTM3NSAwem0yMi45OTYwOTQgLTEzLjA5Mzc1bDExLjE0MDYyNSAwbDAgMy40Mzc1bC0xMS4xNDA2MjUgMGwwIC0zLjQzNzV6bTAuMzI4MTI1IDkuNjA5Mzc1bDEyLjY0MDYyNSAwbDAgMy40ODQzNzVsLTE2Ljc5Njg3NSAwbDAgLTIyLjQwNjI1bDE2LjM0Mzc1IDBsMCAzLjVsLTEyLjE4NzUgMGwwIDE1LjQyMTg3NXptMjYuMTE1OTY3IDMuNDg0Mzc1bDAgLTIyLjQwNjI1bDEwLjQ4NDM3NSAwcTQuMDMxMjUgMCA2LjE0MDYyNSAxLjU5Mzc1cTIuMTI1IDEuNTc4MTI1IDIuMTI1IDQuMjM0Mzc1cTAgMS43OTY4NzUgLTAuODQzNzUgMy4wNjI1cS0wLjgyODEyNSAxLjI2NTYyNSAtMi4yMTg3NSAxLjk1MzEyNXEtMS4zOTA2MjUgMC42ODc1IC0zLjAxNTYyNSAwLjY4NzVsMC41NjI1IC0xLjE1NjI1cTEuODkwNjI1IDAgMy4zOTA2MjUgMC42ODc1cTEuNTE1NjI1IDAuNjg3NSAyLjM5MDYyNSAyLjBxMC44NzUgMS4zMTI1IDAuODc1IDMuMjY1NjI1cTAgMi44NzUgLTIuMjAzMTI1IDQuNDg0Mzc1cS0yLjIwMzEyNSAxLjU5Mzc1IC02LjU2MjUgMS41OTM3NWwtMTEuMTI1IDB6bTQuMTU2MjUgLTMuMjY1NjI1bDYuNzE4NzUgMHEyLjMyODEyNSAwIDMuNTc4MTI1IC0wLjc2NTYyNXExLjI1IC0wLjc2NTYyNSAxLjI1IC0yLjQ2ODc1cTAgLTEuNjU2MjUgLTEuMjUgLTIuNDM3NXEtMS4yNSAtMC43OTY4NzUgLTMuNTc4MTI1IC0wLjc5Njg3NWwtNy4wNDY4NzUgMGwwIC0zLjIxODc1bDYuMjE4NzUgMHEyLjE3MTg3NSAwIDMuMzI4MTI1IC0wLjc2NTYyNXExLjE3MTg3NSAtMC43ODEyNSAxLjE3MTg3NSAtMi4zMTI1cTAgLTEuNTYyNSAtMS4xNzE4NzUgLTIuMzI4MTI1cS0xLjE1NjI1IC0wLjc4MTI1IC0zLjMyODEyNSAtMC43ODEyNWwtNS44OTA2MjUgMGwwIDE1Ljg3NXptMjcuODM2NDI2IDMuNDg0Mzc1cS0yLjg0Mzc1IDAgLTQuOTg0Mzc1IC0xLjEyNXEtMi4xMjUgLTEuMTQwNjI1IC0zLjI5Njg3NSAtMy4xMjVxLTEuMTU2MjUgLTEuOTg0Mzc1IC0xLjE1NjI1IC00LjUxNTYyNXEwIC0yLjU2MjUgMS4xMjUgLTQuNTMxMjVxMS4xNDA2MjUgLTEuOTY4NzUgMy4xNDA2MjUgLTMuMDc4MTI1cTIuMCAtMS4xMjUgNC41NjI1IC0xLjEyNXEyLjUgMCA0LjQ1MzEyNSAxLjA5Mzc1cTEuOTUzMTI1IDEuMDc4MTI1IDMuMDYyNSAzLjA2MjVxMS4xMjUgMS45ODQzNzUgMS4xMjUgNC42NzE4NzVxMCAwLjI2NTYyNSAtMC4wMTU2MjUgMC41OTM3NXEtMC4wMTU2MjUgMC4zMTI1IC0wLjA0Njg3NSAwLjU5Mzc1bC0xNC4yMzQzNzUgMGwwIC0yLjY1NjI1bDEyLjEyNSAwbC0xLjU3ODEyNSAwLjgyODEyNXEwLjAzMTI1IC0xLjQ2ODc1IC0wLjYwOTM3NSAtMi41NzgxMjVxLTAuNjI1IC0xLjEyNSAtMS43MzQzNzUgLTEuNzY1NjI1cS0xLjEwOTM3NSAtMC42NDA2MjUgLTIuNTQ2ODc1IC0wLjY0MDYyNXEtMS40Njg3NSAwIC0yLjU3ODEyNSAwLjY0MDYyNXEtMS4wOTM3NSAwLjY0MDYyNSAtMS43MTg3NSAxLjc4MTI1cS0wLjYyNSAxLjEyNSAtMC42MjUgMi42NzE4NzVsMCAwLjYyNXEwIDEuNTQ2ODc1IDAuNzAzMTI1IDIuNzM0Mzc1cTAuNzAzMTI1IDEuMTcxODc1IDEuOTg0Mzc1IDEuODEyNXExLjI4MTI1IDAuNjQwNjI1IDIuOTM3NSAwLjY0MDYyNXExLjQzNzUgMCAyLjU5Mzc1IC0wLjQzNzVxMS4xNTYyNSAtMC40NTMxMjUgMi4wNDY4NzUgLTEuNDIxODc1bDIuMTQwNjI1IDIuNDY4NzVxLTEuMTQwNjI1IDEuMzQzNzUgLTIuODkwNjI1IDIuMDYyNXEtMS43NSAwLjcxODc1IC0zLjk4NDM3NSAwLjcxODc1em0xNy4xNTQwNTMgMHEtMi4xNDA2MjUgMCAtNC4xMDkzNzUgLTAuNTQ2ODc1cS0xLjk2ODc1IC0wLjU2MjUgLTMuMTI1IC0xLjM3NWwxLjUzMTI1IC0zLjAzMTI1cTEuMTU2MjUgMC43MzQzNzUgMi43NSAxLjIxODc1cTEuNjA5Mzc1IDAuNDY4NzUgMy4yMDMxMjUgMC40Njg3NXExLjg5MDYyNSAwIDIuNzM0Mzc1IC0wLjVxMC44NTkzNzUgLTAuNTE1NjI1IDAuODU5Mzc1IC0xLjM3NXEwIC0wLjcwMzEyNSAtMC41NzgxMjUgLTEuMDc4MTI1cS0wLjU3ODEyNSAtMC4zNzUgLTEuNTE1NjI1IC0wLjU2MjVxLTAuOTIxODc1IC0wLjE4NzUgLTIuMDYyNSAtMC4zNDM3NXEtMS4xMjUgLTAuMTcxODc1IC0yLjI2NTYyNSAtMC40Mzc1cS0xLjE0MDYyNSAtMC4yNjU2MjUgLTIuMDYyNSAtMC43OTY4NzVxLTAuOTIxODc1IC0wLjUzMTI1IC0xLjUgLTEuNDIxODc1cS0wLjU3ODEyNSAtMC45MDYyNSAtMC41NzgxMjUgLTIuMzc1cTAgLTEuNjI1IDAuOTIxODc1IC0yLjgyODEyNXEwLjkzNzUgLTEuMjAzMTI1IDIuNjA5Mzc1IC0xLjg1OTM3NXExLjY4NzUgLTAuNjU2MjUgMy45ODQzNzUgLTAuNjU2MjVxMS43MzQzNzUgMCAzLjQ4NDM3NSAwLjM5MDYyNXExLjc2NTYyNSAwLjM3NSAyLjkyMTg3NSAxLjA3ODEyNWwtMS41NDY4NzUgMy4wNDY4NzVxLTEuMjAzMTI1IC0wLjczNDM3NSAtMi40Mzc1IC0xLjBxLTEuMjM0Mzc1IC0wLjI4MTI1IC0yLjQ1MzEyNSAtMC4yODEyNXEtMS44MjgxMjUgMCAtMi43MDMxMjUgMC41NDY4NzVxLTAuODc1IDAuNTQ2ODc1IC0wLjg3NSAxLjM3NXEwIDAuNzY1NjI1IDAuNTYyNSAxLjE1NjI1cTAuNTc4MTI1IDAuMzc1IDEuNSAwLjYwOTM3NXEwLjkzNzUgMC4yMTg3NSAyLjA3ODEyNSAwLjM1OTM3NXExLjE0MDYyNSAwLjE0MDYyNSAyLjI1IDAuNDM3NXExLjEyNSAwLjI4MTI1IDIuMDYyNSAwLjc4MTI1cTAuOTUzMTI1IDAuNSAxLjUxNTYyNSAxLjM5MDYyNXEwLjU3ODEyNSAwLjg5MDYyNSAwLjU3ODEyNSAyLjMyODEyNXEwIDEuNjA5Mzc1IC0wLjkzNzUgMi43OTY4NzVxLTAuOTM3NSAxLjE3MTg3NSAtMi42NzE4NzUgMS44MjgxMjVxLTEuNzM0Mzc1IDAuNjU2MjUgLTQuMTI1IDAuNjU2MjV6bTE3LjYzNjIzIDBxLTIuODI4MTI1IDAgLTQuMzU5Mzc1IC0xLjQ1MzEyNXEtMS41MzEyNSAtMS40NTMxMjUgLTEuNTMxMjUgLTQuMjk2ODc1bDAgLTE1LjMyODEyNWw0LjAgMGwwIDE1LjIzNDM3NXEwIDEuMjAzMTI1IDAuNjI1IDEuODc1cTAuNjI1IDAuNjcxODc1IDEuNzM0Mzc1IDAuNjcxODc1cTEuMzQzNzUgMCAyLjI1IC0wLjcwMzEyNWwxLjEwOTM3NSAyLjg1OTM3NXEtMC43MDMxMjUgMC41NjI1IC0xLjczNDM3NSAwLjg1OTM3NXEtMS4wMTU2MjUgMC4yODEyNSAtMi4wOTM3NSAwLjI4MTI1em0tOC43MDMxMjUgLTEzLjk4NDM3NWwwIC0zLjE4NzVsMTEuMzkwNjI1IDBsMCAzLjE4NzVsLTExLjM5MDYyNSAwem0yMS4xMTQ5OSAxMy45ODQzNzVxLTIuMTQwNjI1IDAgLTQuMTA5Mzc1IC0wLjU0Njg3NXEtMS45Njg3NSAtMC41NjI1IC0zLjEyNSAtMS4zNzVsMS41MzEyNSAtMy4wMzEyNXExLjE1NjI1IDAuNzM0Mzc1IDIuNzUgMS4yMTg3NXExLjYwOTM3NSAwLjQ2ODc1IDMuMjAzMTI1IDAuNDY4NzVxMS44OTA2MjUgMCAyLjczNDM3NSAtMC41cTAuODU5Mzc1IC0wLjUxNTYyNSAwLjg1OTM3NSAtMS4zNzVxMCAtMC43MDMxMjUgLTAuNTc4MTI1IC0xLjA3ODEyNXEtMC41NzgxMjUgLTAuMzc1IC0xLjUxNTYyNSAtMC41NjI1cS0wLjkyMTg3NSAtMC4xODc1IC0yLjA2MjUgLTAuMzQzNzVxLTEuMTI1IC0wLjE3MTg3NSAtMi4yNjU2MjUgLTAuNDM3NXEtMS4xNDA2MjUgLTAuMjY1NjI1IC0yLjA2MjUgLTAuNzk2ODc1cS0wLjkyMTg3NSAtMC41MzEyNSAtMS41IC0xLjQyMTg3NXEtMC41NzgxMjUgLTAuOTA2MjUgLTAuNTc4MTI1IC0yLjM3NXEwIC0xLjYyNSAwLjkyMTg3NSAtMi44MjgxMjVxMC45Mzc1IC0xLjIwMzEyNSAyLjYwOTM3NSAtMS44NTkzNzVxMS42ODc1IC0wLjY1NjI1IDMuOTg0Mzc1IC0wLjY1NjI1cTEuNzM0Mzc1IDAgMy40ODQzNzUgMC4zOTA2MjVxMS43NjU2MjUgMC4zNzUgMi45MjE4NzUgMS4wNzgxMjVsLTEuNTQ2ODc1IDMuMDQ2ODc1cS0xLjIwMzEyNSAtMC43MzQzNzUgLTIuNDM3NSAtMS4wcS0xLjIzNDM3NSAtMC4yODEyNSAtMi40NTMxMjUgLTAuMjgxMjVxLTEuODI4MTI1IDAgLTIuNzAzMTI1IDAuNTQ2ODc1cS0wLjg3NSAwLjU0Njg3NSAtMC44NzUgMS4zNzVxMCAwLjc2NTYyNSAwLjU2MjUgMS4xNTYyNXEwLjU3ODEyNSAwLjM3NSAxLjUgMC42MDkzNzVxMC45Mzc1IDAuMjE4NzUgMi4wNzgxMjUgMC4zNTkzNzVxMS4xNDA2MjUgMC4xNDA2MjUgMi4yNSAwLjQzNzVxMS4xMjUgMC4yODEyNSAyLjA2MjUgMC43ODEyNXEwLjk1MzEyNSAwLjUgMS41MTU2MjUgMS4zOTA2MjVxMC41NzgxMjUgMC44OTA2MjUgMC41NzgxMjUgMi4zMjgxMjVxMCAxLjYwOTM3NSAtMC45Mzc1IDIuNzk2ODc1cS0wLjkzNzUgMS4xNzE4NzUgLTIuNjcxODc1IDEuODI4MTI1cS0xLjczNDM3NSAwLjY1NjI1IC00LjEyNSAwLjY1NjI1em0xOS4yMjk5OCAwcS0yLjg0Mzc1IDAgLTQuOTg0Mzc1IC0xLjEyNXEtMi4xMjUgLTEuMTQwNjI1IC0zLjI5Njg3NSAtMy4xMjVxLTEuMTU2MjUgLTEuOTg0Mzc1IC0xLjE1NjI1IC00LjUxNTYyNXEwIC0yLjU2MjUgMS4xMjUgLTQuNTMxMjVxMS4xNDA2MjUgLTEuOTY4NzUgMy4xNDA2MjUgLTMuMDc4MTI1cTIuMCAtMS4xMjUgNC41NjI1IC0xLjEyNXEyLjUgMCA0LjQ1MzEyNSAxLjA5Mzc1cTEuOTUzMTI1IDEuMDc4MTI1IDMuMDYyNSAzLjA2MjVxMS4xMjUgMS45ODQzNzUgMS4xMjUgNC42NzE4NzVxMCAwLjI2NTYyNSAtMC4wMTU2MjUgMC41OTM3NXEtMC4wMTU2MjUgMC4zMTI1IC0wLjA0Njg3NSAwLjU5Mzc1bC0xNC4yMzQzNzUgMGwwIC0yLjY1NjI1bDEyLjEyNSAwbC0xLjU3ODEyNSAwLjgyODEyNXEwLjAzMTI1IC0xLjQ2ODc1IC0wLjYwOTM3NSAtMi41NzgxMjVxLTAuNjI1IC0xLjEyNSAtMS43MzQzNzUgLTEuNzY1NjI1cS0xLjEwOTM3NSAtMC42NDA2MjUgLTIuNTQ2ODc1IC0wLjY0MDYyNXEtMS40Njg3NSAwIC0yLjU3ODEyNSAwLjY0MDYyNXEtMS4wOTM3NSAwLjY0MDYyNSAtMS43MTg3NSAxLjc4MTI1cS0wLjYyNSAxLjEyNSAtMC42MjUgMi42NzE4NzVsMCAwLjYyNXEwIDEuNTQ2ODc1IDAuNzAzMTI1IDIuNzM0Mzc1cTAuNzAzMTI1IDEuMTcxODc1IDEuOTg0Mzc1IDEuODEyNXExLjI4MTI1IDAuNjQwNjI1IDIuOTM3NSAwLjY0MDYyNXExLjQzNzUgMCAyLjU5Mzc1IC0wLjQzNzVxMS4xNTYyNSAtMC40NTMxMjUgMi4wNDY4NzUgLTEuNDIxODc1bDIuMTQwNjI1IDIuNDY4NzVxLTEuMTQwNjI1IDEuMzQzNzUgLTIuODkwNjI1IDIuMDYyNXEtMS43NSAwLjcxODc1IC0zLjk4NDM3NSAwLjcxODc1em0xMS44NzI4MDMgLTAuMjE4NzVsMCAtMjMuNzVsNC4wIDBsMCAyMy43NWwtNC4wIDB6bTkuMjQ4MDQ3IDBsMCAtMjMuNzVsNC4wIDBsMCAyMy43NWwtNC4wIDB6bTE3LjI3OTA1MyAwLjIxODc1cS0yLjg0Mzc1IDAgLTQuOTg0Mzc1IC0xLjEyNXEtMi4xMjUgLTEuMTQwNjI1IC0zLjI5Njg3NSAtMy4xMjVxLTEuMTU2MjUgLTEuOTg0Mzc1IC0xLjE1NjI1IC00LjUxNTYyNXEwIC0yLjU2MjUgMS4xMjUgLTQuNTMxMjVxMS4xNDA2MjUgLTEuOTY4NzUgMy4xNDA2MjUgLTMuMDc4MTI1cTIuMCAtMS4xMjUgNC41NjI1IC0xLjEyNXEyLjUgMCA0LjQ1MzEyNSAxLjA5Mzc1cTEuOTUzMTI1IDEuMDc4MTI1IDMuMDYyNSAzLjA2MjVxMS4xMjUgMS45ODQzNzUgMS4xMjUgNC42NzE4NzVxMCAwLjI2NTYyNSAtMC4wMTU2MjUgMC41OTM3NXEtMC4wMTU2MjUgMC4zMTI1IC0wLjA0Njg3NSAwLjU5Mzc1bC0xNC4yMzQzNzUgMGwwIC0yLjY1NjI1bDEyLjEyNSAwbC0xLjU3ODEyNSAwLjgyODEyNXEwLjAzMTI1IC0xLjQ2ODc1IC0wLjYwOTM3NSAtMi41NzgxMjVxLTAuNjI1IC0xLjEyNSAtMS43MzQzNzUgLTEuNzY1NjI1cS0xLjEwOTM3NSAtMC42NDA2MjUgLTIuNTQ2ODc1IC0wLjY0MDYyNXEtMS40Njg3NSAwIC0yLjU3ODEyNSAwLjY0MDYyNXEtMS4wOTM3NSAwLjY0MDYyNSAtMS43MTg3NSAxLjc4MTI1cS0wLjYyNSAxLjEyNSAtMC42MjUgMi42NzE4NzVsMCAwLjYyNXEwIDEuNTQ2ODc1IDAuNzAzMTI1IDIuNzM0Mzc1cTAuNzAzMTI1IDEuMTcxODc1IDEuOTg0Mzc1IDEuODEyNXExLjI4MTI1IDAuNjQwNjI1IDIuOTM3NSAwLjY0MDYyNXExLjQzNzUgMCAyLjU5Mzc1IC0wLjQzNzVxMS4xNTYyNSAtMC40NTMxMjUgMi4wNDY4NzUgLTEuNDIxODc1bDIuMTQwNjI1IDIuNDY4NzVxLTEuMTQwNjI1IDEuMzQzNzUgLTIuODkwNjI1IDIuMDYyNXEtMS43NSAwLjcxODc1IC0zLjk4NDM3NSAwLjcxODc1em0xMS44NzI4MDMgLTAuMjE4NzVsMCAtMTcuMDkzNzVsMy44MTI1IDBsMCA0LjcwMzEyNWwtMC40NTMxMjUgLTEuMzc1cTAuNzY1NjI1IC0xLjcxODc1IDIuNDA2MjUgLTIuNjA5Mzc1cTEuNjU2MjUgLTAuOTA2MjUgNC4xMjUgLTAuOTA2MjVsMCAzLjgxMjVxLTAuMjY1NjI1IC0wLjA2MjUgLTAuNDg0Mzc1IC0wLjA3ODEyNXEtMC4yMTg3NSAtMC4wMTU2MjUgLTAuNDUzMTI1IC0wLjAxNTYyNXEtMi4yNjU2MjUgMCAtMy42MDkzNzUgMS4zMjgxMjVxLTEuMzQzNzUgMS4zMjgxMjUgLTEuMzQzNzUgMy45NTMxMjVsMCA4LjI4MTI1bC00LjAgMHptMTguNzIxNDM2IDAuMjE4NzVxLTIuMTQwNjI1IDAgLTQuMTA5Mzc1IC0wLjU0Njg3NXEtMS45Njg3NSAtMC41NjI1IC0zLjEyNSAtMS4zNzVsMS41MzEyNSAtMy4wMzEyNXExLjE1NjI1IDAuNzM0Mzc1IDIuNzUgMS4yMTg3NXExLjYwOTM3NSAwLjQ2ODc1IDMuMjAzMTI1IDAuNDY4NzVxMS44OTA2MjUgMCAyLjczNDM3NSAtMC41cTAuODU5Mzc1IC0wLjUxNTYyNSAwLjg1OTM3NSAtMS4zNzVxMCAtMC43MDMxMjUgLTAuNTc4MTI1IC0xLjA3ODEyNXEtMC41NzgxMjUgLTAuMzc1IC0xLjUxNTYyNSAtMC41NjI1cS0wLjkyMTg3NSAtMC4xODc1IC0yLjA2MjUgLTAuMzQzNzVxLTEuMTI1IC0wLjE3MTg3NSAtMi4yNjU2MjUgLTAuNDM3NXEtMS4xNDA2MjUgLTAuMjY1NjI1IC0yLjA2MjUgLTAuNzk2ODc1cS0wLjkyMTg3NSAtMC41MzEyNSAtMS41IC0xLjQyMTg3NXEtMC41NzgxMjUgLTAuOTA2MjUgLTAuNTc4MTI1IC0yLjM3NXEwIC0xLjYyNSAwLjkyMTg3NSAtMi44MjgxMjVxMC45Mzc1IC0xLjIwMzEyNSAyLjYwOTM3NSAtMS44NTkzNzVxMS42ODc1IC0wLjY1NjI1IDMuOTg0Mzc1IC0wLjY1NjI1cTEuNzM0Mzc1IDAgMy40ODQzNzUgMC4zOTA2MjVxMS43NjU2MjUgMC4zNzUgMi45MjE4NzUgMS4wNzgxMjVsLTEuNTQ2ODc1IDMuMDQ2ODc1cS0xLjIwMzEyNSAtMC43MzQzNzUgLTIuNDM3NSAtMS4wcS0xLjIzNDM3NSAtMC4yODEyNSAtMi40NTMxMjUgLTAuMjgxMjVxLTEuODI4MTI1IDAgLTIuNzAzMTI1IDAuNTQ2ODc1cS0wLjg3NSAwLjU0Njg3NSAtMC44NzUgMS4zNzVxMCAwLjc2NTYyNSAwLjU2MjUgMS4xNTYyNXEwLjU3ODEyNSAwLjM3NSAxLjUgMC42MDkzNzVxMC45Mzc1IDAuMjE4NzUgMi4wNzgxMjUgMC4zNTkzNzVxMS4xNDA2MjUgMC4xNDA2MjUgMi4yNSAwLjQzNzVxMS4xMjUgMC4yODEyNSAyLjA2MjUgMC43ODEyNXEwLjk1MzEyNSAwLjUgMS41MTU2MjUgMS4zOTA2MjVxMC41NzgxMjUgMC44OTA2MjUgMC41NzgxMjUgMi4zMjgxMjVxMCAxLjYwOTM3NSAtMC45Mzc1IDIuNzk2ODc1cS0wLjkzNzUgMS4xNzE4NzUgLTIuNjcxODc1IDEuODI4MTI1cS0xLjczNDM3NSAwLjY1NjI1IC00LjEyNSAwLjY1NjI1eiIgZmlsbD0iI2ZmZmZmZiIvPjxwYXRoIGZpbGwtcnVsZT0ibm9uemVybyIgZD0ibTE4NzEuMDQyNiA0NzguMzMzNjJxLTEuODkwNjI1IC0yLjkwNjI1IC0yLjkwNjI1IC02LjczNDM3NXEtMS4wIC0zLjgyODEyNSAtMS4wIC04LjIzNDM3NXEwIC00LjQyMTg3NSAxLjAgLTguMjY1NjI1cTEuMDE1NjI1IC0zLjg1OTM3NSAyLjkwNjI1IC02LjcxODc1bDMuODEyNSAwcS0xLjk1MzEyNSAzLjUzMTI1IC0yLjg3NSA3LjIwMzEyNXEtMC45MDYyNSAzLjY1NjI1IC0wLjkwNjI1IDcuNzgxMjVxMCA0LjEyNSAwLjkwNjI1IDcuNzk2ODc1cTAuOTIxODc1IDMuNjU2MjUgMi44NzUgNy4xNzE4NzVsLTMuODEyNSAwem03LjEzNTI1NCAtNi4yMDMxMjVsMCAtMTcuMDkzNzVsNC4wIDBsMCAxNy4wOTM3NWwtNC4wIDB6bTIuMDE1NjI1IC0xOS45MDYyNXEtMS4xMDkzNzUgMCAtMS44MjgxMjUgLTAuNzAzMTI1cS0wLjcxODc1IC0wLjcwMzEyNSAtMC43MTg3NSAtMS42ODc1cTAgLTEuMDMxMjUgMC43MTg3NSAtMS43MTg3NXEwLjcxODc1IC0wLjY4NzUgMS44MjgxMjUgLTAuNjg3NXExLjEyNSAwIDEuODQzNzUgMC42NTYyNXEwLjcxODc1IDAuNjU2MjUgMC43MTg3NSAxLjY0MDYyNXEwIDEuMDYyNSAtMC43MDMxMjUgMS43ODEyNXEtMC43MDMxMjUgMC43MTg3NSAtMS44NTkzNzUgMC43MTg3NXptMTMuNjY5OTIyIDIwLjEyNXEtMi44MjgxMjUgMCAtNC4zNTkzNzUgLTEuNDUzMTI1cS0xLjUzMTI1IC0xLjQ1MzEyNSAtMS41MzEyNSAtNC4yOTY4NzVsMCAtMTUuMzI4MTI1bDQuMCAwbDAgMTUuMjM0Mzc1cTAgMS4yMDMxMjUgMC42MjUgMS44NzVxMC42MjUgMC42NzE4NzUgMS43MzQzNzUgMC42NzE4NzVxMS4zNDM3NSAwIDIuMjUgLTAuNzAzMTI1bDEuMTA5Mzc1IDIuODU5Mzc1cS0wLjcwMzEyNSAwLjU2MjUgLTEuNzM0Mzc1IDAuODU5Mzc1cS0xLjAxNTYyNSAwLjI4MTI1IC0yLjA5Mzc1IDAuMjgxMjV6bS04LjcwMzEyNSAtMTMuOTg0Mzc1bDAgLTMuMTg3NWwxMS4zOTA2MjUgMGwwIDMuMTg3NWwtMTEuMzkwNjI1IDB6bTIzLjI4ODk0IDEzLjk4NDM3NXEtMi44NDM3NSAwIC00Ljk4NDM3NSAtMS4xMjVxLTIuMTI1IC0xLjE0MDYyNSAtMy4yOTY4NzUgLTMuMTI1cS0xLjE1NjI1IC0xLjk4NDM3NSAtMS4xNTYyNSAtNC41MTU2MjVxMCAtMi41NjI1IDEuMTI1IC00LjUzMTI1cTEuMTQwNjI1IC0xLjk2ODc1IDMuMTQwNjI1IC0zLjA3ODEyNXEyLjAgLTEuMTI1IDQuNTYyNSAtMS4xMjVxMi41IDAgNC40NTMxMjUgMS4wOTM3NXExLjk1MzEyNSAxLjA3ODEyNSAzLjA2MjUgMy4wNjI1cTEuMTI1IDEuOTg0Mzc1IDEuMTI1IDQuNjcxODc1cTAgMC4yNjU2MjUgLTAuMDE1NjI1IDAuNTkzNzVxLTAuMDE1NjI1IDAuMzEyNSAtMC4wNDY4NzUgMC41OTM3NWwtMTQuMjM0Mzc1IDBsMCAtMi42NTYyNWwxMi4xMjUgMGwtMS41NzgxMjUgMC44MjgxMjVxMC4wMzEyNSAtMS40Njg3NSAtMC42MDkzNzUgLTIuNTc4MTI1cS0wLjYyNSAtMS4xMjUgLTEuNzM0Mzc1IC0xLjc2NTYyNXEtMS4xMDkzNzUgLTAuNjQwNjI1IC0yLjU0Njg3NSAtMC42NDA2MjVxLTEuNDY4NzUgMCAtMi41NzgxMjUgMC42NDA2MjVxLTEuMDkzNzUgMC42NDA2MjUgLTEuNzE4NzUgMS43ODEyNXEtMC42MjUgMS4xMjUgLTAuNjI1IDIuNjcxODc1bDAgMC42MjVxMCAxLjU0Njg3NSAwLjcwMzEyNSAyLjczNDM3NXEwLjcwMzEyNSAxLjE3MTg3NSAxLjk4NDM3NSAxLjgxMjVxMS4yODEyNSAwLjY0MDYyNSAyLjkzNzUgMC42NDA2MjVxMS40Mzc1IDAgMi41OTM3NSAtMC40Mzc1cTEuMTU2MjUgLTAuNDUzMTI1IDIuMDQ2ODc1IC0xLjQyMTg3NWwyLjE0MDYyNSAyLjQ2ODc1cS0xLjE0MDYyNSAxLjM0Mzc1IC0yLjg5MDYyNSAyLjA2MjVxLTEuNzUgMC43MTg3NSAtMy45ODQzNzUgMC43MTg3NXptMzMuNDM1MzAzIC0xNy41cTIuMDQ2ODc1IDAgMy42MjUgMC43OTY4NzVxMS41OTM3NSAwLjc5Njg3NSAyLjQ4NDM3NSAyLjQ1MzEyNXEwLjkwNjI1IDEuNjQwNjI1IDAuOTA2MjUgNC4yMzQzNzVsMCA5Ljc5Njg3NWwtNC4wIDBsMCAtOS4yODEyNXEwIC0yLjI2NTYyNSAtMS4wIC0zLjM5MDYyNXEtMC45ODQzNzUgLTEuMTI1IC0yLjg0Mzc1IC0xLjEyNXEtMS4zMTI1IDAgLTIuMzI4MTI1IDAuNTc4MTI1cS0xLjAgMC41NzgxMjUgLTEuNTYyNSAxLjcwMzEyNXEtMC41NjI1IDEuMTA5Mzc1IC0wLjU2MjUgMi44NDM3NWwwIDguNjcxODc1bC00LjAgMGwwIC05LjI4MTI1cTAgLTIuMjY1NjI1IC0xLjAgLTMuMzkwNjI1cS0wLjk4NDM3NSAtMS4xMjUgLTIuODI4MTI1IC0xLjEyNXEtMS4zMTI1IDAgLTIuMzI4MTI1IDAuNTc4MTI1cS0xLjAgMC41NzgxMjUgLTEuNTYyNSAxLjcwMzEyNXEtMC41NjI1IDEuMTA5Mzc1IC0wLjU2MjUgMi44NDM3NWwwIDguNjcxODc1bC00LjAgMGwwIC0xNy4wOTM3NWwzLjgxMjUgMGwwIDQuNTQ2ODc1bC0wLjY3MTg3NSAtMS4zNDM3NXEwLjg1OTM3NSAtMS42NTYyNSAyLjUgLTIuNTE1NjI1cTEuNjU2MjUgLTAuODc1IDMuNzY1NjI1IC0wLjg3NXEyLjQwNjI1IDAgNC4xNzE4NzUgMS4xODc1cTEuNzgxMjUgMS4xODc1IDIuMzU5Mzc1IDMuNTc4MTI1bC0xLjU3ODEyNSAtMC41NDY4NzVxMC44NDM3NSAtMS45MDYyNSAyLjc1IC0zLjA2MjVxMS45MjE4NzUgLTEuMTU2MjUgNC40NTMxMjUgLTEuMTU2MjV6bTI4LjI5MzcwMSAxNy41OTM3NXEtMi42MjUgMCAtNS4wMzEyNSAtMC43NXEtMi4zOTA2MjUgLTAuNzUgLTMuNzk2ODc1IC0xLjkzNzVsMS40Mzc1IC0zLjIxODc1cTEuMzQzNzUgMS4wNDY4NzUgMy4zMjgxMjUgMS43NXExLjk4NDM3NSAwLjcwMzEyNSA0LjA2MjUgMC43MDMxMjVxMS43NjU2MjUgMCAyLjg0Mzc1IC0wLjM3NXExLjA5Mzc1IC0wLjM5MDYyNSAxLjU5Mzc1IC0xLjA0Njg3NXEwLjUxNTYyNSAtMC42NTYyNSAwLjUxNTYyNSAtMS40ODQzNzVxMCAtMS4wMzEyNSAtMC43MzQzNzUgLTEuNjQwNjI1cS0wLjczNDM3NSAtMC42MjUgLTEuOTA2MjUgLTEuMHEtMS4xNTYyNSAtMC4zNzUgLTIuNTkzNzUgLTAuNjg3NXEtMS40MjE4NzUgLTAuMzI4MTI1IC0yLjg0Mzc1IC0wLjc1cS0xLjQyMTg3NSAtMC40Mzc1IC0yLjU5Mzc1IC0xLjEyNXEtMS4xNTYyNSAtMC42ODc1IC0xLjkwNjI1IC0xLjgyODEyNXEtMC43MzQzNzUgLTEuMTU2MjUgLTAuNzM0Mzc1IC0yLjk1MzEyNXEwIC0xLjgyODEyNSAwLjk2ODc1IC0zLjM0Mzc1cTAuOTg0Mzc1IC0xLjUxNTYyNSAyLjk4NDM3NSAtMi40MjE4NzVxMi4wIC0wLjkyMTg3NSA1LjA3ODEyNSAtMC45MjE4NzVxMi4wMTU2MjUgMCA0LjAgMC41MTU2MjVxMS45ODQzNzUgMC41IDMuNDUzMTI1IDEuNDY4NzVsLTEuMzEyNSAzLjIzNDM3NXEtMS41IC0wLjkwNjI1IC0zLjEwOTM3NSAtMS4zMjgxMjVxLTEuNTkzNzUgLTAuNDM3NSAtMy4wNjI1IC0wLjQzNzVxLTEuNzM0Mzc1IDAgLTIuODEyNSAwLjQyMTg3NXEtMS4wNjI1IDAuNDA2MjUgLTEuNTYyNSAxLjA3ODEyNXEtMC40ODQzNzUgMC42NzE4NzUgLTAuNDg0Mzc1IDEuNTQ2ODc1cTAgMS4wMTU2MjUgMC43MTg3NSAxLjY0MDYyNXEwLjcxODc1IDAuNjI1IDEuODc1IDAuOTg0Mzc1cTEuMTcxODc1IDAuMzQzNzUgMi42MDkzNzUgMC42ODc1cTEuNDUzMTI1IDAuMzI4MTI1IDIuODc1IDAuNzVxMS40MjE4NzUgMC40MDYyNSAyLjU3ODEyNSAxLjA3ODEyNXExLjE3MTg3NSAwLjY3MTg3NSAxLjg5MDYyNSAxLjgyODEyNXEwLjczNDM3NSAxLjE1NjI1IDAuNzM0Mzc1IDIuOTA2MjVxMCAxLjc5Njg3NSAtMC45ODQzNzUgMy4zMjgxMjVxLTAuOTY4NzUgMS41MTU2MjUgLTIuOTg0Mzc1IDIuNDIxODc1cS0yLjAxNTYyNSAwLjkwNjI1IC01LjA5Mzc1IDAuOTA2MjV6bTE3LjQwMTczMyAtMC4zMTI1bDAgLTE4Ljg3NWwtNy40MjE4NzUgMGwwIC0zLjUzMTI1bDE5LjAxNTYyNSAwbDAgMy41MzEyNWwtNy40MjE4NzUgMGwwIDE4Ljg3NWwtNC4xNzE4NzUgMHptMTQuNzMyNzg4IDBsMCAtMjIuNDA2MjVsOS4yMDMxMjUgMHEyLjk4NDM3NSAwIDUuMTA5Mzc1IDAuOTY4NzVxMi4xMjUgMC45NTMxMjUgMy4yODEyNSAyLjc1cTEuMTU2MjUgMS43OTY4NzUgMS4xNTYyNSA0LjI1cTAgMi40Njg3NSAtMS4xNTYyNSA0LjI1cS0xLjE1NjI1IDEuNzY1NjI1IC0zLjI4MTI1IDIuNzE4NzVxLTIuMTI1IDAuOTM3NSAtNS4xMDkzNzUgMC45Mzc1bC02LjkwNjI1IDBsMS44NTkzNzUgLTEuODkwNjI1bDAgOC40MjE4NzVsLTQuMTU2MjUgMHptMTQuNjQwNjI1IDBsLTUuNjU2MjUgLTguMTI1bDQuNDUzMTI1IDBsNS42ODc1IDguMTI1bC00LjQ4NDM3NSAwem0tMTAuNDg0Mzc1IC03Ljk2ODc1bC0xLjg1OTM3NSAtMS45ODQzNzVsNi43MTg3NSAwcTIuNzUgMCA0LjE0MDYyNSAtMS4xNzE4NzVxMS4zOTA2MjUgLTEuMTg3NSAxLjM5MDYyNSAtMy4zMTI1cTAgLTIuMTQwNjI1IC0xLjM5MDYyNSAtMy4yODEyNXEtMS4zOTA2MjUgLTEuMTU2MjUgLTQuMTQwNjI1IC0xLjE1NjI1bC02LjcxODc1IDBsMS44NTkzNzUgLTIuMDQ2ODc1bDAgMTIuOTUzMTI1em0xOS4yMzU4NCA3Ljk2ODc1bDAgLTIyLjQwNjI1bDQuMTU2MjUgMGwwIDIyLjQwNjI1bC00LjE1NjI1IDB6bTEwLjIwODAwOCAwbDAgLTIyLjQwNjI1bDMuNDIxODc1IDBsMTQuMDQ2ODc1IDE3LjI1bC0xLjcwMzEyNSAwbDAgLTE3LjI1bDQuMTI1IDBsMCAyMi40MDYyNWwtMy40MjE4NzUgMGwtMTQuMDQ2ODc1IC0xNy4yNWwxLjcwMzEyNSAwbDAgMTcuMjVsLTQuMTI1IDB6bTM2LjM3MzA0NyAwLjMxMjVxLTIuNjI1IDAgLTQuODEyNSAtMC44NDM3NXEtMi4xODc1IC0wLjg0Mzc1IC0zLjgyODEyNSAtMi4zOTA2MjVxLTEuNjI1IC0xLjU2MjUgLTIuNTMxMjUgLTMuNjcxODc1cS0wLjg5MDYyNSAtMi4xMDkzNzUgLTAuODkwNjI1IC00LjYwOTM3NXEwIC0yLjUgMC44OTA2MjUgLTQuNjA5Mzc1cTAuOTA2MjUgLTIuMTA5Mzc1IDIuNTQ2ODc1IC0zLjY1NjI1cTEuNjU2MjUgLTEuNTYyNSAzLjg1OTM3NSAtMi40MDYyNXEyLjIwMzEyNSAtMC44NDM3NSA0LjgyODEyNSAtMC44NDM3NXEyLjg1OTM3NSAwIDUuMTQwNjI1IDAuOTM3NXEyLjI4MTI1IDAuOTIxODc1IDMuODU5Mzc1IDIuNzAzMTI1bC0yLjYyNSAyLjU2MjVxLTEuMzEyNSAtMS4zMTI1IC0yLjg0Mzc1IC0xLjkzNzVxLTEuNTE1NjI1IC0wLjYyNSAtMy4zMjgxMjUgLTAuNjI1cS0xLjc2NTYyNSAwIC0zLjI4MTI1IDAuNTc4MTI1cS0xLjUgMC41NzgxMjUgLTIuNTkzNzUgMS42NDA2MjVxLTEuMDc4MTI1IDEuMDQ2ODc1IC0xLjY3MTg3NSAyLjVxLTAuNTkzNzUgMS40Mzc1IC0wLjU5Mzc1IDMuMTU2MjVxMCAxLjcwMzEyNSAwLjU5Mzc1IDMuMTQwNjI1cTAuNTkzNzUgMS40Mzc1IDEuNjcxODc1IDIuNTE1NjI1cTEuMDkzNzUgMS4wNjI1IDIuNTYyNSAxLjY0MDYyNXExLjQ4NDM3NSAwLjU3ODEyNSAzLjI4MTI1IDAuNTc4MTI1cTEuNjU2MjUgMCAzLjIwMzEyNSAtMC41MzEyNXExLjU2MjUgLTAuNTMxMjUgMi45Njg3NSAtMS43NjU2MjVsMi4zNTkzNzUgMy4wOTM3NXEtMS43NSAxLjQwNjI1IC00LjA3ODEyNSAyLjEyNXEtMi4zMTI1IDAuNzE4NzUgLTQuNjg3NSAwLjcxODc1em00LjgyODEyNSAtMy4zOTA2MjVsMCAtOC4zNzVsMy45Mzc1IDBsMCA4LjkyMTg3NWwtMy45Mzc1IC0wLjU0Njg3NXptOC4yODk3OTUgNy45MDYyNWwxLjg1OTM3NSAtNy4wNjI1bDAuNTQ2ODc1IDIuMzU5Mzc1cS0xLjEyNSAwIC0xLjg3NSAtMC42ODc1cS0wLjc1IC0wLjY4NzUgLTAuNzUgLTEuODc1cTAgLTEuMjAzMTI1IDAuNzUgLTEuOTIxODc1cTAuNzUgLTAuNzM0Mzc1IDEuODQzNzUgLTAuNzM0Mzc1cTEuMTI1IDAgMS44NTkzNzUgMC43NXEwLjczNDM3NSAwLjczNDM3NSAwLjczNDM3NSAxLjkwNjI1cTAgMC4zMjgxMjUgLTAuMDYyNSAwLjcwMzEyNXEtMC4wNjI1IDAuMzU5Mzc1IC0wLjIxODc1IDAuODQzNzVxLTAuMTQwNjI1IDAuNDY4NzUgLTAuNDUzMTI1IDEuMjAzMTI1bC0xLjY0MDYyNSA0LjUxNTYyNWwtMi41OTM3NSAwem0yNC4xNDAxMzcgLTQuNjA5Mzc1cS0yLjgyODEyNSAwIC00LjM1OTM3NSAtMS40NTMxMjVxLTEuNTMxMjUgLTEuNDUzMTI1IC0xLjUzMTI1IC00LjI5Njg3NWwwIC0xNS4zMjgxMjVsNC4wIDBsMCAxNS4yMzQzNzVxMCAxLjIwMzEyNSAwLjYyNSAxLjg3NXEwLjYyNSAwLjY3MTg3NSAxLjczNDM3NSAwLjY3MTg3NXExLjM0Mzc1IDAgMi4yNSAtMC43MDMxMjVsMS4xMDkzNzUgMi44NTkzNzVxLTAuNzAzMTI1IDAuNTYyNSAtMS43MzQzNzUgMC44NTkzNzVxLTEuMDE1NjI1IDAuMjgxMjUgLTIuMDkzNzUgMC4yODEyNXptLTguNzAzMTI1IC0xMy45ODQzNzVsMCAtMy4xODc1bDExLjM5MDYyNSAwbDAgMy4xODc1bC0xMS4zOTA2MjUgMHptMjIuOTI5NDQzIDEzLjk4NDM3NXEtMi42MDkzNzUgMCAtNC42NzE4NzUgLTEuMTI1cS0yLjA0Njg3NSAtMS4xNDA2MjUgLTMuMjM0Mzc1IC0zLjEyNXEtMS4xNzE4NzUgLTEuOTg0Mzc1IC0xLjE3MTg3NSAtNC41MTU2MjVxMCAtMi41NjI1IDEuMTcxODc1IC00LjUzMTI1cTEuMTg3NSAtMS45Njg3NSAzLjIzNDM3NSAtMy4wNzgxMjVxMi4wNjI1IC0xLjEyNSA0LjY3MTg3NSAtMS4xMjVxMi42NTYyNSAwIDQuNzE4NzUgMS4xMjVxMi4wNzgxMjUgMS4xMDkzNzUgMy4yMzQzNzUgMy4wNjI1cTEuMTcxODc1IDEuOTUzMTI1IDEuMTcxODc1IDQuNTQ2ODc1cTAgMi41MzEyNSAtMS4xNzE4NzUgNC41MTU2MjVxLTEuMTU2MjUgMS45ODQzNzUgLTMuMjM0Mzc1IDMuMTI1cS0yLjA2MjUgMS4xMjUgLTQuNzE4NzUgMS4xMjV6bTAgLTMuNDIxODc1cTEuNDg0Mzc1IDAgMi42MjUgLTAuNjQwNjI1cTEuMTU2MjUgLTAuNjQwNjI1IDEuODEyNSAtMS44NDM3NXEwLjY1NjI1IC0xLjIxODc1IDAuNjU2MjUgLTIuODU5Mzc1cTAgLTEuNjU2MjUgLTAuNjU2MjUgLTIuODU5Mzc1cS0wLjY1NjI1IC0xLjIwMzEyNSAtMS44MTI1IC0xLjg0Mzc1cS0xLjE0MDYyNSAtMC42NDA2MjUgLTIuNTc4MTI1IC0wLjY0MDYyNXEtMS40ODQzNzUgMCAtMi42MjUgMC42NDA2MjVxLTEuMTI1IDAuNjQwNjI1IC0xLjc5Njg3NSAxLjg0Mzc1cS0wLjY3MTg3NSAxLjIwMzEyNSAtMC42NzE4NzUgMi44NTkzNzVxMCAxLjY0MDYyNSAwLjY3MTg3NSAyLjg1OTM3NXEwLjY3MTg3NSAxLjIwMzEyNSAxLjc5Njg3NSAxLjg0Mzc1cTEuMTQwNjI1IDAuNjQwNjI1IDIuNTc4MTI1IDAuNjQwNjI1em0xOS40MDU3NjIgMy40MjE4NzVxLTIuODI4MTI1IDAgLTQuMzU5Mzc1IC0xLjQ1MzEyNXEtMS41MzEyNSAtMS40NTMxMjUgLTEuNTMxMjUgLTQuMjk2ODc1bDAgLTE1LjMyODEyNWw0LjAgMGwwIDE1LjIzNDM3NXEwIDEuMjAzMTI1IDAuNjI1IDEuODc1cTAuNjI1IDAuNjcxODc1IDEuNzM0Mzc1IDAuNjcxODc1cTEuMzQzNzUgMCAyLjI1IC0wLjcwMzEyNWwxLjEwOTM3NSAyLjg1OTM3NXEtMC43MDMxMjUgMC41NjI1IC0xLjczNDM3NSAwLjg1OTM3NXEtMS4wMTU2MjUgMC4yODEyNSAtMi4wOTM3NSAwLjI4MTI1em0tOC43MDMxMjUgLTEzLjk4NDM3NWwwIC0zLjE4NzVsMTEuMzkwNjI1IDBsMCAzLjE4NzVsLTExLjM5MDYyNSAwem0yNi4zNjQ3NDYgMTMuNzY1NjI1bDAgLTMuNDUzMTI1bC0wLjIzNDM3NSAtMC43MzQzNzVsMCAtNi4wNDY4NzVxMCAtMS43NjU2MjUgLTEuMDYyNSAtMi43MzQzNzVxLTEuMDQ2ODc1IC0wLjk4NDM3NSAtMy4xODc1IC0wLjk4NDM3NXEtMS40Mzc1IDAgLTIuODI4MTI1IDAuNDUzMTI1cS0xLjM5MDYyNSAwLjQzNzUgLTIuMzU5Mzc1IDEuMjVsLTEuNTYyNSAtMi45MjE4NzVxMS4zNzUgLTEuMDQ2ODc1IDMuMjgxMjUgLTEuNTc4MTI1cTEuOTA2MjUgLTAuNTMxMjUgMy45NTMxMjUgLTAuNTMxMjVxMy43MDMxMjUgMCA1LjczNDM3NSAxLjc4MTI1cTIuMDMxMjUgMS43NjU2MjUgMi4wMzEyNSA1LjQ4NDM3NWwwIDEwLjAxNTYyNWwtMy43NjU2MjUgMHptLTUuMzc1IDAuMjE4NzVxLTEuOTIxODc1IDAgLTMuMzc1IC0wLjY1NjI1cS0xLjQzNzUgLTAuNjU2MjUgLTIuMjE4NzUgLTEuODEyNXEtMC43ODEyNSAtMS4xNzE4NzUgLTAuNzgxMjUgLTIuNjQwNjI1cTAgLTEuNDUzMTI1IDAuNjg3NSAtMi41OTM3NXEwLjY4NzUgLTEuMTU2MjUgMi4yNSAtMS44MjgxMjVxMS41NzgxMjUgLTAuNjcxODc1IDQuMTcxODc1IC0wLjY3MTg3NWw0Ljk1MzEyNSAwbDAgMi42NTYyNWwtNC42NzE4NzUgMHEtMi4wNDY4NzUgMCAtMi43NSAwLjY1NjI1cS0wLjcwMzEyNSAwLjY1NjI1IC0wLjcwMzEyNSAxLjYwOTM3NXEwIDEuMDkzNzUgMC44NTkzNzUgMS43MzQzNzVxMC44NzUgMC42NDA2MjUgMi40MDYyNSAwLjY0MDYyNXExLjQ2ODc1IDAgMi42NDA2MjUgLTAuNjcxODc1cTEuMTcxODc1IC0wLjY3MTg3NSAxLjY3MTg3NSAtMS45ODQzNzVsMC42NzE4NzUgMi40MDYyNXEtMC41NjI1IDEuNSAtMi4wNjI1IDIuMzI4MTI1cS0xLjQ4NDM3NSAwLjgyODEyNSAtMy43NSAwLjgyODEyNXptMTQuMjY3ODIyIC0wLjIxODc1bDAgLTIzLjc1bDQuMCAwbDAgMjMuNzVsLTQuMCAwem0xOC40NzA3MDMgMGwwIC0yMi40MDYyNWw0LjE1NjI1IDBsMCAyMi40MDYyNWwtNC4xNTYyNSAwem0xMC4yMDgwMDggMGwwIC0yMi40MDYyNWwzLjQyMTg3NSAwbDE0LjA0Njg3NSAxNy4yNWwtMS43MDMxMjUgMGwwIC0xNy4yNWw0LjEyNSAwbDAgMjIuNDA2MjVsLTMuNDIxODc1IDBsLTE0LjA0Njg3NSAtMTcuMjVsMS43MDMxMjUgMGwwIDE3LjI1bC00LjEyNSAwem0zMC40NTExNzIgMGwwIC0xOC44NzVsLTcuNDIxODc1IDBsMCAtMy41MzEyNWwxOS4wMTU2MjUgMGwwIDMuNTMxMjVsLTcuNDIxODc1IDBsMCAxOC44NzVsLTQuMTcxODc1IDB6bTE2LjIzMjkxIDYuMjAzMTI1bC0zLjgxMjUgMHExLjk4NDM3NSAtMy41MTU2MjUgMi44OTA2MjUgLTcuMTcxODc1cTAuOTIxODc1IC0zLjY3MTg3NSAwLjkyMTg3NSAtNy43OTY4NzVxMCAtNC4xMjUgLTAuOTIxODc1IC03Ljc4MTI1cS0wLjkwNjI1IC0zLjY3MTg3NSAtMi44OTA2MjUgLTcuMjAzMTI1bDMuODEyNSAwcTEuOTIxODc1IDIuODU5Mzc1IDIuOTA2MjUgNi43MTg3NXExLjAgMy44NDM3NSAxLjAgOC4yNjU2MjVxMCA0LjQwNjI1IC0xLjAgOC4yMzQzNzVxLTAuOTg0Mzc1IDMuODI4MTI1IC0yLjkwNjI1IDYuNzM0Mzc1eiIgZmlsbD0iI2ZmZmZmZiIvPjxwYXRoIGZpbGwtcnVsZT0ibm9uemVybyIgZD0ibTE4NzIuNzMwMSA1MjEuMTk3MTRsLTcuNDIxODc1IC0yMi40MDYyMmw0LjMyODEyNSAwbDYuNjI1IDIwLjI2NTU5NGwtMi4xNTYyNSAwbDYuODkwNjI1IC0yMC4yNjU1OTRsMy44NDM3NSAwbDYuNjg3NSAyMC4yNjU1OTRsLTIuMDkzNzUgMGw2Ljc5Njg3NSAtMjAuMjY1NTk0bDMuOTY4NzUgMGwtNy40Mzc1IDIyLjQwNjIybC00LjQwNjI1IDBsLTYuMTA5Mzc1IC0xOC4yNjU1OTRsMS4xNDA2MjUgMGwtNi4yMDMxMjUgMTguMjY1NTk0bC00LjQ1MzEyNSAwem0zMC44NjI0MjcgMGwwIC0yMi40MDYyMmw0LjE1NjI1IDBsMCAyMi40MDYyMmwtNC4xNTYyNSAwem0xNC43MzkzOCAwbDAgLTE4Ljg3NDk3bC03LjQyMTg3NSAwbDAgLTMuNTMxMjVsMTkuMDE1NjI1IDBsMCAzLjUzMTI1bC03LjQyMTg3NSAwbDAgMTguODc0OTdsLTQuMTcxODc1IDB6bTMwLjQ2NzE2MyAtMjIuNDA2MjJsNC4xNTYyNSAwbDAgMjIuNDA2MjJsLTQuMTU2MjUgMGwwIC0yMi40MDYyMnptLTExLjU3ODEyNSAyMi40MDYyMmwtNC4xNTYyNSAwbDAgLTIyLjQwNjIybDQuMTU2MjUgMGwwIDIyLjQwNjIyem0xMS45MDYyNSAtOS41OTM3MTk1bC0xMi4yNjU2MjUgMGwwIC0zLjU2MjVsMTIuMjY1NjI1IDBsMCAzLjU2MjV6bTIyLjI2NzcgMTUuNzk2ODQ0NXEtMS44OTA2MjUgLTIuOTA2MjUgLTIuOTA2MjUgLTYuNzM0Mzc1cS0xLjAgLTMuODI4MTI1IC0xLjAgLTguMjM0Mzc1cTAgLTQuNDIxODQ0NSAxLjAgLTguMjY1NTk0NXExLjAxNTYyNSAtMy44NTkzNzUgMi45MDYyNSAtNi43MTg3NWwzLjgxMjUgMHEtMS45NTMxMjUgMy41MzEyNSAtMi44NzUgNy4yMDMxMjVxLTAuOTA2MjUgMy42NTYyNSAtMC45MDYyNSA3Ljc4MTIxOTVxMCA0LjEyNSAwLjkwNjI1IDcuNzk2ODc1cTAuOTIxODc1IDMuNjU2MjUgMi44NzUgNy4xNzE4NzVsLTMuODEyNSAwem04LjQxNjUwNCAtNS45ODQzNzVxLTEuMDkzNzUgMCAtMS44NTkzNzUgLTAuNzVxLTAuNzY1NjI1IC0wLjc1IC0wLjc2NTYyNSAtMS45MDYyNXEwIC0xLjIwMzEyNSAwLjc2NTYyNSAtMS45MjE4NzVxMC43NjU2MjUgLTAuNzM0Mzc1IDEuODU5Mzc1IC0wLjczNDM3NXExLjA3ODEyNSAwIDEuODQzNzUgMC43MzQzNzVxMC43ODEyNSAwLjcxODc1IDAuNzgxMjUgMS45MjE4NzVxMCAxLjE1NjI1IC0wLjc4MTI1IDEuOTA2MjVxLTAuNzY1NjI1IDAuNzUgLTEuODQzNzUgMC43NXptNy45Njg3NSAwcS0xLjA5Mzc1IDAgLTEuODU5Mzc1IC0wLjc1cS0wLjc2NTYyNSAtMC43NSAtMC43NjU2MjUgLTEuOTA2MjVxMCAtMS4yMDMxMjUgMC43NjU2MjUgLTEuOTIxODc1cTAuNzY1NjI1IC0wLjczNDM3NSAxLjg1OTM3NSAtMC43MzQzNzVxMS4wNzgxMjUgMCAxLjg0Mzc1IDAuNzM0Mzc1cTAuNzgxMjUgMC43MTg3NSAwLjc4MTI1IDEuOTIxODc1cTAgMS4xNTYyNSAtMC43ODEyNSAxLjkwNjI1cS0wLjc2NTYyNSAwLjc1IC0xLjg0Mzc1IDAuNzV6bTguMCAwcS0xLjA5Mzc1IDAgLTEuODU5Mzc1IC0wLjc1cS0wLjc2NTYyNSAtMC43NSAtMC43NjU2MjUgLTEuOTA2MjVxMCAtMS4yMDMxMjUgMC43NjU2MjUgLTEuOTIxODc1cTAuNzY1NjI1IC0wLjczNDM3NSAxLjg1OTM3NSAtMC43MzQzNzVxMS4wNzgxMjUgMCAxLjg0Mzc1IDAuNzM0Mzc1cTAuNzgxMjUgMC43MTg3NSAwLjc4MTI1IDEuOTIxODc1cTAgMS4xNTYyNSAtMC43ODEyNSAxLjkwNjI1cS0wLjc2NTYyNSAwLjc1IC0xLjg0Mzc1IDAuNzV6bTguNDE2NjI2IDUuOTg0Mzc1bC0zLjgxMjUgMHExLjk4NDM3NSAtMy41MTU2MjUgMi44OTA2MjUgLTcuMTcxODc1cTAuOTIxODc1IC0zLjY3MTg3NSAwLjkyMTg3NSAtNy43OTY4NzVxMCAtNC4xMjQ5Njk1IC0wLjkyMTg3NSAtNy43ODEyMTk1cS0wLjkwNjI1IC0zLjY3MTg3NSAtMi44OTA2MjUgLTcuMjAzMTI1bDMuODEyNSAwcTEuOTIxODc1IDIuODU5Mzc1IDIuOTA2MjUgNi43MTg3NXExLjAgMy44NDM3NSAxLjAgOC4yNjU1OTQ1cTAgNC40MDYyNSAtMS4wIDguMjM0Mzc1cS0wLjk4NDM3NSAzLjgyODEyNSAtMi45MDYyNSA2LjczNDM3NXoiIGZpbGw9IiNmZmZmZmYiLz48cGF0aCBmaWxsLXJ1bGU9ImV2ZW5vZGQiIGQ9Im05OTYuNDg1NTMgNjcyLjYzNzhsNjIyLjM2MjI0IDBsMCAyMzkuMTQ5NmwtNjIyLjM2MjI0IDB6IiBmaWxsPSIjYWEyYmNlIi8+PHBhdGggZmlsbC1ydWxlPSJub256ZXJvIiBkPSJtMTAyNC41MDEyIDcyOC4zNTc4bDAgLTIyLjQwNjI1bDQuMTU2MjUgMGwwIDIyLjQwNjI1bC00LjE1NjI1IDB6bTEwLjIwODAwOCAwbDAgLTIyLjQwNjI1bDMuNDIxODc1IDBsMTQuMDQ2ODc1IDE3LjI1bC0xLjcwMzEyNSAwbDAgLTE3LjI1bDQuMTI1IDBsMCAyMi40MDYyNWwtMy40MjE4NzUgMGwtMTQuMDQ2ODc1IC0xNy4yNWwxLjcwMzEyNSAwbDAgMTcuMjVsLTQuMTI1IDB6bTMyLjg1NzU0NCAwLjMxMjVxLTIuNjI1IDAgLTUuMDMxMjUgLTAuNzVxLTIuMzkwNjI1IC0wLjc1IC0zLjc5Njg3NSAtMS45Mzc1bDEuNDM3NSAtMy4yMTg3NXExLjM0Mzc1IDEuMDQ2ODc1IDMuMzI4MTI1IDEuNzVxMS45ODQzNzUgMC43MDMxMjUgNC4wNjI1IDAuNzAzMTI1cTEuNzY1NjI1IDAgMi44NDM3NSAtMC4zNzVxMS4wOTM3NSAtMC4zOTA2MjUgMS41OTM3NSAtMS4wNDY4NzVxMC41MTU2MjUgLTAuNjU2MjUgMC41MTU2MjUgLTEuNDg0Mzc1cTAgLTEuMDMxMjUgLTAuNzM0Mzc1IC0xLjY0MDYyNXEtMC43MzQzNzUgLTAuNjI1IC0xLjkwNjI1IC0xLjBxLTEuMTU2MjUgLTAuMzc1IC0yLjU5Mzc1IC0wLjY4NzVxLTEuNDIxODc1IC0wLjMyODEyNSAtMi44NDM3NSAtMC43NXEtMS40MjE4NzUgLTAuNDM3NSAtMi41OTM3NSAtMS4xMjVxLTEuMTU2MjUgLTAuNjg3NSAtMS45MDYyNSAtMS44MjgxMjVxLTAuNzM0Mzc1IC0xLjE1NjI1IC0wLjczNDM3NSAtMi45NTMxMjVxMCAtMS44MjgxMjUgMC45Njg3NSAtMy4zNDM3NXEwLjk4NDM3NSAtMS41MTU2MjUgMi45ODQzNzUgLTIuNDIxODc1cTIuMCAtMC45MjE4NzUgNS4wNzgxMjUgLTAuOTIxODc1cTIuMDE1NjI1IDAgNC4wIDAuNTE1NjI1cTEuOTg0Mzc1IDAuNSAzLjQ1MzEyNSAxLjQ2ODc1bC0xLjMxMjUgMy4yMzQzNzVxLTEuNSAtMC45MDYyNSAtMy4xMDkzNzUgLTEuMzI4MTI1cS0xLjU5Mzc1IC0wLjQzNzUgLTMuMDYyNSAtMC40Mzc1cS0xLjczNDM3NSAwIC0yLjgxMjUgMC40MjE4NzVxLTEuMDYyNSAwLjQwNjI1IC0xLjU2MjUgMS4wNzgxMjVxLTAuNDg0Mzc1IDAuNjcxODc1IC0wLjQ4NDM3NSAxLjU0Njg3NXEwIDEuMDE1NjI1IDAuNzE4NzUgMS42NDA2MjVxMC43MTg3NSAwLjYyNSAxLjg3NSAwLjk4NDM3NXExLjE3MTg3NSAwLjM0Mzc1IDIuNjA5Mzc1IDAuNjg3NXExLjQ1MzEyNSAwLjMyODEyNSAyLjg3NSAwLjc1cTEuNDIxODc1IDAuNDA2MjUgMi41NzgxMjUgMS4wNzgxMjVxMS4xNzE4NzUgMC42NzE4NzUgMS44OTA2MjUgMS44MjgxMjVxMC43MzQzNzUgMS4xNTYyNSAwLjczNDM3NSAyLjkwNjI1cTAgMS43OTY4NzUgLTAuOTg0Mzc1IDMuMzI4MTI1cS0wLjk2ODc1IDEuNTE1NjI1IC0yLjk4NDM3NSAyLjQyMTg3NXEtMi4wMTU2MjUgMC45MDYyNSAtNS4wOTM3NSAwLjkwNjI1em0xNy4wMTg2NzcgLTEzLjQwNjI1bDExLjE0MDYyNSAwbDAgMy40Mzc1bC0xMS4xNDA2MjUgMGwwIC0zLjQzNzV6bTAuMzI4MTI1IDkuNjA5Mzc1bDEyLjY0MDYyNSAwbDAgMy40ODQzNzVsLTE2Ljc5Njg3NSAwbDAgLTIyLjQwNjI1bDE2LjM0Mzc1IDBsMCAzLjVsLTEyLjE4NzUgMGwwIDE1LjQyMTg3NXptMTcuMjgzODEzIDMuNDg0Mzc1bDAgLTIyLjQwNjI1bDkuMjAzMTI1IDBxMi45ODQzNzUgMCA1LjEwOTM3NSAwLjk2ODc1cTIuMTI1IDAuOTUzMTI1IDMuMjgxMjUgMi43NXExLjE1NjI1IDEuNzk2ODc1IDEuMTU2MjUgNC4yNXEwIDIuNDY4NzUgLTEuMTU2MjUgNC4yNXEtMS4xNTYyNSAxLjc2NTYyNSAtMy4yODEyNSAyLjcxODc1cS0yLjEyNSAwLjkzNzUgLTUuMTA5Mzc1IDAuOTM3NWwtNi45MDYyNSAwbDEuODU5Mzc1IC0xLjg5MDYyNWwwIDguNDIxODc1bC00LjE1NjI1IDB6bTE0LjY0MDYyNSAwbC01LjY1NjI1IC04LjEyNWw0LjQ1MzEyNSAwbDUuNjg3NSA4LjEyNWwtNC40ODQzNzUgMHptLTEwLjQ4NDM3NSAtNy45Njg3NWwtMS44NTkzNzUgLTEuOTg0Mzc1bDYuNzE4NzUgMHEyLjc1IDAgNC4xNDA2MjUgLTEuMTcxODc1cTEuMzkwNjI1IC0xLjE4NzUgMS4zOTA2MjUgLTMuMzEyNXEwIC0yLjE0MDYyNSAtMS4zOTA2MjUgLTMuMjgxMjVxLTEuMzkwNjI1IC0xLjE1NjI1IC00LjE0MDYyNSAtMS4xNTYyNWwtNi43MTg3NSAwbDEuODU5Mzc1IC0yLjA0Njg3NWwwIDEyLjk1MzEyNXptMjMuNDQ3MDIxIDcuOTY4NzVsMCAtMTguODc1bC03LjQyMTg3NSAwbDAgLTMuNTMxMjVsMTkuMDE1NjI1IDBsMCAzLjUzMTI1bC03LjQyMTg3NSAwbDAgMTguODc1bC00LjE3MTg3NSAwem0yMy41NjQ4MiAwbDAgLTIyLjQwNjI1bDQuMTU2MjUgMGwwIDIyLjQwNjI1bC00LjE1NjI1IDB6bTEwLjIwODAwOCAwbDAgLTIyLjQwNjI1bDMuNDIxODc1IDBsMTQuMDQ2ODc1IDE3LjI1bC0xLjcwMzEyNSAwbDAgLTE3LjI1bDQuMTI1IDBsMCAyMi40MDYyNWwtMy40MjE4NzUgMGwtMTQuMDQ2ODc1IC0xNy4yNWwxLjcwMzEyNSAwbDAgMTcuMjVsLTQuMTI1IDB6bTMwLjQ1MTI5NCAwbDAgLTE4Ljg3NWwtNy40MjE4NzUgMGwwIC0zLjUzMTI1bDE5LjAxNTYyNSAwbDAgMy41MzEyNWwtNy40MjE4NzUgMGwwIDE4Ljg3NWwtNC4xNzE4NzUgMHptMjQuODk3MDk1IDAuMzEyNXEtMi42MjUgMCAtNC44MjgxMjUgLTAuODU5Mzc1cS0yLjIwMzEyNSAtMC44NTkzNzUgLTMuODQzNzUgLTIuNDA2MjVxLTEuNjI1IC0xLjU2MjUgLTIuNTMxMjUgLTMuNjU2MjVxLTAuODkwNjI1IC0yLjA5Mzc1IC0wLjg5MDYyNSAtNC41OTM3NXEwIC0yLjUgMC44OTA2MjUgLTQuNTkzNzVxMC45MDYyNSAtMi4wOTM3NSAyLjUzMTI1IC0zLjY0MDYyNXExLjY0MDYyNSAtMS41NDY4NzUgMy44NDM3NSAtMi40MDYyNXEyLjIwMzEyNSAtMC44NzUgNC43OTY4NzUgLTAuODc1cTIuNjI1IDAgNC44MTI1IDAuODc1cTIuMjAzMTI1IDAuODU5Mzc1IDMuODI4MTI1IDIuNDA2MjVxMS42NDA2MjUgMS41NDY4NzUgMi41MzEyNSAzLjY0MDYyNXEwLjg5MDYyNSAyLjA5Mzc1IDAuODkwNjI1IDQuNTkzNzVxMCAyLjUgLTAuODkwNjI1IDQuNjA5Mzc1cS0wLjg5MDYyNSAyLjEwOTM3NSAtMi41MzEyNSAzLjY1NjI1cS0xLjYyNSAxLjUzMTI1IC0zLjgyODEyNSAyLjM5MDYyNXEtMi4xODc1IDAuODU5Mzc1IC00Ljc4MTI1IDAuODU5Mzc1em0tMC4wMzEyNSAtMy42NDA2MjVxMS43MDMxMjUgMCAzLjE0MDYyNSAtMC41NzgxMjVxMS40Mzc1IC0wLjU3ODEyNSAyLjQ4NDM3NSAtMS42NDA2MjVxMS4wNjI1IC0xLjA3ODEyNSAxLjY1NjI1IC0yLjVxMC41OTM3NSAtMS40MjE4NzUgMC41OTM3NSAtMy4xNTYyNXEwIC0xLjcxODc1IC0wLjU5Mzc1IC0zLjE0MDYyNXEtMC41OTM3NSAtMS40Mzc1IC0xLjY1NjI1IC0yLjVxLTEuMDQ2ODc1IC0xLjA3ODEyNSAtMi40ODQzNzUgLTEuNjU2MjVxLTEuNDM3NSAtMC41NzgxMjUgLTMuMTQwNjI1IC0wLjU3ODEyNXEtMS42ODc1IDAgLTMuMTI1IDAuNTc4MTI1cS0xLjQyMTg3NSAwLjU3ODEyNSAtMi41IDEuNjU2MjVxLTEuMDYyNSAxLjA2MjUgLTEuNjU2MjUgMi41cS0wLjU5Mzc1IDEuNDIxODc1IC0wLjU5Mzc1IDMuMTQwNjI1cTAgMS43MDMxMjUgMC41OTM3NSAzLjE0MDYyNXEwLjU5Mzc1IDEuNDM3NSAxLjY0MDYyNSAyLjUxNTYyNXExLjA2MjUgMS4wNjI1IDIuNSAxLjY0MDYyNXExLjQ1MzEyNSAwLjU3ODEyNSAzLjE0MDYyNSAwLjU3ODEyNXptMjUuMzIyOTk4IDMuMzI4MTI1bDAgLTIyLjQwNjI1bDEwLjQ4NDM3NSAwcTQuMDMxMjUgMCA2LjE0MDYyNSAxLjU5Mzc1cTIuMTI1IDEuNTc4MTI1IDIuMTI1IDQuMjM0Mzc1cTAgMS43OTY4NzUgLTAuODQzNzUgMy4wNjI1cS0wLjgyODEyNSAxLjI2NTYyNSAtMi4yMTg3NSAxLjk1MzEyNXEtMS4zOTA2MjUgMC42ODc1IC0zLjAxNTYyNSAwLjY4NzVsMC41NjI1IC0xLjE1NjI1cTEuODkwNjI1IDAgMy4zOTA2MjUgMC42ODc1cTEuNTE1NjI1IDAuNjg3NSAyLjM5MDYyNSAyLjBxMC44NzUgMS4zMTI1IDAuODc1IDMuMjY1NjI1cTAgMi44NzUgLTIuMjAzMTI1IDQuNDg0Mzc1cS0yLjIwMzEyNSAxLjU5Mzc1IC02LjU2MjUgMS41OTM3NWwtMTEuMTI1IDB6bTQuMTU2MjUgLTMuMjY1NjI1bDYuNzE4NzUgMHEyLjMyODEyNSAwIDMuNTc4MTI1IC0wLjc2NTYyNXExLjI1IC0wLjc2NTYyNSAxLjI1IC0yLjQ2ODc1cTAgLTEuNjU2MjUgLTEuMjUgLTIuNDM3NXEtMS4yNSAtMC43OTY4NzUgLTMuNTc4MTI1IC0wLjc5Njg3NWwtNy4wNDY4NzUgMGwwIC0zLjIxODc1bDYuMjE4NzUgMHEyLjE3MTg3NSAwIDMuMzI4MTI1IC0wLjc2NTYyNXExLjE3MTg3NSAtMC43ODEyNSAxLjE3MTg3NSAtMi4zMTI1cTAgLTEuNTYyNSAtMS4xNzE4NzUgLTIuMzI4MTI1cS0xLjE1NjI1IC0wLjc4MTI1IC0zLjMyODEyNSAtMC43ODEyNWwtNS44OTA2MjUgMGwwIDE1Ljg3NXptMjcuODM2NDI2IDMuNDg0Mzc1cS0yLjg0Mzc1IDAgLTQuOTg0Mzc1IC0xLjEyNXEtMi4xMjUgLTEuMTQwNjI1IC0zLjI5Njg3NSAtMy4xMjVxLTEuMTU2MjUgLTEuOTg0Mzc1IC0xLjE1NjI1IC00LjUxNTYyNXEwIC0yLjU2MjUgMS4xMjUgLTQuNTMxMjVxMS4xNDA2MjUgLTEuOTY4NzUgMy4xNDA2MjUgLTMuMDc4MTI1cTIuMCAtMS4xMjUgNC41NjI1IC0xLjEyNXEyLjUgMCA0LjQ1MzEyNSAxLjA5Mzc1cTEuOTUzMTI1IDEuMDc4MTI1IDMuMDYyNSAzLjA2MjVxMS4xMjUgMS45ODQzNzUgMS4xMjUgNC42NzE4NzVxMCAwLjI2NTYyNSAtMC4wMTU2MjUgMC41OTM3NXEtMC4wMTU2MjUgMC4zMTI1IC0wLjA0Njg3NSAwLjU5Mzc1bC0xNC4yMzQzNzUgMGwwIC0yLjY1NjI1bDEyLjEyNSAwbC0xLjU3ODEyNSAwLjgyODEyNXEwLjAzMTI1IC0xLjQ2ODc1IC0wLjYwOTM3NSAtMi41NzgxMjVxLTAuNjI1IC0xLjEyNSAtMS43MzQzNzUgLTEuNzY1NjI1cS0xLjEwOTM3NSAtMC42NDA2MjUgLTIuNTQ2ODc1IC0wLjY0MDYyNXEtMS40Njg3NSAwIC0yLjU3ODEyNSAwLjY0MDYyNXEtMS4wOTM3NSAwLjY0MDYyNSAtMS43MTg3NSAxLjc4MTI1cS0wLjYyNSAxLjEyNSAtMC42MjUgMi42NzE4NzVsMCAwLjYyNXEwIDEuNTQ2ODc1IDAuNzAzMTI1IDIuNzM0Mzc1cTAuNzAzMTI1IDEuMTcxODc1IDEuOTg0Mzc1IDEuODEyNXExLjI4MTI1IDAuNjQwNjI1IDIuOTM3NSAwLjY0MDYyNXExLjQzNzUgMCAyLjU5Mzc1IC0wLjQzNzVxMS4xNTYyNSAtMC40NTMxMjUgMi4wNDY4NzUgLTEuNDIxODc1bDIuMTQwNjI1IDIuNDY4NzVxLTEuMTQwNjI1IDEuMzQzNzUgLTIuODkwNjI1IDIuMDYyNXEtMS43NSAwLjcxODc1IC0zLjk4NDM3NSAwLjcxODc1em0xNy4xNTQwNTMgMHEtMi4xNDA2MjUgMCAtNC4xMDkzNzUgLTAuNTQ2ODc1cS0xLjk2ODc1IC0wLjU2MjUgLTMuMTI1IC0xLjM3NWwxLjUzMTI1IC0zLjAzMTI1cTEuMTU2MjUgMC43MzQzNzUgMi43NSAxLjIxODc1cTEuNjA5Mzc1IDAuNDY4NzUgMy4yMDMxMjUgMC40Njg3NXExLjg5MDYyNSAwIDIuNzM0Mzc1IC0wLjVxMC44NTkzNzUgLTAuNTE1NjI1IDAuODU5Mzc1IC0xLjM3NXEwIC0wLjcwMzEyNSAtMC41NzgxMjUgLTEuMDc4MTI1cS0wLjU3ODEyNSAtMC4zNzUgLTEuNTE1NjI1IC0wLjU2MjVxLTAuOTIxODc1IC0wLjE4NzUgLTIuMDYyNSAtMC4zNDM3NXEtMS4xMjUgLTAuMTcxODc1IC0yLjI2NTYyNSAtMC40Mzc1cS0xLjE0MDYyNSAtMC4yNjU2MjUgLTIuMDYyNSAtMC43OTY4NzVxLTAuOTIxODc1IC0wLjUzMTI1IC0xLjUgLTEuNDIxODc1cS0wLjU3ODEyNSAtMC45MDYyNSAtMC41NzgxMjUgLTIuMzc1cTAgLTEuNjI1IDAuOTIxODc1IC0yLjgyODEyNXEwLjkzNzUgLTEuMjAzMTI1IDIuNjA5Mzc1IC0xLjg1OTM3NXExLjY4NzUgLTAuNjU2MjUgMy45ODQzNzUgLTAuNjU2MjVxMS43MzQzNzUgMCAzLjQ4NDM3NSAwLjM5MDYyNXExLjc2NTYyNSAwLjM3NSAyLjkyMTg3NSAxLjA3ODEyNWwtMS41NDY4NzUgMy4wNDY4NzVxLTEuMjAzMTI1IC0wLjczNDM3NSAtMi40Mzc1IC0xLjBxLTEuMjM0Mzc1IC0wLjI4MTI1IC0yLjQ1MzEyNSAtMC4yODEyNXEtMS44MjgxMjUgMCAtMi43MDMxMjUgMC41NDY4NzVxLTAuODc1IDAuNTQ2ODc1IC0wLjg3NSAxLjM3NXEwIDAuNzY1NjI1IDAuNTYyNSAxLjE1NjI1cTAuNTc4MTI1IDAuMzc1IDEuNSAwLjYwOTM3NXEwLjkzNzUgMC4yMTg3NSAyLjA3ODEyNSAwLjM1OTM3NXExLjE0MDYyNSAwLjE0MDYyNSAyLjI1IDAuNDM3NXExLjEyNSAwLjI4MTI1IDIuMDYyNSAwLjc4MTI1cTAuOTUzMTI1IDAuNSAxLjUxNTYyNSAxLjM5MDYyNXEwLjU3ODEyNSAwLjg5MDYyNSAwLjU3ODEyNSAyLjMyODEyNXEwIDEuNjA5Mzc1IC0wLjkzNzUgMi43OTY4NzVxLTAuOTM3NSAxLjE3MTg3NSAtMi42NzE4NzUgMS44MjgxMjVxLTEuNzM0Mzc1IDAuNjU2MjUgLTQuMTI1IDAuNjU2MjV6bTE3LjYzNjIzIDBxLTIuODI4MTI1IDAgLTQuMzU5Mzc1IC0xLjQ1MzEyNXEtMS41MzEyNSAtMS40NTMxMjUgLTEuNTMxMjUgLTQuMjk2ODc1bDAgLTE1LjMyODEyNWw0LjAgMGwwIDE1LjIzNDM3NXEwIDEuMjAzMTI1IDAuNjI1IDEuODc1cTAuNjI1IDAuNjcxODc1IDEuNzM0Mzc1IDAuNjcxODc1cTEuMzQzNzUgMCAyLjI1IC0wLjcwMzEyNWwxLjEwOTM3NSAyLjg1OTM3NXEtMC43MDMxMjUgMC41NjI1IC0xLjczNDM3NSAwLjg1OTM3NXEtMS4wMTU2MjUgMC4yODEyNSAtMi4wOTM3NSAwLjI4MTI1em0tOC43MDMxMjUgLTEzLjk4NDM3NWwwIC0zLjE4NzVsMTEuMzkwNjI1IDBsMCAzLjE4NzVsLTExLjM5MDYyNSAwem0yMS4xMTQ4NjggMTMuOTg0Mzc1cS0yLjE0MDYyNSAwIC00LjEwOTM3NSAtMC41NDY4NzVxLTEuOTY4NzUgLTAuNTYyNSAtMy4xMjUgLTEuMzc1bDEuNTMxMjUgLTMuMDMxMjVxMS4xNTYyNSAwLjczNDM3NSAyLjc1IDEuMjE4NzVxMS42MDkzNzUgMC40Njg3NSAzLjIwMzEyNSAwLjQ2ODc1cTEuODkwNjI1IDAgMi43MzQzNzUgLTAuNXEwLjg1OTM3NSAtMC41MTU2MjUgMC44NTkzNzUgLTEuMzc1cTAgLTAuNzAzMTI1IC0wLjU3ODEyNSAtMS4wNzgxMjVxLTAuNTc4MTI1IC0wLjM3NSAtMS41MTU2MjUgLTAuNTYyNXEtMC45MjE4NzUgLTAuMTg3NSAtMi4wNjI1IC0wLjM0Mzc1cS0xLjEyNSAtMC4xNzE4NzUgLTIuMjY1NjI1IC0wLjQzNzVxLTEuMTQwNjI1IC0wLjI2NTYyNSAtMi4wNjI1IC0wLjc5Njg3NXEtMC45MjE4NzUgLTAuNTMxMjUgLTEuNSAtMS40MjE4NzVxLTAuNTc4MTI1IC0wLjkwNjI1IC0wLjU3ODEyNSAtMi4zNzVxMCAtMS42MjUgMC45MjE4NzUgLTIuODI4MTI1cTAuOTM3NSAtMS4yMDMxMjUgMi42MDkzNzUgLTEuODU5Mzc1cTEuNjg3NSAtMC42NTYyNSAzLjk4NDM3NSAtMC42NTYyNXExLjczNDM3NSAwIDMuNDg0Mzc1IDAuMzkwNjI1cTEuNzY1NjI1IDAuMzc1IDIuOTIxODc1IDEuMDc4MTI1bC0xLjU0Njg3NSAzLjA0Njg3NXEtMS4yMDMxMjUgLTAuNzM0Mzc1IC0yLjQzNzUgLTEuMHEtMS4yMzQzNzUgLTAuMjgxMjUgLTIuNDUzMTI1IC0wLjI4MTI1cS0xLjgyODEyNSAwIC0yLjcwMzEyNSAwLjU0Njg3NXEtMC44NzUgMC41NDY4NzUgLTAuODc1IDEuMzc1cTAgMC43NjU2MjUgMC41NjI1IDEuMTU2MjVxMC41NzgxMjUgMC4zNzUgMS41IDAuNjA5Mzc1cTAuOTM3NSAwLjIxODc1IDIuMDc4MTI1IDAuMzU5Mzc1cTEuMTQwNjI1IDAuMTQwNjI1IDIuMjUgMC40Mzc1cTEuMTI1IDAuMjgxMjUgMi4wNjI1IDAuNzgxMjVxMC45NTMxMjUgMC41IDEuNTE1NjI1IDEuMzkwNjI1cTAuNTc4MTI1IDAuODkwNjI1IDAuNTc4MTI1IDIuMzI4MTI1cTAgMS42MDkzNzUgLTAuOTM3NSAyLjc5Njg3NXEtMC45Mzc1IDEuMTcxODc1IC0yLjY3MTg3NSAxLjgyODEyNXEtMS43MzQzNzUgMC42NTYyNSAtNC4xMjUgMC42NTYyNXptMTkuMjMwMTAzIDBxLTIuODQzNzUgMCAtNC45ODQzNzUgLTEuMTI1cS0yLjEyNSAtMS4xNDA2MjUgLTMuMjk2ODc1IC0zLjEyNXEtMS4xNTYyNSAtMS45ODQzNzUgLTEuMTU2MjUgLTQuNTE1NjI1cTAgLTIuNTYyNSAxLjEyNSAtNC41MzEyNXExLjE0MDYyNSAtMS45Njg3NSAzLjE0MDYyNSAtMy4wNzgxMjVxMi4wIC0xLjEyNSA0LjU2MjUgLTEuMTI1cTIuNSAwIDQuNDUzMTI1IDEuMDkzNzVxMS45NTMxMjUgMS4wNzgxMjUgMy4wNjI1IDMuMDYyNXExLjEyNSAxLjk4NDM3NSAxLjEyNSA0LjY3MTg3NXEwIDAuMjY1NjI1IC0wLjAxNTYyNSAwLjU5Mzc1cS0wLjAxNTYyNSAwLjMxMjUgLTAuMDQ2ODc1IDAuNTkzNzVsLTE0LjIzNDM3NSAwbDAgLTIuNjU2MjVsMTIuMTI1IDBsLTEuNTc4MTI1IDAuODI4MTI1cTAuMDMxMjUgLTEuNDY4NzUgLTAuNjA5Mzc1IC0yLjU3ODEyNXEtMC42MjUgLTEuMTI1IC0xLjczNDM3NSAtMS43NjU2MjVxLTEuMTA5Mzc1IC0wLjY0MDYyNSAtMi41NDY4NzUgLTAuNjQwNjI1cS0xLjQ2ODc1IDAgLTIuNTc4MTI1IDAuNjQwNjI1cS0xLjA5Mzc1IDAuNjQwNjI1IC0xLjcxODc1IDEuNzgxMjVxLTAuNjI1IDEuMTI1IC0wLjYyNSAyLjY3MTg3NWwwIDAuNjI1cTAgMS41NDY4NzUgMC43MDMxMjUgMi43MzQzNzVxMC43MDMxMjUgMS4xNzE4NzUgMS45ODQzNzUgMS44MTI1cTEuMjgxMjUgMC42NDA2MjUgMi45Mzc1IDAuNjQwNjI1cTEuNDM3NSAwIDIuNTkzNzUgLTAuNDM3NXExLjE1NjI1IC0wLjQ1MzEyNSAyLjA0Njg3NSAtMS40MjE4NzVsMi4xNDA2MjUgMi40Njg3NXEtMS4xNDA2MjUgMS4zNDM3NSAtMi44OTA2MjUgMi4wNjI1cS0xLjc1IDAuNzE4NzUgLTMuOTg0Mzc1IDAuNzE4NzV6bTExLjg3MjgwMyAtMC4yMTg3NWwwIC0yMy43NWw0LjAgMGwwIDIzLjc1bC00LjAgMHptOS4yNDc5MjUgMGwwIC0yMy43NWw0LjAgMGwwIDIzLjc1bC00LjAgMHptMTcuMjc5Mjk3IDAuMjE4NzVxLTIuODQzNzUgMCAtNC45ODQzNzUgLTEuMTI1cS0yLjEyNSAtMS4xNDA2MjUgLTMuMjk2ODc1IC0zLjEyNXEtMS4xNTYyNSAtMS45ODQzNzUgLTEuMTU2MjUgLTQuNTE1NjI1cTAgLTIuNTYyNSAxLjEyNSAtNC41MzEyNXExLjE0MDYyNSAtMS45Njg3NSAzLjE0MDYyNSAtMy4wNzgxMjVxMi4wIC0xLjEyNSA0LjU2MjUgLTEuMTI1cTIuNSAwIDQuNDUzMTI1IDEuMDkzNzVxMS45NTMxMjUgMS4wNzgxMjUgMy4wNjI1IDMuMDYyNXExLjEyNSAxLjk4NDM3NSAxLjEyNSA0LjY3MTg3NXEwIDAuMjY1NjI1IC0wLjAxNTYyNSAwLjU5Mzc1cS0wLjAxNTYyNSAwLjMxMjUgLTAuMDQ2ODc1IDAuNTkzNzVsLTE0LjIzNDM3NSAwbDAgLTIuNjU2MjVsMTIuMTI1IDBsLTEuNTc4MTI1IDAuODI4MTI1cTAuMDMxMjUgLTEuNDY4NzUgLTAuNjA5Mzc1IC0yLjU3ODEyNXEtMC42MjUgLTEuMTI1IC0xLjczNDM3NSAtMS43NjU2MjVxLTEuMTA5Mzc1IC0wLjY0MDYyNSAtMi41NDY4NzUgLTAuNjQwNjI1cS0xLjQ2ODc1IDAgLTIuNTc4MTI1IDAuNjQwNjI1cS0xLjA5Mzc1IDAuNjQwNjI1IC0xLjcxODc1IDEuNzgxMjVxLTAuNjI1IDEuMTI1IC0wLjYyNSAyLjY3MTg3NWwwIDAuNjI1cTAgMS41NDY4NzUgMC43MDMxMjUgMi43MzQzNzVxMC43MDMxMjUgMS4xNzE4NzUgMS45ODQzNzUgMS44MTI1cTEuMjgxMjUgMC42NDA2MjUgMi45Mzc1IDAuNjQwNjI1cTEuNDM3NSAwIDIuNTkzNzUgLTAuNDM3NXExLjE1NjI1IC0wLjQ1MzEyNSAyLjA0Njg3NSAtMS40MjE4NzVsMi4xNDA2MjUgMi40Njg3NXEtMS4xNDA2MjUgMS4zNDM3NSAtMi44OTA2MjUgMi4wNjI1cS0xLjc1IDAuNzE4NzUgLTMuOTg0Mzc1IDAuNzE4NzV6bTExLjg3MjgwMyAtMC4yMTg3NWwwIC0xNy4wOTM3NWwzLjgxMjUgMGwwIDQuNzAzMTI1bC0wLjQ1MzEyNSAtMS4zNzVxMC43NjU2MjUgLTEuNzE4NzUgMi40MDYyNSAtMi42MDkzNzVxMS42NTYyNSAtMC45MDYyNSA0LjEyNSAtMC45MDYyNWwwIDMuODEyNXEtMC4yNjU2MjUgLTAuMDYyNSAtMC40ODQzNzUgLTAuMDc4MTI1cS0wLjIxODc1IC0wLjAxNTYyNSAtMC40NTMxMjUgLTAuMDE1NjI1cS0yLjI2NTYyNSAwIC0zLjYwOTM3NSAxLjMyODEyNXEtMS4zNDM3NSAxLjMyODEyNSAtMS4zNDM3NSAzLjk1MzEyNWwwIDguMjgxMjVsLTQuMCAwem0xOC43MjEzMTMgMC4yMTg3NXEtMi4xNDA2MjUgMCAtNC4xMDkzNzUgLTAuNTQ2ODc1cS0xLjk2ODc1IC0wLjU2MjUgLTMuMTI1IC0xLjM3NWwxLjUzMTI1IC0zLjAzMTI1cTEuMTU2MjUgMC43MzQzNzUgMi43NSAxLjIxODc1cTEuNjA5Mzc1IDAuNDY4NzUgMy4yMDMxMjUgMC40Njg3NXExLjg5MDYyNSAwIDIuNzM0Mzc1IC0wLjVxMC44NTkzNzUgLTAuNTE1NjI1IDAuODU5Mzc1IC0xLjM3NXEwIC0wLjcwMzEyNSAtMC41NzgxMjUgLTEuMDc4MTI1cS0wLjU3ODEyNSAtMC4zNzUgLTEuNTE1NjI1IC0wLjU2MjVxLTAuOTIxODc1IC0wLjE4NzUgLTIuMDYyNSAtMC4zNDM3NXEtMS4xMjUgLTAuMTcxODc1IC0yLjI2NTYyNSAtMC40Mzc1cS0xLjE0MDYyNSAtMC4yNjU2MjUgLTIuMDYyNSAtMC43OTY4NzVxLTAuOTIxODc1IC0wLjUzMTI1IC0xLjUgLTEuNDIxODc1cS0wLjU3ODEyNSAtMC45MDYyNSAtMC41NzgxMjUgLTIuMzc1cTAgLTEuNjI1IDAuOTIxODc1IC0yLjgyODEyNXEwLjkzNzUgLTEuMjAzMTI1IDIuNjA5Mzc1IC0xLjg1OTM3NXExLjY4NzUgLTAuNjU2MjUgMy45ODQzNzUgLTAuNjU2MjVxMS43MzQzNzUgMCAzLjQ4NDM3NSAwLjM5MDYyNXExLjc2NTYyNSAwLjM3NSAyLjkyMTg3NSAxLjA3ODEyNWwtMS41NDY4NzUgMy4wNDY4NzVxLTEuMjAzMTI1IC0wLjczNDM3NSAtMi40Mzc1IC0xLjBxLTEuMjM0Mzc1IC0wLjI4MTI1IC0yLjQ1MzEyNSAtMC4yODEyNXEtMS44MjgxMjUgMCAtMi43MDMxMjUgMC41NDY4NzVxLTAuODc1IDAuNTQ2ODc1IC0wLjg3NSAxLjM3NXEwIDAuNzY1NjI1IDAuNTYyNSAxLjE1NjI1cTAuNTc4MTI1IDAuMzc1IDEuNSAwLjYwOTM3NXEwLjkzNzUgMC4yMTg3NSAyLjA3ODEyNSAwLjM1OTM3NXExLjE0MDYyNSAwLjE0MDYyNSAyLjI1IDAuNDM3NXExLjEyNSAwLjI4MTI1IDIuMDYyNSAwLjc4MTI1cTAuOTUzMTI1IDAuNSAxLjUxNTYyNSAxLjM5MDYyNXEwLjU3ODEyNSAwLjg5MDYyNSAwLjU3ODEyNSAyLjMyODEyNXEwIDEuNjA5Mzc1IC0wLjkzNzUgMi43OTY4NzVxLTAuOTM3NSAxLjE3MTg3NSAtMi42NzE4NzUgMS44MjgxMjVxLTEuNzM0Mzc1IDAuNjU2MjUgLTQuMTI1IDAuNjU2MjV6IiBmaWxsPSIjZmZmZmZmIi8+PHBhdGggZmlsbC1ydWxlPSJub256ZXJvIiBkPSJtMTAzMS40Mzg3IDc3Ny43MzY5NHEtMi42MjUgMCAtNS4wMzEyNSAtMC43NXEtMi4zOTA2MjUgLTAuNzUgLTMuNzk2OTM2IC0xLjkzNzVsMS40Mzc1NjEgLTMuMjE4NzVxMS4zNDM3NSAxLjA0Njg3NSAzLjMyODEyNSAxLjc1cTEuOTg0Mzc1IDAuNzAzMTI1IDQuMDYyNSAwLjcwMzEyNXExLjc2NTYyNSAwIDIuODQzNzUgLTAuMzc1cTEuMDkzNzUgLTAuMzkwNjI1IDEuNTkzNzUgLTEuMDQ2ODc1cTAuNTE1NjI1IC0wLjY1NjI1IDAuNTE1NjI1IC0xLjQ4NDM3NXEwIC0xLjAzMTI1IC0wLjczNDM3NSAtMS42NDA2MjVxLTAuNzM0Mzc1IC0wLjYyNSAtMS45MDYyNSAtMS4wcS0xLjE1NjI1IC0wLjM3NSAtMi41OTM3NSAtMC42ODc1cS0xLjQyMTg3NSAtMC4zMjgxMjUgLTIuODQzNzUgLTAuNzVxLTEuNDIxODc1IC0wLjQzNzUgLTIuNTkzNzUgLTEuMTI1cS0xLjE1NjI1IC0wLjY4NzUgLTEuOTA2MzExIC0xLjgyODEyNXEtMC43MzQzNzUgLTEuMTU2MjUgLTAuNzM0Mzc1IC0yLjk1MzEyNXEwIC0xLjgyODEyNSAwLjk2ODgxMTA0IC0zLjM0Mzc1cTAuOTg0Mzc1IC0xLjUxNTYyNSAyLjk4NDM3NSAtMi40MjE4NzVxMi4wIC0wLjkyMTg3NSA1LjA3ODEyNSAtMC45MjE4NzVxMi4wMTU2MjUgMCA0LjAgMC41MTU2MjVxMS45ODQzNzUgMC41IDMuNDUzMTI1IDEuNDY4NzVsLTEuMzEyNSAzLjIzNDM3NXEtMS41IC0wLjkwNjI1IC0zLjEwOTM3NSAtMS4zMjgxMjVxLTEuNTkzNzUgLTAuNDM3NSAtMy4wNjI1IC0wLjQzNzVxLTEuNzM0Mzc1IDAgLTIuODEyNSAwLjQyMTg3NXEtMS4wNjI1IDAuNDA2MjUgLTEuNTYyNSAxLjA3ODEyNXEtMC40ODQzNzUgMC42NzE4NzUgLTAuNDg0Mzc1IDEuNTQ2ODc1cTAgMS4wMTU2MjUgMC43MTg3NSAxLjY0MDYyNXEwLjcxODc1IDAuNjI1IDEuODc1IDAuOTg0Mzc1cTEuMTcxODc1IDAuMzQzNzUgMi42MDkzNzUgMC42ODc1cTEuNDUzMTI1IDAuMzI4MTI1IDIuODc1IDAuNzVxMS40MjE4NzUgMC40MDYyNSAyLjU3ODEyNSAxLjA3ODEyNXExLjE3MTg3NSAwLjY3MTg3NSAxLjg5MDYyNSAxLjgyODEyNXEwLjczNDM3NSAxLjE1NjI1IDAuNzM0Mzc1IDIuOTA2MjVxMCAxLjc5Njg3NSAtMC45ODQzNzUgMy4zMjgxMjVxLTAuOTY4NzUgMS41MTU2MjUgLTIuOTg0Mzc1IDIuNDIxODc1cS0yLjAxNTYyNSAwLjkwNjI1IC01LjA5Mzc1IDAuOTA2MjV6bTE3LjAxODY3NyAtMTMuNDA2MjVsMTEuMTQwNjI1IDBsMCAzLjQzNzVsLTExLjE0MDYyNSAwbDAgLTMuNDM3NXptMC4zMjgxMjUgOS42MDkzNzVsMTIuNjQwNjI1IDBsMCAzLjQ4NDM3NWwtMTYuNzk2ODc1IDBsMCAtMjIuNDA2MjVsMTYuMzQzNzUgMGwwIDMuNWwtMTIuMTg3NSAwbDAgMTUuNDIxODc1em0xNy4yODM2OTEgMy40ODQzNzVsMCAtMjIuNDA2MjVsNC4xNTYyNSAwbDAgMTguODkwNjI1bDExLjcwMzEyNSAwbDAgMy41MTU2MjVsLTE1Ljg1OTM3NSAwem0yMi45OTYyMTYgLTEzLjA5Mzc1bDExLjE0MDYyNSAwbDAgMy40Mzc1bC0xMS4xNDA2MjUgMGwwIC0zLjQzNzV6bTAuMzI4MTI1IDkuNjA5Mzc1bDEyLjY0MDYyNSAwbDAgMy40ODQzNzVsLTE2Ljc5Njg3NSAwbDAgLTIyLjQwNjI1bDE2LjM0Mzc1IDBsMCAzLjVsLTEyLjE4NzUgMGwwIDE1LjQyMTg3NXptMjcuNjQzMTg4IDMuNzk2ODc1cS0yLjU2MjUgMCAtNC43NSAtMC44NDM3NXEtMi4xODc1IC0wLjg0Mzc1IC0zLjgxMjUgLTIuMzkwNjI1cS0xLjYwOTM3NSAtMS41NjI1IC0yLjUxNTYyNSAtMy42NzE4NzVxLTAuODkwNjI1IC0yLjEwOTM3NSAtMC44OTA2MjUgLTQuNjA5Mzc1cTAgLTIuNSAwLjg5MDYyNSAtNC42MDkzNzVxMC45MDYyNSAtMi4xMDkzNzUgMi41MzEyNSAtMy42NTYyNXExLjY0MDYyNSAtMS41NjI1IDMuODEyNSAtMi40MDYyNXEyLjE3MTg3NSAtMC44NDM3NSA0Ljc2NTYyNSAtMC44NDM3NXEyLjc1IDAgNS4wMTU2MjUgMC45NTMxMjVxMi4yODEyNSAwLjkzNzUgMy44NDM3NSAyLjc5Njg3NWwtMi42ODc1IDIuNTE1NjI1cS0xLjIwMzEyNSAtMS4zMTI1IC0yLjcxODc1IC0xLjk2ODc1cS0xLjUgLTAuNjU2MjUgLTMuMjY1NjI1IC0wLjY1NjI1cS0xLjc1IDAgLTMuMjE4NzUgMC41NzgxMjVxLTEuNDUzMTI1IDAuNTc4MTI1IC0yLjUzMTI1IDEuNjQwNjI1cS0xLjA2MjUgMS4wNDY4NzUgLTEuNjU2MjUgMi41cS0wLjU5Mzc1IDEuNDM3NSAtMC41OTM3NSAzLjE1NjI1cTAgMS43MzQzNzUgMC41OTM3NSAzLjE3MTg3NXEwLjU5Mzc1IDEuNDM3NSAxLjY1NjI1IDIuNXExLjA3ODEyNSAxLjA0Njg3NSAyLjUzMTI1IDEuNjI1cTEuNDY4NzUgMC41NzgxMjUgMy4yMTg3NSAwLjU3ODEyNXExLjc2NTYyNSAwIDMuMjY1NjI1IC0wLjY1NjI1cTEuNTE1NjI1IC0wLjY1NjI1IDIuNzE4NzUgLTIuMGwyLjY4NzUgMi41NjI1cS0xLjU2MjUgMS44MjgxMjUgLTMuODQzNzUgMi43ODEyNXEtMi4yNjU2MjUgMC45NTMxMjUgLTUuMDQ2ODc1IDAuOTUzMTI1em0xNy4xNzk5MzIgLTAuMzEyNWwwIC0xOC44NzVsLTcuNDIxODc1IDBsMCAtMy41MzEyNWwxOS4wMTU2MjUgMGwwIDMuNTMxMjVsLTcuNDIxODc1IDBsMCAxOC44NzVsLTQuMTcxODc1IDB6bTIzLjE3NDE5NCAwbDAgLTE3LjA5Mzc1bDQuMCAwbDAgMTcuMDkzNzVsLTQuMCAwem0yLjAxNTYyNSAtMTkuOTA2MjVxLTEuMTA5Mzc1IDAgLTEuODI4MTI1IC0wLjcwMzEyNXEtMC43MTg3NSAtMC43MDMxMjUgLTAuNzE4NzUgLTEuNjg3NXEwIC0xLjAzMTI1IDAuNzE4NzUgLTEuNzE4NzVxMC43MTg3NSAtMC42ODc1IDEuODI4MTI1IC0wLjY4NzVxMS4xMjUgMCAxLjg0Mzc1IDAuNjU2MjVxMC43MTg3NSAwLjY1NjI1IDAuNzE4NzUgMS42NDA2MjVxMCAxLjA2MjUgLTAuNzAzMTI1IDEuNzgxMjVxLTAuNzAzMTI1IDAuNzE4NzUgLTEuODU5Mzc1IDAuNzE4NzV6bTEzLjY2OTkyMiAyMC4xMjVxLTIuODI4MTI1IDAgLTQuMzU5Mzc1IC0xLjQ1MzEyNXEtMS41MzEyNSAtMS40NTMxMjUgLTEuNTMxMjUgLTQuMjk2ODc1bDAgLTE1LjMyODEyNWw0LjAgMGwwIDE1LjIzNDM3NXEwIDEuMjAzMTI1IDAuNjI1IDEuODc1cTAuNjI1IDAuNjcxODc1IDEuNzM0Mzc1IDAuNjcxODc1cTEuMzQzNzUgMCAyLjI1IC0wLjcwMzEyNWwxLjEwOTM3NSAyLjg1OTM3NXEtMC43MDMxMjUgMC41NjI1IC0xLjczNDM3NSAwLjg1OTM3NXEtMS4wMTU2MjUgMC4yODEyNSAtMi4wOTM3NSAwLjI4MTI1em0tOC43MDMxMjUgLTEzLjk4NDM3NWwwIC0zLjE4NzVsMTEuMzkwNjI1IDBsMCAzLjE4NzVsLTExLjM5MDYyNSAwem0yMy4yODg4MTggMTMuOTg0Mzc1cS0yLjg0Mzc1IDAgLTQuOTg0Mzc1IC0xLjEyNXEtMi4xMjUgLTEuMTQwNjI1IC0zLjI5Njg3NSAtMy4xMjVxLTEuMTU2MjUgLTEuOTg0Mzc1IC0xLjE1NjI1IC00LjUxNTYyNXEwIC0yLjU2MjUgMS4xMjUgLTQuNTMxMjVxMS4xNDA2MjUgLTEuOTY4NzUgMy4xNDA2MjUgLTMuMDc4MTI1cTIuMCAtMS4xMjUgNC41NjI1IC0xLjEyNXEyLjUgMCA0LjQ1MzEyNSAxLjA5Mzc1cTEuOTUzMTI1IDEuMDc4MTI1IDMuMDYyNSAzLjA2MjVxMS4xMjUgMS45ODQzNzUgMS4xMjUgNC42NzE4NzVxMCAwLjI2NTYyNSAtMC4wMTU2MjUgMC41OTM3NXEtMC4wMTU2MjUgMC4zMTI1IC0wLjA0Njg3NSAwLjU5Mzc1bC0xNC4yMzQzNzUgMGwwIC0yLjY1NjI1bDEyLjEyNSAwbC0xLjU3ODEyNSAwLjgyODEyNXEwLjAzMTI1IC0xLjQ2ODc1IC0wLjYwOTM3NSAtMi41NzgxMjVxLTAuNjI1IC0xLjEyNSAtMS43MzQzNzUgLTEuNzY1NjI1cS0xLjEwOTM3NSAtMC42NDA2MjUgLTIuNTQ2ODc1IC0wLjY0MDYyNXEtMS40Njg3NSAwIC0yLjU3ODEyNSAwLjY0MDYyNXEtMS4wOTM3NSAwLjY0MDYyNSAtMS43MTg3NSAxLjc4MTI1cS0wLjYyNSAxLjEyNSAtMC42MjUgMi42NzE4NzVsMCAwLjYyNXEwIDEuNTQ2ODc1IDAuNzAzMTI1IDIuNzM0Mzc1cTAuNzAzMTI1IDEuMTcxODc1IDEuOTg0Mzc1IDEuODEyNXExLjI4MTI1IDAuNjQwNjI1IDIuOTM3NSAwLjY0MDYyNXExLjQzNzUgMCAyLjU5Mzc1IC0wLjQzNzVxMS4xNTYyNSAtMC40NTMxMjUgMi4wNDY4NzUgLTEuNDIxODc1bDIuMTQwNjI1IDIuNDY4NzVxLTEuMTQwNjI1IDEuMzQzNzUgLTIuODkwNjI1IDIuMDYyNXEtMS43NSAwLjcxODc1IC0zLjk4NDM3NSAwLjcxODc1em0zMy40MzUzMDMgLTE3LjVxMi4wNDY4NzUgMCAzLjYyNSAwLjc5Njg3NXExLjU5Mzc1IDAuNzk2ODc1IDIuNDg0Mzc1IDIuNDUzMTI1cTAuOTA2MjUgMS42NDA2MjUgMC45MDYyNSA0LjIzNDM3NWwwIDkuNzk2ODc1bC00LjAgMGwwIC05LjI4MTI1cTAgLTIuMjY1NjI1IC0xLjAgLTMuMzkwNjI1cS0wLjk4NDM3NSAtMS4xMjUgLTIuODQzNzUgLTEuMTI1cS0xLjMxMjUgMCAtMi4zMjgxMjUgMC41NzgxMjVxLTEuMCAwLjU3ODEyNSAtMS41NjI1IDEuNzAzMTI1cS0wLjU2MjUgMS4xMDkzNzUgLTAuNTYyNSAyLjg0Mzc1bDAgOC42NzE4NzVsLTQuMCAwbDAgLTkuMjgxMjVxMCAtMi4yNjU2MjUgLTEuMCAtMy4zOTA2MjVxLTAuOTg0Mzc1IC0xLjEyNSAtMi44MjgxMjUgLTEuMTI1cS0xLjMxMjUgMCAtMi4zMjgxMjUgMC41NzgxMjVxLTEuMCAwLjU3ODEyNSAtMS41NjI1IDEuNzAzMTI1cS0wLjU2MjUgMS4xMDkzNzUgLTAuNTYyNSAyLjg0Mzc1bDAgOC42NzE4NzVsLTQuMCAwbDAgLTE3LjA5Mzc1bDMuODEyNSAwbDAgNC41NDY4NzVsLTAuNjcxODc1IC0xLjM0Mzc1cTAuODU5Mzc1IC0xLjY1NjI1IDIuNSAtMi41MTU2MjVxMS42NTYyNSAtMC44NzUgMy43NjU2MjUgLTAuODc1cTIuNDA2MjUgMCA0LjE3MTg3NSAxLjE4NzVxMS43ODEyNSAxLjE4NzUgMi4zNTkzNzUgMy41NzgxMjVsLTEuNTc4MTI1IC0wLjU0Njg3NXEwLjg0Mzc1IC0xLjkwNjI1IDIuNzUgLTMuMDYyNXExLjkyMTg3NSAtMS4xNTYyNSA0LjQ1MzEyNSAtMS4xNTYyNXptMTEuMDcxMDQ1IDIyLjEwOTM3NWwxLjg1OTM3NSAtNy4wNjI1bDAuNTQ2ODc1IDIuMzU5Mzc1cS0xLjEyNSAwIC0xLjg3NSAtMC42ODc1cS0wLjc1IC0wLjY4NzUgLTAuNzUgLTEuODc1cTAgLTEuMjAzMTI1IDAuNzUgLTEuOTIxODc1cTAuNzUgLTAuNzM0Mzc1IDEuODQzNzUgLTAuNzM0Mzc1cTEuMTI1IDAgMS44NTkzNzUgMC43NXEwLjczNDM3NSAwLjczNDM3NSAwLjczNDM3NSAxLjkwNjI1cTAgMC4zMjgxMjUgLTAuMDYyNSAwLjcwMzEyNXEtMC4wNjI1IDAuMzU5Mzc1IC0wLjIxODc1IDAuODQzNzVxLTAuMTQwNjI1IDAuNDY4NzUgLTAuNDUzMTI1IDEuMjAzMTI1bC0xLjY0MDYyNSA0LjUxNTYyNWwtMi41OTM3NSAwem0yNS4wMzA2NCAtNC41MTU2MjVxLTIuNjI1IDAgLTUuMDMxMjUgLTAuNzVxLTIuMzkwNjI1IC0wLjc1IC0zLjc5Njg3NSAtMS45Mzc1bDEuNDM3NSAtMy4yMTg3NXExLjM0Mzc1IDEuMDQ2ODc1IDMuMzI4MTI1IDEuNzVxMS45ODQzNzUgMC43MDMxMjUgNC4wNjI1IDAuNzAzMTI1cTEuNzY1NjI1IDAgMi44NDM3NSAtMC4zNzVxMS4wOTM3NSAtMC4zOTA2MjUgMS41OTM3NSAtMS4wNDY4NzVxMC41MTU2MjUgLTAuNjU2MjUgMC41MTU2MjUgLTEuNDg0Mzc1cTAgLTEuMDMxMjUgLTAuNzM0Mzc1IC0xLjY0MDYyNXEtMC43MzQzNzUgLTAuNjI1IC0xLjkwNjI1IC0xLjBxLTEuMTU2MjUgLTAuMzc1IC0yLjU5Mzc1IC0wLjY4NzVxLTEuNDIxODc1IC0wLjMyODEyNSAtMi44NDM3NSAtMC43NXEtMS40MjE4NzUgLTAuNDM3NSAtMi41OTM3NSAtMS4xMjVxLTEuMTU2MjUgLTAuNjg3NSAtMS45MDYyNSAtMS44MjgxMjVxLTAuNzM0Mzc1IC0xLjE1NjI1IC0wLjczNDM3NSAtMi45NTMxMjVxMCAtMS44MjgxMjUgMC45Njg3NSAtMy4zNDM3NXEwLjk4NDM3NSAtMS41MTU2MjUgMi45ODQzNzUgLTIuNDIxODc1cTIuMCAtMC45MjE4NzUgNS4wNzgxMjUgLTAuOTIxODc1cTIuMDE1NjI1IDAgNC4wIDAuNTE1NjI1cTEuOTg0Mzc1IDAuNSAzLjQ1MzEyNSAxLjQ2ODc1bC0xLjMxMjUgMy4yMzQzNzVxLTEuNSAtMC45MDYyNSAtMy4xMDkzNzUgLTEuMzI4MTI1cS0xLjU5Mzc1IC0wLjQzNzUgLTMuMDYyNSAtMC40Mzc1cS0xLjczNDM3NSAwIC0yLjgxMjUgMC40MjE4NzVxLTEuMDYyNSAwLjQwNjI1IC0xLjU2MjUgMS4wNzgxMjVxLTAuNDg0Mzc1IDAuNjcxODc1IC0wLjQ4NDM3NSAxLjU0Njg3NXEwIDEuMDE1NjI1IDAuNzE4NzUgMS42NDA2MjVxMC43MTg3NSAwLjYyNSAxLjg3NSAwLjk4NDM3NXExLjE3MTg3NSAwLjM0Mzc1IDIuNjA5Mzc1IDAuNjg3NXExLjQ1MzEyNSAwLjMyODEyNSAyLjg3NSAwLjc1cTEuNDIxODc1IDAuNDA2MjUgMi41NzgxMjUgMS4wNzgxMjVxMS4xNzE4NzUgMC42NzE4NzUgMS44OTA2MjUgMS44MjgxMjVxMC43MzQzNzUgMS4xNTYyNSAwLjczNDM3NSAyLjkwNjI1cTAgMS43OTY4NzUgLTAuOTg0Mzc1IDMuMzI4MTI1cS0wLjk2ODc1IDEuNTE1NjI1IC0yLjk4NDM3NSAyLjQyMTg3NXEtMi4wMTU2MjUgMC45MDYyNSAtNS4wOTM3NSAwLjkwNjI1em0yMi44MTU1NTIgMHEtNC42MDkzNzUgMCAtNy4yMTg3NSAtMi41NzgxMjVxLTIuNjA5Mzc1IC0yLjU5Mzc1IC0yLjYwOTM3NSAtNy41bDAgLTEyLjY0MDYyNWw0LjE1NjI1IDBsMCAxMi40ODQzNzVxMCAzLjQ1MzEyNSAxLjQ4NDM3NSA1LjAzMTI1cTEuNSAxLjU2MjUgNC4yMTg3NSAxLjU2MjVxMi43MTg3NSAwIDQuMTg3NSAtMS41NjI1cTEuNDg0Mzc1IC0xLjU3ODEyNSAxLjQ4NDM3NSAtNS4wMzEyNWwwIC0xMi40ODQzNzVsNC4wOTM3NSAwbDAgMTIuNjQwNjI1cTAgNC45MDYyNSAtMi42MDkzNzUgNy41cS0yLjYwOTM3NSAyLjU3ODEyNSAtNy4xODc1IDIuNTc4MTI1em0xNS42MjMwNDcgLTAuMzEyNWwwIC0yMi40MDYyNWwzLjQyMTg3NSAwbDkuNzgxMjUgMTYuMzU5Mzc1bC0xLjc4MTI1IDBsOS42MjUgLTE2LjM1OTM3NWwzLjQyMTg3NSAwbDAuMDMxMjUgMjIuNDA2MjVsLTMuOTM3NSAwbC0wLjAzMTI1IC0xNi4yMTg3NWwwLjg0Mzc1IDBsLTguMjAzMTI1IDEzLjY1NjI1bC0xLjg0Mzc1IDBsLTguMzI4MTI1IC0xMy42NTYyNWwwLjk1MzEyNSAwbDAgMTYuMjE4NzVsLTMuOTUzMTI1IDB6bTM0LjEzODE4NCA2LjIwMzEyNXEtMS44OTA2MjUgLTIuOTA2MjUgLTIuOTA2MjUgLTYuNzM0Mzc1cS0xLjAgLTMuODI4MTI1IC0xLjAgLTguMjM0Mzc1cTAgLTQuNDIxODc1IDEuMCAtOC4yNjU2MjVxMS4wMTU2MjUgLTMuODU5Mzc1IDIuOTA2MjUgLTYuNzE4NzVsMy44MTI1IDBxLTEuOTUzMTI1IDMuNTMxMjUgLTIuODc1IDcuMjAzMTI1cS0wLjkwNjI1IDMuNjU2MjUgLTAuOTA2MjUgNy43ODEyNXEwIDQuMTI1IDAuOTA2MjUgNy43OTY4NzVxMC45MjE4NzUgMy42NTYyNSAyLjg3NSA3LjE3MTg3NWwtMy44MTI1IDB6bTE0Ljk3OTAwNCAtNS45ODQzNzVxLTIuNjg3NSAwIC00Ljc5Njg3NSAtMS4xMjVxLTIuMDkzNzUgLTEuMTQwNjI1IC0zLjI4MTI1IC0zLjEyNXEtMS4xNzE4NzUgLTEuOTg0Mzc1IC0xLjE3MTg3NSAtNC41MTU2MjVxMCAtMi41NjI1IDEuMTcxODc1IC00LjUzMTI1cTEuMTg3NSAtMS45Njg3NSAzLjI4MTI1IC0zLjA3ODEyNXEyLjEwOTM3NSAtMS4xMjUgNC43OTY4NzUgLTEuMTI1cTIuNDg0Mzc1IDAgNC4zOTA2MjUgMS4wMTU2MjVxMS45MDYyNSAxLjAgMi45MDYyNSAyLjk1MzEyNWwtMy4wNzgxMjUgMS43OTY4NzVxLTAuNzY1NjI1IC0xLjIxODc1IC0xLjg3NSAtMS43OTY4NzVxLTEuMDkzNzUgLTAuNTc4MTI1IC0yLjM3NSAtMC41NzgxMjVxLTEuNDg0Mzc1IDAgLTIuNjcxODc1IDAuNjQwNjI1cS0xLjE3MTg3NSAwLjY0MDYyNSAtMS44NDM3NSAxLjg0Mzc1cS0wLjY3MTg3NSAxLjIwMzEyNSAtMC42NzE4NzUgMi44NTkzNzVxMCAxLjY3MTg3NSAwLjY3MTg3NSAyLjg3NXEwLjY3MTg3NSAxLjE4NzUgMS44NDM3NSAxLjgyODEyNXExLjE4NzUgMC42NDA2MjUgMi42NzE4NzUgMC42NDA2MjVxMS4yODEyNSAwIDIuMzc1IC0wLjU3ODEyNXExLjEwOTM3NSAtMC41NzgxMjUgMS44NzUgLTEuNzgxMjVsMy4wNzgxMjUgMS43ODEyNXEtMS4wIDEuOTIxODc1IC0yLjkwNjI1IDIuOTY4NzVxLTEuOTA2MjUgMS4wMzEyNSAtNC4zOTA2MjUgMS4wMzEyNXptMTguMTY0MTg1IDBxLTIuNjA5Mzc1IDAgLTQuNjcxODc1IC0xLjEyNXEtMi4wNDY4NzUgLTEuMTQwNjI1IC0zLjIzNDM3NSAtMy4xMjVxLTEuMTcxODc1IC0xLjk4NDM3NSAtMS4xNzE4NzUgLTQuNTE1NjI1cTAgLTIuNTYyNSAxLjE3MTg3NSAtNC41MzEyNXExLjE4NzUgLTEuOTY4NzUgMy4yMzQzNzUgLTMuMDc4MTI1cTIuMDYyNSAtMS4xMjUgNC42NzE4NzUgLTEuMTI1cTIuNjU2MjUgMCA0LjcxODc1IDEuMTI1cTIuMDc4MTI1IDEuMTA5Mzc1IDMuMjM0Mzc1IDMuMDYyNXExLjE3MTg3NSAxLjk1MzEyNSAxLjE3MTg3NSA0LjU0Njg3NXEwIDIuNTMxMjUgLTEuMTcxODc1IDQuNTE1NjI1cS0xLjE1NjI1IDEuOTg0Mzc1IC0zLjIzNDM3NSAzLjEyNXEtMi4wNjI1IDEuMTI1IC00LjcxODc1IDEuMTI1em0wIC0zLjQyMTg3NXExLjQ4NDM3NSAwIDIuNjI1IC0wLjY0MDYyNXExLjE1NjI1IC0wLjY0MDYyNSAxLjgxMjUgLTEuODQzNzVxMC42NTYyNSAtMS4yMTg3NSAwLjY1NjI1IC0yLjg1OTM3NXEwIC0xLjY1NjI1IC0wLjY1NjI1IC0yLjg1OTM3NXEtMC42NTYyNSAtMS4yMDMxMjUgLTEuODEyNSAtMS44NDM3NXEtMS4xNDA2MjUgLTAuNjQwNjI1IC0yLjU3ODEyNSAtMC42NDA2MjVxLTEuNDg0Mzc1IDAgLTIuNjI1IDAuNjQwNjI1cS0xLjEyNSAwLjY0MDYyNSAtMS43OTY4NzUgMS44NDM3NXEtMC42NzE4NzUgMS4yMDMxMjUgLTAuNjcxODc1IDIuODU5Mzc1cTAgMS42NDA2MjUgMC42NzE4NzUgMi44NTkzNzVxMC42NzE4NzUgMS4yMDMxMjUgMS43OTY4NzUgMS44NDM3NXExLjE0MDYyNSAwLjY0MDYyNSAyLjU3ODEyNSAwLjY0MDYyNXptMjAuMjAyNTE1IDMuNDIxODc1cS0yLjE3MTg3NSAwIC0zLjg0Mzc1IC0wLjgxMjVxLTEuNjU2MjUgLTAuODEyNSAtMi41OTM3NSAtMi40ODQzNzVxLTAuOTIxODc1IC0xLjY4NzUgLTAuOTIxODc1IC00LjI1bDAgLTkuNzY1NjI1bDQuMCAwbDAgOS4yMTg3NXEwIDIuMzEyNSAxLjAzMTI1IDMuNDUzMTI1cTEuMDQ2ODc1IDEuMTI1IDIuOTY4NzUgMS4xMjVxMS40MDYyNSAwIDIuNDM3NSAtMC41NzgxMjVxMS4wNDY4NzUgLTAuNTc4MTI1IDEuNjQwNjI1IC0xLjcxODc1cTAuNTkzNzUgLTEuMTU2MjUgMC41OTM3NSAtMi44NTkzNzVsMCAtOC42NDA2MjVsNC4wIDBsMCAxNy4wOTM3NWwtMy44MTI1IDBsMCAtNC42MDkzNzVsMC42NzE4NzUgMS40MDYyNXEtMC44NTkzNzUgMS42NzE4NzUgLTIuNTMxMjUgMi41NDY4NzVxLTEuNjU2MjUgMC44NzUgLTMuNjQwNjI1IDAuODc1em0yNC4yNDUyNCAtMTcuNXEyLjA2MjUgMCAzLjY3MTg3NSAwLjc5Njg3NXExLjYwOTM3NSAwLjc5Njg3NSAyLjUzMTI1IDIuNDUzMTI1cTAuOTM3NSAxLjY0MDYyNSAwLjkzNzUgNC4yMzQzNzVsMCA5Ljc5Njg3NWwtNC4wIDBsMCAtOS4yODEyNXEwIC0yLjI2NTYyNSAtMS4wNzgxMjUgLTMuMzkwNjI1cS0xLjA2MjUgLTEuMTI1IC0yLjk4NDM3NSAtMS4xMjVxLTEuNDA2MjUgMCAtMi41IDAuNTc4MTI1cS0xLjA3ODEyNSAwLjU3ODEyNSAtMS42NzE4NzUgMS43MTg3NXEtMC41OTM3NSAxLjEyNSAtMC41OTM3NSAyLjg1OTM3NWwwIDguNjQwNjI1bC00LjAgMGwwIC0xNy4wOTM3NWwzLjgxMjUgMGwwIDQuNjA5Mzc1bC0wLjY3MTg3NSAtMS40MDYyNXEwLjg5MDYyNSAtMS42MjUgMi41OTM3NSAtMi41cTEuNzE4NzUgLTAuODkwNjI1IDMuOTUzMTI1IC0wLjg5MDYyNXptMTguNjcwMDQ0IDE3LjVxLTIuODI4MTI1IDAgLTQuMzU5Mzc1IC0xLjQ1MzEyNXEtMS41MzEyNSAtMS40NTMxMjUgLTEuNTMxMjUgLTQuMjk2ODc1bDAgLTE1LjMyODEyNWw0LjAgMGwwIDE1LjIzNDM3NXEwIDEuMjAzMTI1IDAuNjI1IDEuODc1cTAuNjI1IDAuNjcxODc1IDEuNzM0Mzc1IDAuNjcxODc1cTEuMzQzNzUgMCAyLjI1IC0wLjcwMzEyNWwxLjEwOTM3NSAyLjg1OTM3NXEtMC43MDMxMjUgMC41NjI1IC0xLjczNDM3NSAwLjg1OTM3NXEtMS4wMTU2MjUgMC4yODEyNSAtMi4wOTM3NSAwLjI4MTI1em0tOC43MDMxMjUgLTEzLjk4NDM3NWwwIC0zLjE4NzVsMTEuMzkwNjI1IDBsMCAzLjE4NzVsLTExLjM5MDYyNSAwem0xNy43MjQyNDMgMTkuOTY4NzVsLTMuODEyNSAwcTEuOTg0Mzc1IC0zLjUxNTYyNSAyLjg5MDYyNSAtNy4xNzE4NzVxMC45MjE4NzUgLTMuNjcxODc1IDAuOTIxODc1IC03Ljc5Njg3NXEwIC00LjEyNSAtMC45MjE4NzUgLTcuNzgxMjVxLTAuOTA2MjUgLTMuNjcxODc1IC0yLjg5MDYyNSAtNy4yMDMxMjVsMy44MTI1IDBxMS45MjE4NzUgMi44NTkzNzUgMi45MDYyNSA2LjcxODc1cTEuMCAzLjg0Mzc1IDEuMCA4LjI2NTYyNXEwIDQuNDA2MjUgLTEuMCA4LjIzNDM3NXEtMC45ODQzNzUgMy44MjgxMjUgLTIuOTA2MjUgNi43MzQzNzV6bTE1LjI5NjE0MyAtNi4yMDMxMjVsMTAuMDc4MTI1IC0yMi40MDYyNWw0LjA5Mzc1IDBsMTAuMTA5Mzc1IDIyLjQwNjI1bC00LjM0Mzc1IDBsLTguNjcxODc1IC0yMC4xODc1bDEuNjU2MjUgMGwtOC42NDA2MjUgMjAuMTg3NWwtNC4yODEyNSAwem00LjY0MDYyNSAtNS4xODc1bDEuMTA5Mzc1IC0zLjI2NTYyNWwxMi4xMDkzNzUgMGwxLjEwOTM3NSAzLjI2NTYyNWwtMTQuMzI4MTI1IDB6bTI5LjQzNjc2OCA1LjVxLTIuNjI1IDAgLTUuMDMxMjUgLTAuNzVxLTIuMzkwNjI1IC0wLjc1IC0zLjc5Njg3NSAtMS45Mzc1bDEuNDM3NSAtMy4yMTg3NXExLjM0Mzc1IDEuMDQ2ODc1IDMuMzI4MTI1IDEuNzVxMS45ODQzNzUgMC43MDMxMjUgNC4wNjI1IDAuNzAzMTI1cTEuNzY1NjI1IDAgMi44NDM3NSAtMC4zNzVxMS4wOTM3NSAtMC4zOTA2MjUgMS41OTM3NSAtMS4wNDY4NzVxMC41MTU2MjUgLTAuNjU2MjUgMC41MTU2MjUgLTEuNDg0Mzc1cTAgLTEuMDMxMjUgLTAuNzM0Mzc1IC0xLjY0MDYyNXEtMC43MzQzNzUgLTAuNjI1IC0xLjkwNjI1IC0xLjBxLTEuMTU2MjUgLTAuMzc1IC0yLjU5Mzc1IC0wLjY4NzVxLTEuNDIxODc1IC0wLjMyODEyNSAtMi44NDM3NSAtMC43NXEtMS40MjE4NzUgLTAuNDM3NSAtMi41OTM3NSAtMS4xMjVxLTEuMTU2MjUgLTAuNjg3NSAtMS45MDYyNSAtMS44MjgxMjVxLTAuNzM0Mzc1IC0xLjE1NjI1IC0wLjczNDM3NSAtMi45NTMxMjVxMCAtMS44MjgxMjUgMC45Njg3NSAtMy4zNDM3NXEwLjk4NDM3NSAtMS41MTU2MjUgMi45ODQzNzUgLTIuNDIxODc1cTIuMCAtMC45MjE4NzUgNS4wNzgxMjUgLTAuOTIxODc1cTIuMDE1NjI1IDAgNC4wIDAuNTE1NjI1cTEuOTg0Mzc1IDAuNSAzLjQ1MzEyNSAxLjQ2ODc1bC0xLjMxMjUgMy4yMzQzNzVxLTEuNSAtMC45MDYyNSAtMy4xMDkzNzUgLTEuMzI4MTI1cS0xLjU5Mzc1IC0wLjQzNzUgLTMuMDYyNSAtMC40Mzc1cS0xLjczNDM3NSAwIC0yLjgxMjUgMC40MjE4NzVxLTEuMDYyNSAwLjQwNjI1IC0xLjU2MjUgMS4wNzgxMjVxLTAuNDg0Mzc1IDAuNjcxODc1IC0wLjQ4NDM3NSAxLjU0Njg3NXEwIDEuMDE1NjI1IDAuNzE4NzUgMS42NDA2MjVxMC43MTg3NSAwLjYyNSAxLjg3NSAwLjk4NDM3NXExLjE3MTg3NSAwLjM0Mzc1IDIuNjA5Mzc1IDAuNjg3NXExLjQ1MzEyNSAwLjMyODEyNSAyLjg3NSAwLjc1cTEuNDIxODc1IDAuNDA2MjUgMi41NzgxMjUgMS4wNzgxMjVxMS4xNzE4NzUgMC42NzE4NzUgMS44OTA2MjUgMS44MjgxMjVxMC43MzQzNzUgMS4xNTYyNSAwLjczNDM3NSAyLjkwNjI1cTAgMS43OTY4NzUgLTAuOTg0Mzc1IDMuMzI4MTI1cS0wLjk2ODc1IDEuNTE1NjI1IC0yLjk4NDM3NSAyLjQyMTg3NXEtMi4wMTU2MjUgMC45MDYyNSAtNS4wOTM3NSAwLjkwNjI1em0yOC4wNjk0NTggLTAuMDkzNzVxLTIuODI4MTI1IDAgLTQuMzU5Mzc1IC0xLjQ1MzEyNXEtMS41MzEyNSAtMS40NTMxMjUgLTEuNTMxMjUgLTQuMjk2ODc1bDAgLTE1LjMyODEyNWw0LjAgMGwwIDE1LjIzNDM3NXEwIDEuMjAzMTI1IDAuNjI1IDEuODc1cTAuNjI1IDAuNjcxODc1IDEuNzM0Mzc1IDAuNjcxODc1cTEuMzQzNzUgMCAyLjI1IC0wLjcwMzEyNWwxLjEwOTM3NSAyLjg1OTM3NXEtMC43MDMxMjUgMC41NjI1IC0xLjczNDM3NSAwLjg1OTM3NXEtMS4wMTU2MjUgMC4yODEyNSAtMi4wOTM3NSAwLjI4MTI1em0tOC43MDMxMjUgLTEzLjk4NDM3NWwwIC0zLjE4NzVsMTEuMzkwNjI1IDBsMCAzLjE4NzVsLTExLjM5MDYyNSAwem0yMi45Mjk1NjUgMTMuOTg0Mzc1cS0yLjYwOTM3NSAwIC00LjY3MTg3NSAtMS4xMjVxLTIuMDQ2ODc1IC0xLjE0MDYyNSAtMy4yMzQzNzUgLTMuMTI1cS0xLjE3MTg3NSAtMS45ODQzNzUgLTEuMTcxODc1IC00LjUxNTYyNXEwIC0yLjU2MjUgMS4xNzE4NzUgLTQuNTMxMjVxMS4xODc1IC0xLjk2ODc1IDMuMjM0Mzc1IC0zLjA3ODEyNXEyLjA2MjUgLTEuMTI1IDQuNjcxODc1IC0xLjEyNXEyLjY1NjI1IDAgNC43MTg3NSAxLjEyNXEyLjA3ODEyNSAxLjEwOTM3NSAzLjIzNDM3NSAzLjA2MjVxMS4xNzE4NzUgMS45NTMxMjUgMS4xNzE4NzUgNC41NDY4NzVxMCAyLjUzMTI1IC0xLjE3MTg3NSA0LjUxNTYyNXEtMS4xNTYyNSAxLjk4NDM3NSAtMy4yMzQzNzUgMy4xMjVxLTIuMDYyNSAxLjEyNSAtNC43MTg3NSAxLjEyNXptMCAtMy40MjE4NzVxMS40ODQzNzUgMCAyLjYyNSAtMC42NDA2MjVxMS4xNTYyNSAtMC42NDA2MjUgMS44MTI1IC0xLjg0Mzc1cTAuNjU2MjUgLTEuMjE4NzUgMC42NTYyNSAtMi44NTkzNzVxMCAtMS42NTYyNSAtMC42NTYyNSAtMi44NTkzNzVxLTAuNjU2MjUgLTEuMjAzMTI1IC0xLjgxMjUgLTEuODQzNzVxLTEuMTQwNjI1IC0wLjY0MDYyNSAtMi41NzgxMjUgLTAuNjQwNjI1cS0xLjQ4NDM3NSAwIC0yLjYyNSAwLjY0MDYyNXEtMS4xMjUgMC42NDA2MjUgLTEuNzk2ODc1IDEuODQzNzVxLTAuNjcxODc1IDEuMjAzMTI1IC0wLjY3MTg3NSAyLjg1OTM3NXEwIDEuNjQwNjI1IDAuNjcxODc1IDIuODU5Mzc1cTAuNjcxODc1IDEuMjAzMTI1IDEuNzk2ODc1IDEuODQzNzVxMS4xNDA2MjUgMC42NDA2MjUgMi41NzgxMjUgMC42NDA2MjV6bTE5LjQwNTY0IDMuNDIxODc1cS0yLjgyODEyNSAwIC00LjM1OTM3NSAtMS40NTMxMjVxLTEuNTMxMjUgLTEuNDUzMTI1IC0xLjUzMTI1IC00LjI5Njg3NWwwIC0xNS4zMjgxMjVsNC4wIDBsMCAxNS4yMzQzNzVxMCAxLjIwMzEyNSAwLjYyNSAxLjg3NXEwLjYyNSAwLjY3MTg3NSAxLjczNDM3NSAwLjY3MTg3NXExLjM0Mzc1IDAgMi4yNSAtMC43MDMxMjVsMS4xMDkzNzUgMi44NTkzNzVxLTAuNzAzMTI1IDAuNTYyNSAtMS43MzQzNzUgMC44NTkzNzVxLTEuMDE1NjI1IDAuMjgxMjUgLTIuMDkzNzUgMC4yODEyNXptLTguNzAzMTI1IC0xMy45ODQzNzVsMCAtMy4xODc1bDExLjM5MDYyNSAwbDAgMy4xODc1bC0xMS4zOTA2MjUgMHptMjYuMzY0ODY4IDEzLjc2NTYyNWwwIC0zLjQ1MzEyNWwtMC4yMzQzNzUgLTAuNzM0Mzc1bDAgLTYuMDQ2ODc1cTAgLTEuNzY1NjI1IC0xLjA2MjUgLTIuNzM0Mzc1cS0xLjA0Njg3NSAtMC45ODQzNzUgLTMuMTg3NSAtMC45ODQzNzVxLTEuNDM3NSAwIC0yLjgyODEyNSAwLjQ1MzEyNXEtMS4zOTA2MjUgMC40Mzc1IC0yLjM1OTM3NSAxLjI1bC0xLjU2MjUgLTIuOTIxODc1cTEuMzc1IC0xLjA0Njg3NSAzLjI4MTI1IC0xLjU3ODEyNXExLjkwNjI1IC0wLjUzMTI1IDMuOTUzMTI1IC0wLjUzMTI1cTMuNzAzMTI1IDAgNS43MzQzNzUgMS43ODEyNXEyLjAzMTI1IDEuNzY1NjI1IDIuMDMxMjUgNS40ODQzNzVsMCAxMC4wMTU2MjVsLTMuNzY1NjI1IDB6bS01LjM3NSAwLjIxODc1cS0xLjkyMTg3NSAwIC0zLjM3NSAtMC42NTYyNXEtMS40Mzc1IC0wLjY1NjI1IC0yLjIxODc1IC0xLjgxMjVxLTAuNzgxMjUgLTEuMTcxODc1IC0wLjc4MTI1IC0yLjY0MDYyNXEwIC0xLjQ1MzEyNSAwLjY4NzUgLTIuNTkzNzVxMC42ODc1IC0xLjE1NjI1IDIuMjUgLTEuODI4MTI1cTEuNTc4MTI1IC0wLjY3MTg3NSA0LjE3MTg3NSAtMC42NzE4NzVsNC45NTMxMjUgMGwwIDIuNjU2MjVsLTQuNjcxODc1IDBxLTIuMDQ2ODc1IDAgLTIuNzUgMC42NTYyNXEtMC43MDMxMjUgMC42NTYyNSAtMC43MDMxMjUgMS42MDkzNzVxMCAxLjA5Mzc1IDAuODU5Mzc1IDEuNzM0Mzc1cTAuODc1IDAuNjQwNjI1IDIuNDA2MjUgMC42NDA2MjVxMS40Njg3NSAwIDIuNjQwNjI1IC0wLjY3MTg3NXExLjE3MTg3NSAtMC42NzE4NzUgMS42NzE4NzUgLTEuOTg0Mzc1bDAuNjcxODc1IDIuNDA2MjVxLTAuNTYyNSAxLjUgLTIuMDYyNSAyLjMyODEyNXEtMS40ODQzNzUgMC44MjgxMjUgLTMuNzUgMC44MjgxMjV6bTE0LjI2NzgyMiAtMC4yMTg3NWwwIC0yMy43NWw0LjAgMGwwIDIzLjc1bC00LjAgMHoiIGZpbGw9IiNmZmZmZmYiLz48cGF0aCBmaWxsLXJ1bGU9Im5vbnplcm8iIGQ9Im0xMDI4LjI5ODEgODE0LjM5NzRsMTEuMTcxODc1IDBsMCAzLjUxNTYyNWwtMTEuMTcxODc1IDBsMCAtMy41MTU2MjV6bTAuMzU5Mzc1IDEyLjA5Mzc1bC00LjE1NjI1IDBsMCAtMjIuNDA2MjVsMTYuMzQzNzUgMGwwIDMuNWwtMTIuMTg3NSAwbDAgMTguOTA2MjV6bTE2LjIyNzc4MyAwbDAgLTIyLjQwNjI1bDkuMjAzMTI1IDBxMi45ODQzNzUgMCA1LjEwOTM3NSAwLjk2ODc1cTIuMTI1IDAuOTUzMTI1IDMuMjgxMjUgMi43NXExLjE1NjI1IDEuNzk2ODc1IDEuMTU2MjUgNC4yNXEwIDIuNDY4NzUgLTEuMTU2MjUgNC4yNXEtMS4xNTYyNSAxLjc2NTYyNSAtMy4yODEyNSAyLjcxODc1cS0yLjEyNSAwLjkzNzUgLTUuMTA5Mzc1IDAuOTM3NWwtNi45MDYyNSAwbDEuODU5Mzc1IC0xLjg5MDYyNWwwIDguNDIxODc1bC00LjE1NjI1IDB6bTE0LjY0MDYyNSAwbC01LjY1NjI1IC04LjEyNWw0LjQ1MzEyNSAwbDUuNjg3NSA4LjEyNWwtNC40ODQzNzUgMHptLTEwLjQ4NDM3NSAtNy45Njg3NWwtMS44NTkzNzUgLTEuOTg0Mzc1bDYuNzE4NzUgMHEyLjc1IDAgNC4xNDA2MjUgLTEuMTcxODc1cTEuMzkwNjI1IC0xLjE4NzUgMS4zOTA2MjUgLTMuMzEyNXEwIC0yLjE0MDYyNSAtMS4zOTA2MjUgLTMuMjgxMjVxLTEuMzkwNjI1IC0xLjE1NjI1IC00LjE0MDYyNSAtMS4xNTYyNWwtNi43MTg3NSAwbDEuODU5Mzc1IC0yLjA0Njg3NWwwIDEyLjk1MzEyNXptMjkuNzIwMDkzIDguMjgxMjVxLTIuNjI1IDAgLTQuODI4MTI1IC0wLjg1OTM3NXEtMi4yMDMxMjUgLTAuODU5Mzc1IC0zLjg0Mzc1IC0yLjQwNjI1cS0xLjYyNSAtMS41NjI1IC0yLjUzMTI1IC0zLjY1NjI1cS0wLjg5MDYyNSAtMi4wOTM3NSAtMC44OTA2MjUgLTQuNTkzNzVxMCAtMi41IDAuODkwNjI1IC00LjU5Mzc1cTAuOTA2MjUgLTIuMDkzNzUgMi41MzEyNSAtMy42NDA2MjVxMS42NDA2MjUgLTEuNTQ2ODc1IDMuODQzNzUgLTIuNDA2MjVxMi4yMDMxMjUgLTAuODc1IDQuNzk2ODc1IC0wLjg3NXEyLjYyNSAwIDQuODEyNSAwLjg3NXEyLjIwMzEyNSAwLjg1OTM3NSAzLjgyODEyNSAyLjQwNjI1cTEuNjQwNjI1IDEuNTQ2ODc1IDIuNTMxMjUgMy42NDA2MjVxMC44OTA2MjUgMi4wOTM3NSAwLjg5MDYyNSA0LjU5Mzc1cTAgMi41IC0wLjg5MDYyNSA0LjYwOTM3NXEtMC44OTA2MjUgMi4xMDkzNzUgLTIuNTMxMjUgMy42NTYyNXEtMS42MjUgMS41MzEyNSAtMy44MjgxMjUgMi4zOTA2MjVxLTIuMTg3NSAwLjg1OTM3NSAtNC43ODEyNSAwLjg1OTM3NXptLTAuMDMxMjUgLTMuNjQwNjI1cTEuNzAzMTI1IDAgMy4xNDA2MjUgLTAuNTc4MTI1cTEuNDM3NSAtMC41NzgxMjUgMi40ODQzNzUgLTEuNjQwNjI1cTEuMDYyNSAtMS4wNzgxMjUgMS42NTYyNSAtMi41cTAuNTkzNzUgLTEuNDIxODc1IDAuNTkzNzUgLTMuMTU2MjVxMCAtMS43MTg3NSAtMC41OTM3NSAtMy4xNDA2MjVxLTAuNTkzNzUgLTEuNDM3NSAtMS42NTYyNSAtMi41cS0xLjA0Njg3NSAtMS4wNzgxMjUgLTIuNDg0Mzc1IC0xLjY1NjI1cS0xLjQzNzUgLTAuNTc4MTI1IC0zLjE0MDYyNSAtMC41NzgxMjVxLTEuNjg3NSAwIC0zLjEyNSAwLjU3ODEyNXEtMS40MjE4NzUgMC41NzgxMjUgLTIuNSAxLjY1NjI1cS0xLjA2MjUgMS4wNjI1IC0xLjY1NjI1IDIuNXEtMC41OTM3NSAxLjQyMTg3NSAtMC41OTM3NSAzLjE0MDYyNXEwIDEuNzAzMTI1IDAuNTkzNzUgMy4xNDA2MjVxMC41OTM3NSAxLjQzNzUgMS42NDA2MjUgMi41MTU2MjVxMS4wNjI1IDEuMDYyNSAyLjUgMS42NDA2MjVxMS40NTMxMjUgMC41NzgxMjUgMy4xNDA2MjUgMC41NzgxMjV6bTE2LjQ5MDk2NyAzLjMyODEyNWwwIC0yMi40MDYyNWwzLjQyMTg3NSAwbDkuNzgxMjUgMTYuMzU5Mzc1bC0xLjc4MTI1IDBsOS42MjUgLTE2LjM1OTM3NWwzLjQyMTg3NSAwbDAuMDMxMjUgMjIuNDA2MjVsLTMuOTM3NSAwbC0wLjAzMTI1IC0xNi4yMTg3NWwwLjg0Mzc1IDBsLTguMjAzMTI1IDEzLjY1NjI1bC0xLjg0Mzc1IDBsLTguMzI4MTI1IC0xMy42NTYyNWwwLjk1MzEyNSAwbDAgMTYuMjE4NzVsLTMuOTUzMTI1IDB6bTQ5Ljg3NjQ2NSAwLjMxMjVxLTIuNjI1IDAgLTQuODI4MTI1IC0wLjg1OTM3NXEtMi4yMDMxMjUgLTAuODU5Mzc1IC0zLjg0Mzc1IC0yLjQwNjI1cS0xLjYyNSAtMS41NjI1IC0yLjUzMTI1IC0zLjY1NjI1cS0wLjg5MDYyNSAtMi4wOTM3NSAtMC44OTA2MjUgLTQuNTkzNzVxMCAtMi41IDAuODkwNjI1IC00LjU5Mzc1cTAuOTA2MjUgLTIuMDkzNzUgMi41MzEyNSAtMy42NDA2MjVxMS42NDA2MjUgLTEuNTQ2ODc1IDMuODQzNzUgLTIuNDA2MjVxMi4yMDMxMjUgLTAuODc1IDQuNzk2ODc1IC0wLjg3NXEyLjYyNSAwIDQuODEyNSAwLjg3NXEyLjIwMzEyNSAwLjg1OTM3NSAzLjgyODEyNSAyLjQwNjI1cTEuNjQwNjI1IDEuNTQ2ODc1IDIuNTMxMjUgMy42NDA2MjVxMC44OTA2MjUgMi4wOTM3NSAwLjg5MDYyNSA0LjU5Mzc1cTAgMi41IC0wLjg5MDYyNSA0LjYwOTM3NXEtMC44OTA2MjUgMi4xMDkzNzUgLTIuNTMxMjUgMy42NTYyNXEtMS42MjUgMS41MzEyNSAtMy44MjgxMjUgMi4zOTA2MjVxLTIuMTg3NSAwLjg1OTM3NSAtNC43ODEyNSAwLjg1OTM3NXptLTAuMDMxMjUgLTMuNjQwNjI1cTEuNzAzMTI1IDAgMy4xNDA2MjUgLTAuNTc4MTI1cTEuNDM3NSAtMC41NzgxMjUgMi40ODQzNzUgLTEuNjQwNjI1cTEuMDYyNSAtMS4wNzgxMjUgMS42NTYyNSAtMi41cTAuNTkzNzUgLTEuNDIxODc1IDAuNTkzNzUgLTMuMTU2MjVxMCAtMS43MTg3NSAtMC41OTM3NSAtMy4xNDA2MjVxLTAuNTkzNzUgLTEuNDM3NSAtMS42NTYyNSAtMi41cS0xLjA0Njg3NSAtMS4wNzgxMjUgLTIuNDg0Mzc1IC0xLjY1NjI1cS0xLjQzNzUgLTAuNTc4MTI1IC0zLjE0MDYyNSAtMC41NzgxMjVxLTEuNjg3NSAwIC0zLjEyNSAwLjU3ODEyNXEtMS40MjE4NzUgMC41NzgxMjUgLTIuNSAxLjY1NjI1cS0xLjA2MjUgMS4wNjI1IC0xLjY1NjI1IDIuNXEtMC41OTM3NSAxLjQyMTg3NSAtMC41OTM3NSAzLjE0MDYyNXEwIDEuNzAzMTI1IDAuNTkzNzUgMy4xNDA2MjVxMC41OTM3NSAxLjQzNzUgMS42NDA2MjUgMi41MTU2MjVxMS4wNjI1IDEuMDYyNSAyLjUgMS42NDA2MjVxMS40NTMxMjUgMC41NzgxMjUgMy4xNDA2MjUgMC41NzgxMjV6bTE2LjEwMDM0MiAzLjMyODEyNWwwIC0xNy4wOTM3NWwzLjgxMjUgMGwwIDQuNzAzMTI1bC0wLjQ1MzEyNSAtMS4zNzVxMC43NjU2MjUgLTEuNzE4NzUgMi40MDYyNSAtMi42MDkzNzVxMS42NTYyNSAtMC45MDYyNSA0LjEyNSAtMC45MDYyNWwwIDMuODEyNXEtMC4yNjU2MjUgLTAuMDYyNSAtMC40ODQzNzUgLTAuMDc4MTI1cS0wLjIxODc1IC0wLjAxNTYyNSAtMC40NTMxMjUgLTAuMDE1NjI1cS0yLjI2NTYyNSAwIC0zLjYwOTM3NSAxLjMyODEyNXEtMS4zNDM3NSAxLjMyODEyNSAtMS4zNDM3NSAzLjk1MzEyNWwwIDguMjgxMjVsLTQuMCAwem0yMC4zNTQzNyAwLjIxODc1cS0yLjQ2ODc1IDAgLTQuNDM3NSAtMS4wOTM3NXEtMS45Njg3NSAtMS4xMDkzNzUgLTMuMDkzNzUgLTMuMDYyNXEtMS4xMDkzNzUgLTEuOTUzMTI1IC0xLjEwOTM3NSAtNC42MDkzNzVxMCAtMi42NTYyNSAxLjEwOTM3NSAtNC42MDkzNzVxMS4xMjUgLTEuOTUzMTI1IDMuMDkzNzUgLTMuMDMxMjVxMS45Njg3NSAtMS4wOTM3NSA0LjQzNzUgLTEuMDkzNzVxMi4xNDA2MjUgMCAzLjgyODEyNSAwLjk1MzEyNXExLjcwMzEyNSAwLjkzNzUgMi42ODc1IDIuODU5Mzc1cTEuMCAxLjkyMTg3NSAxLjAgNC45MjE4NzVxMCAyLjk4NDM3NSAtMC45Njg3NSA0LjkyMTg3NXEtMC45NTMxMjUgMS45MjE4NzUgLTIuNjU2MjUgMi44OTA2MjVxLTEuNjg3NSAwLjk1MzEyNSAtMy44OTA2MjUgMC45NTMxMjV6bTAuNDg0Mzc1IC0zLjQyMTg3NXExLjQzNzUgMCAyLjU2MjUgLTAuNjQwNjI1cTEuMTQwNjI1IC0wLjY0MDYyNSAxLjgyODEyNSAtMS44NDM3NXEwLjY4NzUgLTEuMjE4NzUgMC42ODc1IC0yLjg1OTM3NXEwIC0xLjY1NjI1IC0wLjY4NzUgLTIuODU5Mzc1cS0wLjY4NzUgLTEuMjAzMTI1IC0xLjgyODEyNSAtMS44NDM3NXEtMS4xMjUgLTAuNjQwNjI1IC0yLjU2MjUgLTAuNjQwNjI1cS0xLjQ1MzEyNSAwIC0yLjU5Mzc1IDAuNjQwNjI1cS0xLjEyNSAwLjY0MDYyNSAtMS44MTI1IDEuODQzNzVxLTAuNjg3NSAxLjIwMzEyNSAtMC42ODc1IDIuODU5Mzc1cTAgMS42NDA2MjUgMC42ODc1IDIuODU5Mzc1cTAuNjg3NSAxLjIwMzEyNSAxLjgxMjUgMS44NDM3NXExLjE0MDYyNSAwLjY0MDYyNSAyLjU5Mzc1IDAuNjQwNjI1em01LjE3MTg3NSAzLjIwMzEyNWwwIC00LjAzMTI1bDAuMTcxODc1IC00LjU0Njg3NWwtMC4zMjgxMjUgLTQuNTQ2ODc1bDAgLTEwLjYyNWwzLjk2ODc1IDBsMCAyMy43NWwtMy44MTI1IDB6bTE3LjEyNDYzNCAwLjIxODc1cS0yLjg0Mzc1IDAgLTQuOTg0Mzc1IC0xLjEyNXEtMi4xMjUgLTEuMTQwNjI1IC0zLjI5Njg3NSAtMy4xMjVxLTEuMTU2MjUgLTEuOTg0Mzc1IC0xLjE1NjI1IC00LjUxNTYyNXEwIC0yLjU2MjUgMS4xMjUgLTQuNTMxMjVxMS4xNDA2MjUgLTEuOTY4NzUgMy4xNDA2MjUgLTMuMDc4MTI1cTIuMCAtMS4xMjUgNC41NjI1IC0xLjEyNXEyLjUgMCA0LjQ1MzEyNSAxLjA5Mzc1cTEuOTUzMTI1IDEuMDc4MTI1IDMuMDYyNSAzLjA2MjVxMS4xMjUgMS45ODQzNzUgMS4xMjUgNC42NzE4NzVxMCAwLjI2NTYyNSAtMC4wMTU2MjUgMC41OTM3NXEtMC4wMTU2MjUgMC4zMTI1IC0wLjA0Njg3NSAwLjU5Mzc1bC0xNC4yMzQzNzUgMGwwIC0yLjY1NjI1bDEyLjEyNSAwbC0xLjU3ODEyNSAwLjgyODEyNXEwLjAzMTI1IC0xLjQ2ODc1IC0wLjYwOTM3NSAtMi41NzgxMjVxLTAuNjI1IC0xLjEyNSAtMS43MzQzNzUgLTEuNzY1NjI1cS0xLjEwOTM3NSAtMC42NDA2MjUgLTIuNTQ2ODc1IC0wLjY0MDYyNXEtMS40Njg3NSAwIC0yLjU3ODEyNSAwLjY0MDYyNXEtMS4wOTM3NSAwLjY0MDYyNSAtMS43MTg3NSAxLjc4MTI1cS0wLjYyNSAxLjEyNSAtMC42MjUgMi42NzE4NzVsMCAwLjYyNXEwIDEuNTQ2ODc1IDAuNzAzMTI1IDIuNzM0Mzc1cTAuNzAzMTI1IDEuMTcxODc1IDEuOTg0Mzc1IDEuODEyNXExLjI4MTI1IDAuNjQwNjI1IDIuOTM3NSAwLjY0MDYyNXExLjQzNzUgMCAyLjU5Mzc1IC0wLjQzNzVxMS4xNTYyNSAtMC40NTMxMjUgMi4wNDY4NzUgLTEuNDIxODc1bDIuMTQwNjI1IDIuNDY4NzVxLTEuMTQwNjI1IDEuMzQzNzUgLTIuODkwNjI1IDIuMDYyNXEtMS43NSAwLjcxODc1IC0zLjk4NDM3NSAwLjcxODc1em0xMS44NzI4MDMgLTAuMjE4NzVsMCAtMTcuMDkzNzVsMy44MTI1IDBsMCA0LjcwMzEyNWwtMC40NTMxMjUgLTEuMzc1cTAuNzY1NjI1IC0xLjcxODc1IDIuNDA2MjUgLTIuNjA5Mzc1cTEuNjU2MjUgLTAuOTA2MjUgNC4xMjUgLTAuOTA2MjVsMCAzLjgxMjVxLTAuMjY1NjI1IC0wLjA2MjUgLTAuNDg0Mzc1IC0wLjA3ODEyNXEtMC4yMTg3NSAtMC4wMTU2MjUgLTAuNDUzMTI1IC0wLjAxNTYyNXEtMi4yNjU2MjUgMCAtMy42MDkzNzUgMS4zMjgxMjVxLTEuMzQzNzUgMS4zMjgxMjUgLTEuMzQzNzUgMy45NTMxMjVsMCA4LjI4MTI1bC00LjAgMHptMTguNzIxMzEzIDAuMjE4NzVxLTIuMTQwNjI1IDAgLTQuMTA5Mzc1IC0wLjU0Njg3NXEtMS45Njg3NSAtMC41NjI1IC0zLjEyNSAtMS4zNzVsMS41MzEyNSAtMy4wMzEyNXExLjE1NjI1IDAuNzM0Mzc1IDIuNzUgMS4yMTg3NXExLjYwOTM3NSAwLjQ2ODc1IDMuMjAzMTI1IDAuNDY4NzVxMS44OTA2MjUgMCAyLjczNDM3NSAtMC41cTAuODU5Mzc1IC0wLjUxNTYyNSAwLjg1OTM3NSAtMS4zNzVxMCAtMC43MDMxMjUgLTAuNTc4MTI1IC0xLjA3ODEyNXEtMC41NzgxMjUgLTAuMzc1IC0xLjUxNTYyNSAtMC41NjI1cS0wLjkyMTg3NSAtMC4xODc1IC0yLjA2MjUgLTAuMzQzNzVxLTEuMTI1IC0wLjE3MTg3NSAtMi4yNjU2MjUgLTAuNDM3NXEtMS4xNDA2MjUgLTAuMjY1NjI1IC0yLjA2MjUgLTAuNzk2ODc1cS0wLjkyMTg3NSAtMC41MzEyNSAtMS41IC0xLjQyMTg3NXEtMC41NzgxMjUgLTAuOTA2MjUgLTAuNTc4MTI1IC0yLjM3NXEwIC0xLjYyNSAwLjkyMTg3NSAtMi44MjgxMjVxMC45Mzc1IC0xLjIwMzEyNSAyLjYwOTM3NSAtMS44NTkzNzVxMS42ODc1IC0wLjY1NjI1IDMuOTg0Mzc1IC0wLjY1NjI1cTEuNzM0Mzc1IDAgMy40ODQzNzUgMC4zOTA2MjVxMS43NjU2MjUgMC4zNzUgMi45MjE4NzUgMS4wNzgxMjVsLTEuNTQ2ODc1IDMuMDQ2ODc1cS0xLjIwMzEyNSAtMC43MzQzNzUgLTIuNDM3NSAtMS4wcS0xLjIzNDM3NSAtMC4yODEyNSAtMi40NTMxMjUgLTAuMjgxMjVxLTEuODI4MTI1IDAgLTIuNzAzMTI1IDAuNTQ2ODc1cS0wLjg3NSAwLjU0Njg3NSAtMC44NzUgMS4zNzVxMCAwLjc2NTYyNSAwLjU2MjUgMS4xNTYyNXEwLjU3ODEyNSAwLjM3NSAxLjUgMC42MDkzNzVxMC45Mzc1IDAuMjE4NzUgMi4wNzgxMjUgMC4zNTkzNzVxMS4xNDA2MjUgMC4xNDA2MjUgMi4yNSAwLjQzNzVxMS4xMjUgMC4yODEyNSAyLjA2MjUgMC43ODEyNXEwLjk1MzEyNSAwLjUgMS41MTU2MjUgMS4zOTA2MjVxMC41NzgxMjUgMC44OTA2MjUgMC41NzgxMjUgMi4zMjgxMjVxMCAxLjYwOTM3NSAtMC45Mzc1IDIuNzk2ODc1cS0wLjkzNzUgMS4xNzE4NzUgLTIuNjcxODc1IDEuODI4MTI1cS0xLjczNDM3NSAwLjY1NjI1IC00LjEyNSAwLjY1NjI1eiIgZmlsbD0iI2ZmZmZmZiIvPjxwYXRoIGZpbGwtcnVsZT0ibm9uemVybyIgZD0ibTEwMzQuOTU0MyA4NzUuODcwM3EtMi42MjUgMCAtNC44MTI1IC0wLjg0Mzc1cS0yLjE4NzUgLTAuODQzNzUgLTMuODI4MTI1IC0yLjM5MDYyNXEtMS42MjUgLTEuNTYyNSAtMi41MzEzMTEgLTMuNjcxODc1cS0wLjg5MDYyNSAtMi4xMDkzNzUgLTAuODkwNjI1IC00LjYwOTM3NXEwIC0yLjUgMC44OTA2MjUgLTQuNjA5Mzc1cTAuOTA2MzExMDQgLTIuMTA5Mzc1IDIuNTQ2OTM2IC0zLjY1NjI1cTEuNjU2MjUgLTEuNTYyNSAzLjg1OTM3NSAtMi40MDYyNXEyLjIwMzEyNSAtMC44NDM3NSA0LjgyODEyNSAtMC44NDM3NXEyLjg1OTM3NSAwIDUuMTQwNjI1IDAuOTM3NXEyLjI4MTI1IDAuOTIxODc1IDMuODU5Mzc1IDIuNzAzMTI1bC0yLjYyNSAyLjU2MjVxLTEuMzEyNSAtMS4zMTI1IC0yLjg0Mzc1IC0xLjkzNzVxLTEuNTE1NjI1IC0wLjYyNSAtMy4zMjgxMjUgLTAuNjI1cS0xLjc2NTYyNSAwIC0zLjI4MTI1IDAuNTc4MTI1cS0xLjUgMC41NzgxMjUgLTIuNTkzNzUgMS42NDA2MjVxLTEuMDc4MTI1IDEuMDQ2ODc1IC0xLjY3MTg3NSAyLjVxLTAuNTkzNzUgMS40Mzc1IC0wLjU5Mzc1IDMuMTU2MjVxMCAxLjcwMzEyNSAwLjU5Mzc1IDMuMTQwNjI1cTAuNTkzNzUgMS40Mzc1IDEuNjcxODc1IDIuNTE1NjI1cTEuMDkzNzUgMS4wNjI1IDIuNTYyNSAxLjY0MDYyNXExLjQ4NDM3NSAwLjU3ODEyNSAzLjI4MTI1IDAuNTc4MTI1cTEuNjU2MjUgMCAzLjIwMzEyNSAtMC41MzEyNXExLjU2MjUgLTAuNTMxMjUgMi45Njg3NSAtMS43NjU2MjVsMi4zNTkzNzUgMy4wOTM3NXEtMS43NSAxLjQwNjI1IC00LjA3ODEyNSAyLjEyNXEtMi4zMTI1IDAuNzE4NzUgLTQuNjg3NSAwLjcxODc1em00LjgyODEyNSAtMy4zOTA2MjVsMCAtOC4zNzVsMy45Mzc1IDBsMCA4LjkyMTg3NWwtMy45Mzc1IC0wLjU0Njg3NXptOS40MjI3Mjk1IDMuMDc4MTI1bDAgLTIyLjQwNjI1bDkuMjAzMTI1IDBxMi45ODQzNzUgMCA1LjEwOTM3NSAwLjk2ODc1cTIuMTI1IDAuOTUzMTI1IDMuMjgxMjUgMi43NXExLjE1NjI1IDEuNzk2ODc1IDEuMTU2MjUgNC4yNXEwIDIuNDY4NzUgLTEuMTU2MjUgNC4yNXEtMS4xNTYyNSAxLjc2NTYyNSAtMy4yODEyNSAyLjcxODc1cS0yLjEyNSAwLjkzNzUgLTUuMTA5Mzc1IDAuOTM3NWwtNi45MDYyNSAwbDEuODU5Mzc1IC0xLjg5MDYyNWwwIDguNDIxODc1bC00LjE1NjI1IDB6bTE0LjY0MDYyNSAwbC01LjY1NjI1IC04LjEyNWw0LjQ1MzEyNSAwbDUuNjg3NSA4LjEyNWwtNC40ODQzNzUgMHptLTEwLjQ4NDM3NSAtNy45Njg3NWwtMS44NTkzNzUgLTEuOTg0Mzc1bDYuNzE4NzUgMHEyLjc1IDAgNC4xNDA2MjUgLTEuMTcxODc1cTEuMzkwNjI1IC0xLjE4NzUgMS4zOTA2MjUgLTMuMzEyNXEwIC0yLjE0MDYyNSAtMS4zOTA2MjUgLTMuMjgxMjVxLTEuMzkwNjI1IC0xLjE1NjI1IC00LjE0MDYyNSAtMS4xNTYyNWwtNi43MTg3NSAwbDEuODU5Mzc1IC0yLjA0Njg3NWwwIDEyLjk1MzEyNXptMjkuNzIwMjE1IDguMjgxMjVxLTIuNjI1IDAgLTQuODI4MTI1IC0wLjg1OTM3NXEtMi4yMDMxMjUgLTAuODU5Mzc1IC0zLjg0Mzc1IC0yLjQwNjI1cS0xLjYyNSAtMS41NjI1IC0yLjUzMTI1IC0zLjY1NjI1cS0wLjg5MDYyNSAtMi4wOTM3NSAtMC44OTA2MjUgLTQuNTkzNzVxMCAtMi41IDAuODkwNjI1IC00LjU5Mzc1cTAuOTA2MjUgLTIuMDkzNzUgMi41MzEyNSAtMy42NDA2MjVxMS42NDA2MjUgLTEuNTQ2ODc1IDMuODQzNzUgLTIuNDA2MjVxMi4yMDMxMjUgLTAuODc1IDQuNzk2ODc1IC0wLjg3NXEyLjYyNSAwIDQuODEyNSAwLjg3NXEyLjIwMzEyNSAwLjg1OTM3NSAzLjgyODEyNSAyLjQwNjI1cTEuNjQwNjI1IDEuNTQ2ODc1IDIuNTMxMjUgMy42NDA2MjVxMC44OTA2MjUgMi4wOTM3NSAwLjg5MDYyNSA0LjU5Mzc1cTAgMi41IC0wLjg5MDYyNSA0LjYwOTM3NXEtMC44OTA2MjUgMi4xMDkzNzUgLTIuNTMxMjUgMy42NTYyNXEtMS42MjUgMS41MzEyNSAtMy44MjgxMjUgMi4zOTA2MjVxLTIuMTg3NSAwLjg1OTM3NSAtNC43ODEyNSAwLjg1OTM3NXptLTAuMDMxMjUgLTMuNjQwNjI1cTEuNzAzMTI1IDAgMy4xNDA2MjUgLTAuNTc4MTI1cTEuNDM3NSAtMC41NzgxMjUgMi40ODQzNzUgLTEuNjQwNjI1cTEuMDYyNSAtMS4wNzgxMjUgMS42NTYyNSAtMi41cTAuNTkzNzUgLTEuNDIxODc1IDAuNTkzNzUgLTMuMTU2MjVxMCAtMS43MTg3NSAtMC41OTM3NSAtMy4xNDA2MjVxLTAuNTkzNzUgLTEuNDM3NSAtMS42NTYyNSAtMi41cS0xLjA0Njg3NSAtMS4wNzgxMjUgLTIuNDg0Mzc1IC0xLjY1NjI1cS0xLjQzNzUgLTAuNTc4MTI1IC0zLjE0MDYyNSAtMC41NzgxMjVxLTEuNjg3NSAwIC0zLjEyNSAwLjU3ODEyNXEtMS40MjE4NzUgMC41NzgxMjUgLTIuNSAxLjY1NjI1cS0xLjA2MjUgMS4wNjI1IC0xLjY1NjI1IDIuNXEtMC41OTM3NSAxLjQyMTg3NSAtMC41OTM3NSAzLjE0MDYyNXEwIDEuNzAzMTI1IDAuNTkzNzUgMy4xNDA2MjVxMC41OTM3NSAxLjQzNzUgMS42NDA2MjUgMi41MTU2MjVxMS4wNjI1IDEuMDYyNSAyLjUgMS42NDA2MjVxMS40NTMxMjUgMC41NzgxMjUgMy4xNDA2MjUgMC41NzgxMjV6bTI2LjExNTk2NyAzLjY0MDYyNXEtNC42MDkzNzUgMCAtNy4yMTg3NSAtMi41NzgxMjVxLTIuNjA5Mzc1IC0yLjU5Mzc1IC0yLjYwOTM3NSAtNy41bDAgLTEyLjY0MDYyNWw0LjE1NjI1IDBsMCAxMi40ODQzNzVxMCAzLjQ1MzEyNSAxLjQ4NDM3NSA1LjAzMTI1cTEuNSAxLjU2MjUgNC4yMTg3NSAxLjU2MjVxMi43MTg3NSAwIDQuMTg3NSAtMS41NjI1cTEuNDg0Mzc1IC0xLjU3ODEyNSAxLjQ4NDM3NSAtNS4wMzEyNWwwIC0xMi40ODQzNzVsNC4wOTM3NSAwbDAgMTIuNjQwNjI1cTAgNC45MDYyNSAtMi42MDkzNzUgNy41cS0yLjYwOTM3NSAyLjU3ODEyNSAtNy4xODc1IDIuNTc4MTI1em0xNS42MjMwNDcgLTAuMzEyNWwwIC0yMi40MDYyNWw5LjIwMzEyNSAwcTIuOTg0Mzc1IDAgNS4xMDkzNzUgMC45Njg3NXEyLjEyNSAwLjk1MzEyNSAzLjI4MTI1IDIuNzVxMS4xNTYyNSAxLjc5Njg3NSAxLjE1NjI1IDQuMjVxMCAyLjQ2ODc1IC0xLjE1NjI1IDQuMjY1NjI1cS0xLjE1NjI1IDEuNzgxMjUgLTMuMjgxMjUgMi43NXEtMi4xMjUgMC45NTMxMjUgLTUuMTA5Mzc1IDAuOTUzMTI1bC02LjkwNjI1IDBsMS44NTkzNzUgLTEuOTUzMTI1bDAgOC40MjE4NzVsLTQuMTU2MjUgMHptNC4xNTYyNSAtNy45Njg3NWwtMS44NTkzNzUgLTIuMDE1NjI1bDYuNzE4NzUgMHEyLjc1IDAgNC4xNDA2MjUgLTEuMTU2MjVxMS4zOTA2MjUgLTEuMTcxODc1IDEuMzkwNjI1IC0zLjI5Njg3NXEwIC0yLjE0MDYyNSAtMS4zOTA2MjUgLTMuMjgxMjVxLTEuMzkwNjI1IC0xLjE1NjI1IC00LjE0MDYyNSAtMS4xNTYyNWwtNi43MTg3NSAwbDEuODU5Mzc1IC0yLjA0Njg3NWwwIDEyLjk1MzEyNXptMjcuOTA3NzE1IDcuOTY4NzVsMCAtMjIuNDA2MjVsMTAuNDg0Mzc1IDBxNC4wMzEyNSAwIDYuMTQwNjI1IDEuNTkzNzVxMi4xMjUgMS41NzgxMjUgMi4xMjUgNC4yMzQzNzVxMCAxLjc5Njg3NSAtMC44NDM3NSAzLjA2MjVxLTAuODI4MTI1IDEuMjY1NjI1IC0yLjIxODc1IDEuOTUzMTI1cS0xLjM5MDYyNSAwLjY4NzUgLTMuMDE1NjI1IDAuNjg3NWwwLjU2MjUgLTEuMTU2MjVxMS44OTA2MjUgMCAzLjM5MDYyNSAwLjY4NzVxMS41MTU2MjUgMC42ODc1IDIuMzkwNjI1IDIuMHEwLjg3NSAxLjMxMjUgMC44NzUgMy4yNjU2MjVxMCAyLjg3NSAtMi4yMDMxMjUgNC40ODQzNzVxLTIuMjAzMTI1IDEuNTkzNzUgLTYuNTYyNSAxLjU5Mzc1bC0xMS4xMjUgMHptNC4xNTYyNSAtMy4yNjU2MjVsNi43MTg3NSAwcTIuMzI4MTI1IDAgMy41NzgxMjUgLTAuNzY1NjI1cTEuMjUgLTAuNzY1NjI1IDEuMjUgLTIuNDY4NzVxMCAtMS42NTYyNSAtMS4yNSAtMi40Mzc1cS0xLjI1IC0wLjc5Njg3NSAtMy41NzgxMjUgLTAuNzk2ODc1bC03LjA0Njg3NSAwbDAgLTMuMjE4NzVsNi4yMTg3NSAwcTIuMTcxODc1IDAgMy4zMjgxMjUgLTAuNzY1NjI1cTEuMTcxODc1IC0wLjc4MTI1IDEuMTcxODc1IC0yLjMxMjVxMCAtMS41NjI1IC0xLjE3MTg3NSAtMi4zMjgxMjVxLTEuMTU2MjUgLTAuNzgxMjUgLTMuMzI4MTI1IC0wLjc4MTI1bC01Ljg5MDYyNSAwbDAgMTUuODc1em0yNS4yMTU4MiAzLjI2NTYyNWwwIC04Ljg1OTM3NWwwLjkyMTg3NSAyLjU2MjVsLTkuNzE4NzUgLTE2LjEwOTM3NWw0LjQzNzUgMGw3LjgxMjUgMTIuOTY4NzVsLTIuNSAwbDcuODc1IC0xMi45Njg3NWw0LjA5Mzc1IDBsLTkuNzE4NzUgMTYuMTA5Mzc1bDAuOTUzMTI1IC0yLjU2MjVsMCA4Ljg1OTM3NWwtNC4xNTYyNSAwem0yNC4wOTM1MDYgMGwwIC0xNy4wOTM3NWw0LjAgMGwwIDE3LjA5Mzc1bC00LjAgMHptMi4wMTU2MjUgLTE5LjkwNjI1cS0xLjEwOTM3NSAwIC0xLjgyODEyNSAtMC43MDMxMjVxLTAuNzE4NzUgLTAuNzAzMTI1IC0wLjcxODc1IC0xLjY4NzVxMCAtMS4wMzEyNSAwLjcxODc1IC0xLjcxODc1cTAuNzE4NzUgLTAuNjg3NSAxLjgyODEyNSAtMC42ODc1cTEuMTI1IDAgMS44NDM3NSAwLjY1NjI1cTAuNzE4NzUgMC42NTYyNSAwLjcxODc1IDEuNjQwNjI1cTAgMS4wNjI1IC0wLjcwMzEyNSAxLjc4MTI1cS0wLjcwMzEyNSAwLjcxODc1IC0xLjg1OTM3NSAwLjcxODc1em0xMy42Njk4IDIwLjEyNXEtMi44MjgxMjUgMCAtNC4zNTkzNzUgLTEuNDUzMTI1cS0xLjUzMTI1IC0xLjQ1MzEyNSAtMS41MzEyNSAtNC4yOTY4NzVsMCAtMTUuMzI4MTI1bDQuMCAwbDAgMTUuMjM0Mzc1cTAgMS4yMDMxMjUgMC42MjUgMS44NzVxMC42MjUgMC42NzE4NzUgMS43MzQzNzUgMC42NzE4NzVxMS4zNDM3NSAwIDIuMjUgLTAuNzAzMTI1bDEuMTA5Mzc1IDIuODU5Mzc1cS0wLjcwMzEyNSAwLjU2MjUgLTEuNzM0Mzc1IDAuODU5Mzc1cS0xLjAxNTYyNSAwLjI4MTI1IC0yLjA5Mzc1IDAuMjgxMjV6bS04LjcwMzEyNSAtMTMuOTg0Mzc1bDAgLTMuMTg3NWwxMS4zOTA2MjUgMGwwIDMuMTg3NWwtMTEuMzkwNjI1IDB6bTIzLjI4ODk0IDEzLjk4NDM3NXEtMi44NDM3NSAwIC00Ljk4NDM3NSAtMS4xMjVxLTIuMTI1IC0xLjE0MDYyNSAtMy4yOTY4NzUgLTMuMTI1cS0xLjE1NjI1IC0xLjk4NDM3NSAtMS4xNTYyNSAtNC41MTU2MjVxMCAtMi41NjI1IDEuMTI1IC00LjUzMTI1cTEuMTQwNjI1IC0xLjk2ODc1IDMuMTQwNjI1IC0zLjA3ODEyNXEyLjAgLTEuMTI1IDQuNTYyNSAtMS4xMjVxMi41IDAgNC40NTMxMjUgMS4wOTM3NXExLjk1MzEyNSAxLjA3ODEyNSAzLjA2MjUgMy4wNjI1cTEuMTI1IDEuOTg0Mzc1IDEuMTI1IDQuNjcxODc1cTAgMC4yNjU2MjUgLTAuMDE1NjI1IDAuNTkzNzVxLTAuMDE1NjI1IDAuMzEyNSAtMC4wNDY4NzUgMC41OTM3NWwtMTQuMjM0Mzc1IDBsMCAtMi42NTYyNWwxMi4xMjUgMGwtMS41NzgxMjUgMC44MjgxMjVxMC4wMzEyNSAtMS40Njg3NSAtMC42MDkzNzUgLTIuNTc4MTI1cS0wLjYyNSAtMS4xMjUgLTEuNzM0Mzc1IC0xLjc2NTYyNXEtMS4xMDkzNzUgLTAuNjQwNjI1IC0yLjU0Njg3NSAtMC42NDA2MjVxLTEuNDY4NzUgMCAtMi41NzgxMjUgMC42NDA2MjVxLTEuMDkzNzUgMC42NDA2MjUgLTEuNzE4NzUgMS43ODEyNXEtMC42MjUgMS4xMjUgLTAuNjI1IDIuNjcxODc1bDAgMC42MjVxMCAxLjU0Njg3NSAwLjcwMzEyNSAyLjczNDM3NXEwLjcwMzEyNSAxLjE3MTg3NSAxLjk4NDM3NSAxLjgxMjVxMS4yODEyNSAwLjY0MDYyNSAyLjkzNzUgMC42NDA2MjVxMS40Mzc1IDAgMi41OTM3NSAtMC40Mzc1cTEuMTU2MjUgLTAuNDUzMTI1IDIuMDQ2ODc1IC0xLjQyMTg3NWwyLjE0MDYyNSAyLjQ2ODc1cS0xLjE0MDYyNSAxLjM0Mzc1IC0yLjg5MDYyNSAyLjA2MjVxLTEuNzUgMC43MTg3NSAtMy45ODQzNzUgMC43MTg3NXptMzMuNDM1MzAzIC0xNy41cTIuMDQ2ODc1IDAgMy42MjUgMC43OTY4NzVxMS41OTM3NSAwLjc5Njg3NSAyLjQ4NDM3NSAyLjQ1MzEyNXEwLjkwNjI1IDEuNjQwNjI1IDAuOTA2MjUgNC4yMzQzNzVsMCA5Ljc5Njg3NWwtNC4wIDBsMCAtOS4yODEyNXEwIC0yLjI2NTYyNSAtMS4wIC0zLjM5MDYyNXEtMC45ODQzNzUgLTEuMTI1IC0yLjg0Mzc1IC0xLjEyNXEtMS4zMTI1IDAgLTIuMzI4MTI1IDAuNTc4MTI1cS0xLjAgMC41NzgxMjUgLTEuNTYyNSAxLjcwMzEyNXEtMC41NjI1IDEuMTA5Mzc1IC0wLjU2MjUgMi44NDM3NWwwIDguNjcxODc1bC00LjAgMGwwIC05LjI4MTI1cTAgLTIuMjY1NjI1IC0xLjAgLTMuMzkwNjI1cS0wLjk4NDM3NSAtMS4xMjUgLTIuODI4MTI1IC0xLjEyNXEtMS4zMTI1IDAgLTIuMzI4MTI1IDAuNTc4MTI1cS0xLjAgMC41NzgxMjUgLTEuNTYyNSAxLjcwMzEyNXEtMC41NjI1IDEuMTA5Mzc1IC0wLjU2MjUgMi44NDM3NWwwIDguNjcxODc1bC00LjAgMGwwIC0xNy4wOTM3NWwzLjgxMjUgMGwwIDQuNTQ2ODc1bC0wLjY3MTg3NSAtMS4zNDM3NXEwLjg1OTM3NSAtMS42NTYyNSAyLjUgLTIuNTE1NjI1cTEuNjU2MjUgLTAuODc1IDMuNzY1NjI1IC0wLjg3NXEyLjQwNjI1IDAgNC4xNzE4NzUgMS4xODc1cTEuNzgxMjUgMS4xODc1IDIuMzU5Mzc1IDMuNTc4MTI1bC0xLjU3ODEyNSAtMC41NDY4NzVxMC44NDM3NSAtMS45MDYyNSAyLjc1IC0zLjA2MjVxMS45MjE4NzUgLTEuMTU2MjUgNC40NTMxMjUgLTEuMTU2MjV6IiBmaWxsPSIjZmZmZmZmIi8+PHBhdGggZmlsbC1ydWxlPSJldmVub2RkIiBkPSJtMjQ5LjUzMjY3IDM2Ny4yMjgzM2w1MTIuNjYxNDQgMGwwIDE4OS42MDYzMmwtNTEyLjY2MTQ0IDB6IiBmaWxsPSIjMTQ0NDlhIi8+PHBhdGggZmlsbC1ydWxlPSJub256ZXJvIiBkPSJtMjg3LjkwNzY1IDQyMy4yNjA4M3EtMi41NjI1IDAgLTQuNzUgLTAuODQzNzVxLTIuMTg3NSAtMC44NDM3NSAtMy44MTI1IC0yLjM5MDYyNXEtMS42MDkzNzUgLTEuNTYyNSAtMi41MTU2MjUgLTMuNjcxODc1cS0wLjg5MDYyNSAtMi4xMDkzNzUgLTAuODkwNjI1IC00LjYwOTM3NXEwIC0yLjUgMC44OTA2MjUgLTQuNjA5Mzc1cTAuOTA2MjUgLTIuMTA5Mzc1IDIuNTMxMjUgLTMuNjU2MjVxMS42NDA2MjUgLTEuNTYyNSAzLjgxMjUgLTIuNDA2MjVxMi4xNzE4NzUgLTAuODQzNzUgNC43NjU2MjUgLTAuODQzNzVxMi43NSAwIDUuMDE1NjI1IDAuOTUzMTI1cTIuMjgxMjUgMC45Mzc1IDMuODQzNzUgMi43OTY4NzVsLTIuNjg3NSAyLjUxNTYyNXEtMS4yMDMxMjUgLTEuMzEyNSAtMi43MTg3NSAtMS45Njg3NXEtMS41IC0wLjY1NjI1IC0zLjI2NTYyNSAtMC42NTYyNXEtMS43NSAwIC0zLjIxODc1IDAuNTc4MTI1cS0xLjQ1MzEyNSAwLjU3ODEyNSAtMi41MzEyNSAxLjY0MDYyNXEtMS4wNjI1IDEuMDQ2ODc1IC0xLjY1NjI1IDIuNXEtMC41OTM3NSAxLjQzNzUgLTAuNTkzNzUgMy4xNTYyNXEwIDEuNzM0Mzc1IDAuNTkzNzUgMy4xNzE4NzVxMC41OTM3NSAxLjQzNzUgMS42NTYyNSAyLjVxMS4wNzgxMjUgMS4wNDY4NzUgMi41MzEyNSAxLjYyNXExLjQ2ODc1IDAuNTc4MTI1IDMuMjE4NzUgMC41NzgxMjVxMS43NjU2MjUgMCAzLjI2NTYyNSAtMC42NTYyNXExLjUxNTYyNSAtMC42NTYyNSAyLjcxODc1IC0yLjBsMi42ODc1IDIuNTYyNXEtMS41NjI1IDEuODI4MTI1IC0zLjg0Mzc1IDIuNzgxMjVxLTIuMjY1NjI1IDAuOTUzMTI1IC01LjA0Njg3NSAwLjk1MzEyNXptMTIuOTA0Njk0IC0wLjMxMjVsMCAtMjIuNDA2MjVsOS4yMDMxMjUgMHEyLjk4NDM3NSAwIDUuMTA5Mzc1IDAuOTY4NzVxMi4xMjUgMC45NTMxMjUgMy4yODEyNSAyLjc1cTEuMTU2MjUgMS43OTY4NzUgMS4xNTYyNSA0LjI1cTAgMi40Njg3NSAtMS4xNTYyNSA0LjI1cS0xLjE1NjI1IDEuNzY1NjI1IC0zLjI4MTI1IDIuNzE4NzVxLTIuMTI1IDAuOTM3NSAtNS4xMDkzNzUgMC45Mzc1bC02LjkwNjI1IDBsMS44NTkzNzUgLTEuODkwNjI1bDAgOC40MjE4NzVsLTQuMTU2MjUgMHptMTQuNjQwNjI1IDBsLTUuNjU2MjUgLTguMTI1bDQuNDUzMTI1IDBsNS42ODc1IDguMTI1bC00LjQ4NDM3NSAwem0tMTAuNDg0Mzc1IC03Ljk2ODc1bC0xLjg1OTM3NSAtMS45ODQzNzVsNi43MTg3NSAwcTIuNzUgMCA0LjE0MDYyNSAtMS4xNzE4NzVxMS4zOTA2MjUgLTEuMTg3NSAxLjM5MDYyNSAtMy4zMTI1cTAgLTIuMTQwNjI1IC0xLjM5MDYyNSAtMy4yODEyNXEtMS4zOTA2MjUgLTEuMTU2MjUgLTQuMTQwNjI1IC0xLjE1NjI1bC02LjcxODc1IDBsMS44NTkzNzUgLTIuMDQ2ODc1bDAgMTIuOTUzMTI1em0yMy4wNjM5MDQgLTUuMTI1bDExLjE0MDYyNSAwbDAgMy40Mzc1bC0xMS4xNDA2MjUgMGwwIC0zLjQzNzV6bTAuMzI4MTI1IDkuNjA5Mzc1bDEyLjY0MDYyNSAwbDAgMy40ODQzNzVsLTE2Ljc5Njg3NSAwbDAgLTIyLjQwNjI1bDE2LjM0Mzc1IDBsMCAzLjVsLTEyLjE4NzUgMGwwIDE1LjQyMTg3NXptMTQuMTExOTM4IDMuNDg0Mzc1bDEwLjA3ODEyNSAtMjIuNDA2MjVsNC4wOTM3NSAwbDEwLjEwOTM3NSAyMi40MDYyNWwtNC4zNDM3NSAwbC04LjY3MTg3NSAtMjAuMTg3NWwxLjY1NjI1IDBsLTguNjQwNjI1IDIwLjE4NzVsLTQuMjgxMjUgMHptNC42NDA2MjUgLTUuMTg3NWwxLjEwOTM3NSAtMy4yNjU2MjVsMTIuMTA5Mzc1IDBsMS4xMDkzNzUgMy4yNjU2MjVsLTE0LjMyODEyNSAwem0yNS45MTA1NTMgNS4xODc1bDAgLTE4Ljg3NWwtNy40MjE4NzUgMGwwIC0zLjUzMTI1bDE5LjAxNTYyNSAwbDAgMy41MzEyNWwtNy40MjE4NzUgMGwwIDE4Ljg3NWwtNC4xNzE4NzUgMHptMTguNTYwOTEzIC0xMy4wOTM3NWwxMS4xNDA2MjUgMGwwIDMuNDM3NWwtMTEuMTQwNjI1IDBsMCAtMy40Mzc1em0wLjMyODEyNSA5LjYwOTM3NWwxMi42NDA2MjUgMGwwIDMuNDg0Mzc1bC0xNi43OTY4NzUgMGwwIC0yMi40MDYyNWwxNi4zNDM3NSAwbDAgMy41bC0xMi4xODc1IDBsMCAxNS40MjE4NzV6bTMwLjY0NzA2NCAzLjQ4NDM3NWwwIC0xOC44NzVsLTcuNDIxODc1IDBsMCAtMy41MzEyNWwxOS4wMTU2MjUgMGwwIDMuNTMxMjVsLTcuNDIxODc1IDBsMCAxOC44NzVsLTQuMTcxODc1IDB6bTEwLjQ0MDkxOCAwbDEwLjA3ODEyNSAtMjIuNDA2MjVsNC4wOTM3NSAwbDEwLjEwOTM3NSAyMi40MDYyNWwtNC4zNDM3NSAwbC04LjY3MTg3NSAtMjAuMTg3NWwxLjY1NjI1IDBsLTguNjQwNjI1IDIwLjE4NzVsLTQuMjgxMjUgMHptNC42NDA2MjUgLTUuMTg3NWwxLjEwOTM3NSAtMy4yNjU2MjVsMTIuMTA5Mzc1IDBsMS4xMDkzNzUgMy4yNjU2MjVsLTE0LjMyODEyNSAwem0yMi40OTkyOTggNS4xODc1bDAgLTIyLjQwNjI1bDEwLjQ4NDM3NSAwcTQuMDMxMjUgMCA2LjE0MDYyNSAxLjU5Mzc1cTIuMTI1IDEuNTc4MTI1IDIuMTI1IDQuMjM0Mzc1cTAgMS43OTY4NzUgLTAuODQzNzUgMy4wNjI1cS0wLjgyODEyNSAxLjI2NTYyNSAtMi4yMTg3NSAxLjk1MzEyNXEtMS4zOTA2MjUgMC42ODc1IC0zLjAxNTYyNSAwLjY4NzVsMC41NjI1IC0xLjE1NjI1cTEuODkwNjI1IDAgMy4zOTA2MjUgMC42ODc1cTEuNTE1NjI1IDAuNjg3NSAyLjM5MDYyNSAyLjBxMC44NzUgMS4zMTI1IDAuODc1IDMuMjY1NjI1cTAgMi44NzUgLTIuMjAzMTI1IDQuNDg0Mzc1cS0yLjIwMzEyNSAxLjU5Mzc1IC02LjU2MjUgMS41OTM3NWwtMTEuMTI1IDB6bTQuMTU2MjUgLTMuMjY1NjI1bDYuNzE4NzUgMHEyLjMyODEyNSAwIDMuNTc4MTI1IC0wLjc2NTYyNXExLjI1IC0wLjc2NTYyNSAxLjI1IC0yLjQ2ODc1cTAgLTEuNjU2MjUgLTEuMjUgLTIuNDM3NXEtMS4yNSAtMC43OTY4NzUgLTMuNTc4MTI1IC0wLjc5Njg3NWwtNy4wNDY4NzUgMGwwIC0zLjIxODc1bDYuMjE4NzUgMHEyLjE3MTg3NSAwIDMuMzI4MTI1IC0wLjc2NTYyNXExLjE3MTg3NSAtMC43ODEyNSAxLjE3MTg3NSAtMi4zMTI1cTAgLTEuNTYyNSAtMS4xNzE4NzUgLTIuMzI4MTI1cS0xLjE1NjI1IC0wLjc4MTI1IC0zLjMyODEyNSAtMC43ODEyNWwtNS44OTA2MjUgMGwwIDE1Ljg3NXptMjAuMTk1OCAzLjI2NTYyNWwwIC0yMi40MDYyNWw0LjE1NjI1IDBsMCAxOC44OTA2MjVsMTEuNzAzMTI1IDBsMCAzLjUxNTYyNWwtMTUuODU5Mzc1IDB6bTIyLjk5NjE1NSAtMTMuMDkzNzVsMTEuMTQwNjI1IDBsMCAzLjQzNzVsLTExLjE0MDYyNSAwbDAgLTMuNDM3NXptMC4zMjgxMjUgOS42MDkzNzVsMTIuNjQwNjI1IDBsMCAzLjQ4NDM3NWwtMTYuNzk2ODc1IDBsMCAtMjIuNDA2MjVsMTYuMzQzNzUgMGwwIDMuNWwtMTIuMTg3NSAwbDAgMTUuNDIxODc1em0zNi42MDAyMiAzLjc5Njg3NXEtMi42MjUgMCAtNC44MjgxMjUgLTAuODU5Mzc1cS0yLjIwMzEyNSAtMC44NTkzNzUgLTMuODQzNzUgLTIuNDA2MjVxLTEuNjI1IC0xLjU2MjUgLTIuNTMxMjUgLTMuNjU2MjVxLTAuODkwNjI1IC0yLjA5Mzc1IC0wLjg5MDYyNSAtNC41OTM3NXEwIC0yLjUgMC44OTA2MjUgLTQuNTkzNzVxMC45MDYyNSAtMi4wOTM3NSAyLjUzMTI1IC0zLjY0MDYyNXExLjY0MDYyNSAtMS41NDY4NzUgMy44NDM3NSAtMi40MDYyNXEyLjIwMzEyNSAtMC44NzUgNC43OTY4NzUgLTAuODc1cTIuNjI1IDAgNC44MTI1IDAuODc1cTIuMjAzMTI1IDAuODU5Mzc1IDMuODI4MTI1IDIuNDA2MjVxMS42NDA2MjUgMS41NDY4NzUgMi41MzEyNSAzLjY0MDYyNXEwLjg5MDYyNSAyLjA5Mzc1IDAuODkwNjI1IDQuNTkzNzVxMCAyLjUgLTAuODkwNjI1IDQuNjA5Mzc1cS0wLjg5MDYyNSAyLjEwOTM3NSAtMi41MzEyNSAzLjY1NjI1cS0xLjYyNSAxLjUzMTI1IC0zLjgyODEyNSAyLjM5MDYyNXEtMi4xODc1IDAuODU5Mzc1IC00Ljc4MTI1IDAuODU5Mzc1em0tMC4wMzEyNSAtMy42NDA2MjVxMS43MDMxMjUgMCAzLjE0MDYyNSAtMC41NzgxMjVxMS40Mzc1IC0wLjU3ODEyNSAyLjQ4NDM3NSAtMS42NDA2MjVxMS4wNjI1IC0xLjA3ODEyNSAxLjY1NjI1IC0yLjVxMC41OTM3NSAtMS40MjE4NzUgMC41OTM3NSAtMy4xNTYyNXEwIC0xLjcxODc1IC0wLjU5Mzc1IC0zLjE0MDYyNXEtMC41OTM3NSAtMS40Mzc1IC0xLjY1NjI1IC0yLjVxLTEuMDQ2ODc1IC0xLjA3ODEyNSAtMi40ODQzNzUgLTEuNjU2MjVxLTEuNDM3NSAtMC41NzgxMjUgLTMuMTQwNjI1IC0wLjU3ODEyNXEtMS42ODc1IDAgLTMuMTI1IDAuNTc4MTI1cS0xLjQyMTg3NSAwLjU3ODEyNSAtMi41IDEuNjU2MjVxLTEuMDYyNSAxLjA2MjUgLTEuNjU2MjUgMi41cS0wLjU5Mzc1IDEuNDIxODc1IC0wLjU5Mzc1IDMuMTQwNjI1cTAgMS43MDMxMjUgMC41OTM3NSAzLjE0MDYyNXEwLjU5Mzc1IDEuNDM3NSAxLjY0MDYyNSAyLjUxNTYyNXExLjA2MjUgMS4wNjI1IDIuNSAxLjY0MDYyNXExLjQ1MzEyNSAwLjU3ODEyNSAzLjE0MDYyNSAwLjU3ODEyNXptMTYuMTAwMjggMy4zMjgxMjVsMCAtMTcuMDkzNzVsMy44MTI1IDBsMCA0LjcwMzEyNWwtMC40NTMxMjUgLTEuMzc1cTAuNzY1NjI1IC0xLjcxODc1IDIuNDA2MjUgLTIuNjA5Mzc1cTEuNjU2MjUgLTAuOTA2MjUgNC4xMjUgLTAuOTA2MjVsMCAzLjgxMjVxLTAuMjY1NjI1IC0wLjA2MjUgLTAuNDg0Mzc1IC0wLjA3ODEyNXEtMC4yMTg3NSAtMC4wMTU2MjUgLTAuNDUzMTI1IC0wLjAxNTYyNXEtMi4yNjU2MjUgMCAtMy42MDkzNzUgMS4zMjgxMjVxLTEuMzQzNzUgMS4zMjgxMjUgLTEuMzQzNzUgMy45NTMxMjVsMCA4LjI4MTI1bC00LjAgMHptMjAuMzU0NDMxIDAuMjE4NzVxLTIuNDY4NzUgMCAtNC40Mzc1IC0xLjA5Mzc1cS0xLjk2ODc1IC0xLjEwOTM3NSAtMy4wOTM3NSAtMy4wNjI1cS0xLjEwOTM3NSAtMS45NTMxMjUgLTEuMTA5Mzc1IC00LjYwOTM3NXEwIC0yLjY1NjI1IDEuMTA5Mzc1IC00LjYwOTM3NXExLjEyNSAtMS45NTMxMjUgMy4wOTM3NSAtMy4wMzEyNXExLjk2ODc1IC0xLjA5Mzc1IDQuNDM3NSAtMS4wOTM3NXEyLjE0MDYyNSAwIDMuODI4MTI1IDAuOTUzMTI1cTEuNzAzMTI1IDAuOTM3NSAyLjY4NzUgMi44NTkzNzVxMS4wIDEuOTIxODc1IDEuMCA0LjkyMTg3NXEwIDIuOTg0Mzc1IC0wLjk2ODc1IDQuOTIxODc1cS0wLjk1MzEyNSAxLjkyMTg3NSAtMi42NTYyNSAyLjg5MDYyNXEtMS42ODc1IDAuOTUzMTI1IC0zLjg5MDYyNSAwLjk1MzEyNXptMC40ODQzNzUgLTMuNDIxODc1cTEuNDM3NSAwIDIuNTYyNSAtMC42NDA2MjVxMS4xNDA2MjUgLTAuNjQwNjI1IDEuODI4MTI1IC0xLjg0Mzc1cTAuNjg3NSAtMS4yMTg3NSAwLjY4NzUgLTIuODU5Mzc1cTAgLTEuNjU2MjUgLTAuNjg3NSAtMi44NTkzNzVxLTAuNjg3NSAtMS4yMDMxMjUgLTEuODI4MTI1IC0xLjg0Mzc1cS0xLjEyNSAtMC42NDA2MjUgLTIuNTYyNSAtMC42NDA2MjVxLTEuNDUzMTI1IDAgLTIuNTkzNzUgMC42NDA2MjVxLTEuMTI1IDAuNjQwNjI1IC0xLjgxMjUgMS44NDM3NXEtMC42ODc1IDEuMjAzMTI1IC0wLjY4NzUgMi44NTkzNzVxMCAxLjY0MDYyNSAwLjY4NzUgMi44NTkzNzVxMC42ODc1IDEuMjAzMTI1IDEuODEyNSAxLjg0Mzc1cTEuMTQwNjI1IDAuNjQwNjI1IDIuNTkzNzUgMC42NDA2MjV6bTUuMTcxODc1IDMuMjAzMTI1bDAgLTQuMDMxMjVsMC4xNzE4NzUgLTQuNTQ2ODc1bC0wLjMyODEyNSAtNC41NDY4NzVsMCAtMTAuNjI1bDMuOTY4NzUgMGwwIDIzLjc1bC0zLjgxMjUgMHptMTcuMTI0NjM0IDAuMjE4NzVxLTIuODQzNzUgMCAtNC45ODQzNzUgLTEuMTI1cS0yLjEyNSAtMS4xNDA2MjUgLTMuMjk2ODc1IC0zLjEyNXEtMS4xNTYyNSAtMS45ODQzNzUgLTEuMTU2MjUgLTQuNTE1NjI1cTAgLTIuNTYyNSAxLjEyNSAtNC41MzEyNXExLjE0MDYyNSAtMS45Njg3NSAzLjE0MDYyNSAtMy4wNzgxMjVxMi4wIC0xLjEyNSA0LjU2MjUgLTEuMTI1cTIuNSAwIDQuNDUzMTI1IDEuMDkzNzVxMS45NTMxMjUgMS4wNzgxMjUgMy4wNjI1IDMuMDYyNXExLjEyNSAxLjk4NDM3NSAxLjEyNSA0LjY3MTg3NXEwIDAuMjY1NjI1IC0wLjAxNTYyNSAwLjU5Mzc1cS0wLjAxNTYyNSAwLjMxMjUgLTAuMDQ2ODc1IDAuNTkzNzVsLTE0LjIzNDM3NSAwbDAgLTIuNjU2MjVsMTIuMTI1IDBsLTEuNTc4MTI1IDAuODI4MTI1cTAuMDMxMjUgLTEuNDY4NzUgLTAuNjA5Mzc1IC0yLjU3ODEyNXEtMC42MjUgLTEuMTI1IC0xLjczNDM3NSAtMS43NjU2MjVxLTEuMTA5Mzc1IC0wLjY0MDYyNSAtMi41NDY4NzUgLTAuNjQwNjI1cS0xLjQ2ODc1IDAgLTIuNTc4MTI1IDAuNjQwNjI1cS0xLjA5Mzc1IDAuNjQwNjI1IC0xLjcxODc1IDEuNzgxMjVxLTAuNjI1IDEuMTI1IC0wLjYyNSAyLjY3MTg3NWwwIDAuNjI1cTAgMS41NDY4NzUgMC43MDMxMjUgMi43MzQzNzVxMC43MDMxMjUgMS4xNzE4NzUgMS45ODQzNzUgMS44MTI1cTEuMjgxMjUgMC42NDA2MjUgMi45Mzc1IDAuNjQwNjI1cTEuNDM3NSAwIDIuNTkzNzUgLTAuNDM3NXExLjE1NjI1IC0wLjQ1MzEyNSAyLjA0Njg3NSAtMS40MjE4NzVsMi4xNDA2MjUgMi40Njg3NXEtMS4xNDA2MjUgMS4zNDM3NSAtMi44OTA2MjUgMi4wNjI1cS0xLjc1IDAuNzE4NzUgLTMuOTg0Mzc1IDAuNzE4NzV6bTExLjg3MjgwMyAtMC4yMTg3NWwwIC0xNy4wOTM3NWwzLjgxMjUgMGwwIDQuNzAzMTI1bC0wLjQ1MzEyNSAtMS4zNzVxMC43NjU2MjUgLTEuNzE4NzUgMi40MDYyNSAtMi42MDkzNzVxMS42NTYyNSAtMC45MDYyNSA0LjEyNSAtMC45MDYyNWwwIDMuODEyNXEtMC4yNjU2MjUgLTAuMDYyNSAtMC40ODQzNzUgLTAuMDc4MTI1cS0wLjIxODc1IC0wLjAxNTYyNSAtMC40NTMxMjUgLTAuMDE1NjI1cS0yLjI2NTYyNSAwIC0zLjYwOTM3NSAxLjMyODEyNXEtMS4zNDM3NSAxLjMyODEyNSAtMS4zNDM3NSAzLjk1MzEyNWwwIDguMjgxMjVsLTQuMCAwem0xOC43MjEzMTMgMC4yMTg3NXEtMi4xNDA2MjUgMCAtNC4xMDkzNzUgLTAuNTQ2ODc1cS0xLjk2ODc1IC0wLjU2MjUgLTMuMTI1IC0xLjM3NWwxLjUzMTI1IC0zLjAzMTI1cTEuMTU2MjUgMC43MzQzNzUgMi43NSAxLjIxODc1cTEuNjA5Mzc1IDAuNDY4NzUgMy4yMDMxMjUgMC40Njg3NXExLjg5MDYyNSAwIDIuNzM0Mzc1IC0wLjVxMC44NTkzNzUgLTAuNTE1NjI1IDAuODU5Mzc1IC0xLjM3NXEwIC0wLjcwMzEyNSAtMC41NzgxMjUgLTEuMDc4MTI1cS0wLjU3ODEyNSAtMC4zNzUgLTEuNTE1NjI1IC0wLjU2MjVxLTAuOTIxODc1IC0wLjE4NzUgLTIuMDYyNSAtMC4zNDM3NXEtMS4xMjUgLTAuMTcxODc1IC0yLjI2NTYyNSAtMC40Mzc1cS0xLjE0MDYyNSAtMC4yNjU2MjUgLTIuMDYyNSAtMC43OTY4NzVxLTAuOTIxODc1IC0wLjUzMTI1IC0xLjUgLTEuNDIxODc1cS0wLjU3ODEyNSAtMC45MDYyNSAtMC41NzgxMjUgLTIuMzc1cTAgLTEuNjI1IDAuOTIxODc1IC0yLjgyODEyNXEwLjkzNzUgLTEuMjAzMTI1IDIuNjA5Mzc1IC0xLjg1OTM3NXExLjY4NzUgLTAuNjU2MjUgMy45ODQzNzUgLTAuNjU2MjVxMS43MzQzNzUgMCAzLjQ4NDM3NSAwLjM5MDYyNXExLjc2NTYyNSAwLjM3NSAyLjkyMTg3NSAxLjA3ODEyNWwtMS41NDY4NzUgMy4wNDY4NzVxLTEuMjAzMTI1IC0wLjczNDM3NSAtMi40Mzc1IC0xLjBxLTEuMjM0Mzc1IC0wLjI4MTI1IC0yLjQ1MzEyNSAtMC4yODEyNXEtMS44MjgxMjUgMCAtMi43MDMxMjUgMC41NDY4NzVxLTAuODc1IDAuNTQ2ODc1IC0wLjg3NSAxLjM3NXEwIDAuNzY1NjI1IDAuNTYyNSAxLjE1NjI1cTAuNTc4MTI1IDAuMzc1IDEuNSAwLjYwOTM3NXEwLjkzNzUgMC4yMTg3NSAyLjA3ODEyNSAwLjM1OTM3NXExLjE0MDYyNSAwLjE0MDYyNSAyLjI1IDAuNDM3NXExLjEyNSAwLjI4MTI1IDIuMDYyNSAwLjc4MTI1cTAuOTUzMTI1IDAuNSAxLjUxNTYyNSAxLjM5MDYyNXEwLjU3ODEyNSAwLjg5MDYyNSAwLjU3ODEyNSAyLjMyODEyNXEwIDEuNjA5Mzc1IC0wLjkzNzUgMi43OTY4NzVxLTAuOTM3NSAxLjE3MTg3NSAtMi42NzE4NzUgMS44MjgxMjVxLTEuNzM0Mzc1IDAuNjU2MjUgLTQuMTI1IDAuNjU2MjV6IiBmaWxsPSIjZmZmZmZmIi8+PHBhdGggZmlsbC1ydWxlPSJub256ZXJvIiBkPSJtMjg5Ljk1ODQ0IDQ3OC4yMTgxNHEtMS44OTA2MjUgLTIuOTA2MjUgLTIuOTA2MjUgLTYuNzM0Mzc1cS0xLjAgLTMuODI4MTI1IC0xLjAgLTguMjM0Mzc1cTAgLTQuNDIxODc1IDEuMCAtOC4yNjU2MjVxMS4wMTU2MjUgLTMuODU5Mzc1IDIuOTA2MjUgLTYuNzE4NzVsMy44MTI1IDBxLTEuOTUzMTI1IDMuNTMxMjUgLTIuODc1IDcuMjAzMTI1cS0wLjkwNjI1IDMuNjU2MjUgLTAuOTA2MjUgNy43ODEyNXEwIDQuMTI1IDAuOTA2MjUgNy43OTY4NzVxMC45MjE4NzUgMy42NTYyNSAyLjg3NSA3LjE3MTg3NWwtMy44MTI1IDB6bTcuMTM1MjU0IC02LjIwMzEyNWwwIC0xNy4wOTM3NWw0LjAgMGwwIDE3LjA5Mzc1bC00LjAgMHptMi4wMTU2MjUgLTE5LjkwNjI1cS0xLjEwOTM3NSAwIC0xLjgyODEyNSAtMC43MDMxMjVxLTAuNzE4NzUgLTAuNzAzMTI1IC0wLjcxODc1IC0xLjY4NzVxMCAtMS4wMzEyNSAwLjcxODc1IC0xLjcxODc1cTAuNzE4NzUgLTAuNjg3NSAxLjgyODEyNSAtMC42ODc1cTEuMTI1IDAgMS44NDM3NSAwLjY1NjI1cTAuNzE4NzUgMC42NTYyNSAwLjcxODc1IDEuNjQwNjI1cTAgMS4wNjI1IC0wLjcwMzEyNSAxLjc4MTI1cS0wLjcwMzEyNSAwLjcxODc1IC0xLjg1OTM3NSAwLjcxODc1em0xMy42Njk4OTEgMjAuMTI1cS0yLjgyODEyNSAwIC00LjM1OTM3NSAtMS40NTMxMjVxLTEuNTMxMjUgLTEuNDUzMTI1IC0xLjUzMTI1IC00LjI5Njg3NWwwIC0xNS4zMjgxMjVsNC4wIDBsMCAxNS4yMzQzNzVxMCAxLjIwMzEyNSAwLjYyNSAxLjg3NXEwLjYyNSAwLjY3MTg3NSAxLjczNDM3NSAwLjY3MTg3NXExLjM0Mzc1IDAgMi4yNSAtMC43MDMxMjVsMS4xMDkzNzUgMi44NTkzNzVxLTAuNzAzMTI1IDAuNTYyNSAtMS43MzQzNzUgMC44NTkzNzVxLTEuMDE1NjI1IDAuMjgxMjUgLTIuMDkzNzUgMC4yODEyNXptLTguNzAzMTI1IC0xMy45ODQzNzVsMCAtMy4xODc1bDExLjM5MDYyNSAwbDAgMy4xODc1bC0xMS4zOTA2MjUgMHptMjMuMjg4OTEgMTMuOTg0Mzc1cS0yLjg0Mzc1IDAgLTQuOTg0Mzc1IC0xLjEyNXEtMi4xMjUgLTEuMTQwNjI1IC0zLjI5Njg3NSAtMy4xMjVxLTEuMTU2MjUgLTEuOTg0Mzc1IC0xLjE1NjI1IC00LjUxNTYyNXEwIC0yLjU2MjUgMS4xMjUgLTQuNTMxMjVxMS4xNDA2MjUgLTEuOTY4NzUgMy4xNDA2MjUgLTMuMDc4MTI1cTIuMCAtMS4xMjUgNC41NjI1IC0xLjEyNXEyLjUgMCA0LjQ1MzEyNSAxLjA5Mzc1cTEuOTUzMTI1IDEuMDc4MTI1IDMuMDYyNSAzLjA2MjVxMS4xMjUgMS45ODQzNzUgMS4xMjUgNC42NzE4NzVxMCAwLjI2NTYyNSAtMC4wMTU2MjUgMC41OTM3NXEtMC4wMTU2MjUgMC4zMTI1IC0wLjA0Njg3NSAwLjU5Mzc1bC0xNC4yMzQzNzUgMGwwIC0yLjY1NjI1bDEyLjEyNSAwbC0xLjU3ODEyNSAwLjgyODEyNXEwLjAzMTI1IC0xLjQ2ODc1IC0wLjYwOTM3NSAtMi41NzgxMjVxLTAuNjI1IC0xLjEyNSAtMS43MzQzNzUgLTEuNzY1NjI1cS0xLjEwOTM3NSAtMC42NDA2MjUgLTIuNTQ2ODc1IC0wLjY0MDYyNXEtMS40Njg3NSAwIC0yLjU3ODEyNSAwLjY0MDYyNXEtMS4wOTM3NSAwLjY0MDYyNSAtMS43MTg3NSAxLjc4MTI1cS0wLjYyNSAxLjEyNSAtMC42MjUgMi42NzE4NzVsMCAwLjYyNXEwIDEuNTQ2ODc1IDAuNzAzMTI1IDIuNzM0Mzc1cTAuNzAzMTI1IDEuMTcxODc1IDEuOTg0Mzc1IDEuODEyNXExLjI4MTI1IDAuNjQwNjI1IDIuOTM3NSAwLjY0MDYyNXExLjQzNzUgMCAyLjU5Mzc1IC0wLjQzNzVxMS4xNTYyNSAtMC40NTMxMjUgMi4wNDY4NzUgLTEuNDIxODc1bDIuMTQwNjI1IDIuNDY4NzVxLTEuMTQwNjI1IDEuMzQzNzUgLTIuODkwNjI1IDIuMDYyNXEtMS43NSAwLjcxODc1IC0zLjk4NDM3NSAwLjcxODc1em0zMy40MzUyNzIgLTE3LjVxMi4wNDY4NzUgMCAzLjYyNSAwLjc5Njg3NXExLjU5Mzc1IDAuNzk2ODc1IDIuNDg0Mzc1IDIuNDUzMTI1cTAuOTA2MjUgMS42NDA2MjUgMC45MDYyNSA0LjIzNDM3NWwwIDkuNzk2ODc1bC00LjAgMGwwIC05LjI4MTI1cTAgLTIuMjY1NjI1IC0xLjAgLTMuMzkwNjI1cS0wLjk4NDM3NSAtMS4xMjUgLTIuODQzNzUgLTEuMTI1cS0xLjMxMjUgMCAtMi4zMjgxMjUgMC41NzgxMjVxLTEuMCAwLjU3ODEyNSAtMS41NjI1IDEuNzAzMTI1cS0wLjU2MjUgMS4xMDkzNzUgLTAuNTYyNSAyLjg0Mzc1bDAgOC42NzE4NzVsLTQuMCAwbDAgLTkuMjgxMjVxMCAtMi4yNjU2MjUgLTEuMCAtMy4zOTA2MjVxLTAuOTg0Mzc1IC0xLjEyNSAtMi44MjgxMjUgLTEuMTI1cS0xLjMxMjUgMCAtMi4zMjgxMjUgMC41NzgxMjVxLTEuMCAwLjU3ODEyNSAtMS41NjI1IDEuNzAzMTI1cS0wLjU2MjUgMS4xMDkzNzUgLTAuNTYyNSAyLjg0Mzc1bDAgOC42NzE4NzVsLTQuMCAwbDAgLTE3LjA5Mzc1bDMuODEyNSAwbDAgNC41NDY4NzVsLTAuNjcxODc1IC0xLjM0Mzc1cTAuODU5Mzc1IC0xLjY1NjI1IDIuNSAtMi41MTU2MjVxMS42NTYyNSAtMC44NzUgMy43NjU2MjUgLTAuODc1cTIuNDA2MjUgMCA0LjE3MTg3NSAxLjE4NzVxMS43ODEyNSAxLjE4NzUgMi4zNTkzNzUgMy41NzgxMjVsLTEuNTc4MTI1IC0wLjU0Njg3NXEwLjg0Mzc1IC0xLjkwNjI1IDIuNzUgLTMuMDYyNXExLjkyMTg3NSAtMS4xNTYyNSA0LjQ1MzEyNSAtMS4xNTYyNXptMjguMjkzNzMyIDE3LjU5Mzc1cS0yLjYyNSAwIC01LjAzMTI1IC0wLjc1cS0yLjM5MDYyNSAtMC43NSAtMy43OTY4NzUgLTEuOTM3NWwxLjQzNzUgLTMuMjE4NzVxMS4zNDM3NSAxLjA0Njg3NSAzLjMyODEyNSAxLjc1cTEuOTg0Mzc1IDAuNzAzMTI1IDQuMDYyNSAwLjcwMzEyNXExLjc2NTYyNSAwIDIuODQzNzUgLTAuMzc1cTEuMDkzNzUgLTAuMzkwNjI1IDEuNTkzNzUgLTEuMDQ2ODc1cTAuNTE1NjI1IC0wLjY1NjI1IDAuNTE1NjI1IC0xLjQ4NDM3NXEwIC0xLjAzMTI1IC0wLjczNDM3NSAtMS42NDA2MjVxLTAuNzM0Mzc1IC0wLjYyNSAtMS45MDYyNSAtMS4wcS0xLjE1NjI1IC0wLjM3NSAtMi41OTM3NSAtMC42ODc1cS0xLjQyMTg3NSAtMC4zMjgxMjUgLTIuODQzNzUgLTAuNzVxLTEuNDIxODc1IC0wLjQzNzUgLTIuNTkzNzUgLTEuMTI1cS0xLjE1NjI1IC0wLjY4NzUgLTEuOTA2MjUgLTEuODI4MTI1cS0wLjczNDM3NSAtMS4xNTYyNSAtMC43MzQzNzUgLTIuOTUzMTI1cTAgLTEuODI4MTI1IDAuOTY4NzUgLTMuMzQzNzVxMC45ODQzNzUgLTEuNTE1NjI1IDIuOTg0Mzc1IC0yLjQyMTg3NXEyLjAgLTAuOTIxODc1IDUuMDc4MTI1IC0wLjkyMTg3NXEyLjAxNTYyNSAwIDQuMCAwLjUxNTYyNXExLjk4NDM3NSAwLjUgMy40NTMxMjUgMS40Njg3NWwtMS4zMTI1IDMuMjM0Mzc1cS0xLjUgLTAuOTA2MjUgLTMuMTA5Mzc1IC0xLjMyODEyNXEtMS41OTM3NSAtMC40Mzc1IC0zLjA2MjUgLTAuNDM3NXEtMS43MzQzNzUgMCAtMi44MTI1IDAuNDIxODc1cS0xLjA2MjUgMC40MDYyNSAtMS41NjI1IDEuMDc4MTI1cS0wLjQ4NDM3NSAwLjY3MTg3NSAtMC40ODQzNzUgMS41NDY4NzVxMCAxLjAxNTYyNSAwLjcxODc1IDEuNjQwNjI1cTAuNzE4NzUgMC42MjUgMS44NzUgMC45ODQzNzVxMS4xNzE4NzUgMC4zNDM3NSAyLjYwOTM3NSAwLjY4NzVxMS40NTMxMjUgMC4zMjgxMjUgMi44NzUgMC43NXExLjQyMTg3NSAwLjQwNjI1IDIuNTc4MTI1IDEuMDc4MTI1cTEuMTcxODc1IDAuNjcxODc1IDEuODkwNjI1IDEuODI4MTI1cTAuNzM0Mzc1IDEuMTU2MjUgMC43MzQzNzUgMi45MDYyNXEwIDEuNzk2ODc1IC0wLjk4NDM3NSAzLjMyODEyNXEtMC45Njg3NSAxLjUxNTYyNSAtMi45ODQzNzUgMi40MjE4NzVxLTIuMDE1NjI1IDAuOTA2MjUgLTUuMDkzNzUgMC45MDYyNXptMTcuNDAxNzY0IC0wLjMxMjVsMCAtMTguODc1bC03LjQyMTg3NSAwbDAgLTMuNTMxMjVsMTkuMDE1NjI1IDBsMCAzLjUzMTI1bC03LjQyMTg3NSAwbDAgMTguODc1bC00LjE3MTg3NSAwem0xNC43MzI3ODggMGwwIC0yMi40MDYyNWw5LjIwMzEyNSAwcTIuOTg0Mzc1IDAgNS4xMDkzNzUgMC45Njg3NXEyLjEyNSAwLjk1MzEyNSAzLjI4MTI1IDIuNzVxMS4xNTYyNSAxLjc5Njg3NSAxLjE1NjI1IDQuMjVxMCAyLjQ2ODc1IC0xLjE1NjI1IDQuMjVxLTEuMTU2MjUgMS43NjU2MjUgLTMuMjgxMjUgMi43MTg3NXEtMi4xMjUgMC45Mzc1IC01LjEwOTM3NSAwLjkzNzVsLTYuOTA2MjUgMGwxLjg1OTM3NSAtMS44OTA2MjVsMCA4LjQyMTg3NWwtNC4xNTYyNSAwem0xNC42NDA2MjUgMGwtNS42NTYyNSAtOC4xMjVsNC40NTMxMjUgMGw1LjY4NzUgOC4xMjVsLTQuNDg0Mzc1IDB6bS0xMC40ODQzNzUgLTcuOTY4NzVsLTEuODU5Mzc1IC0xLjk4NDM3NWw2LjcxODc1IDBxMi43NSAwIDQuMTQwNjI1IC0xLjE3MTg3NXExLjM5MDYyNSAtMS4xODc1IDEuMzkwNjI1IC0zLjMxMjVxMCAtMi4xNDA2MjUgLTEuMzkwNjI1IC0zLjI4MTI1cS0xLjM5MDYyNSAtMS4xNTYyNSAtNC4xNDA2MjUgLTEuMTU2MjVsLTYuNzE4NzUgMGwxLjg1OTM3NSAtMi4wNDY4NzVsMCAxMi45NTMxMjV6bTE5LjIzNTgxIDcuOTY4NzVsMCAtMjIuNDA2MjVsNC4xNTYyNSAwbDAgMjIuNDA2MjVsLTQuMTU2MjUgMHptMTAuMjA4MDA4IDBsMCAtMjIuNDA2MjVsMy40MjE4NzUgMGwxNC4wNDY4NzUgMTcuMjVsLTEuNzAzMTI1IDBsMCAtMTcuMjVsNC4xMjUgMGwwIDIyLjQwNjI1bC0zLjQyMTg3NSAwbC0xNC4wNDY4NzUgLTE3LjI1bDEuNzAzMTI1IDBsMCAxNy4yNWwtNC4xMjUgMHptMzYuMzczMiAwLjMxMjVxLTIuNjI1IDAgLTQuODEyNSAtMC44NDM3NXEtMi4xODc1IC0wLjg0Mzc1IC0zLjgyODEyNSAtMi4zOTA2MjVxLTEuNjI1IC0xLjU2MjUgLTIuNTMxMjUgLTMuNjcxODc1cS0wLjg5MDYyNSAtMi4xMDkzNzUgLTAuODkwNjI1IC00LjYwOTM3NXEwIC0yLjUgMC44OTA2MjUgLTQuNjA5Mzc1cTAuOTA2MjUgLTIuMTA5Mzc1IDIuNTQ2ODc1IC0zLjY1NjI1cTEuNjU2MjUgLTEuNTYyNSAzLjg1OTM3NSAtMi40MDYyNXEyLjIwMzEyNSAtMC44NDM3NSA0LjgyODEyNSAtMC44NDM3NXEyLjg1OTM3NSAwIDUuMTQwNjI1IDAuOTM3NXEyLjI4MTI1IDAuOTIxODc1IDMuODU5Mzc1IDIuNzAzMTI1bC0yLjYyNSAyLjU2MjVxLTEuMzEyNSAtMS4zMTI1IC0yLjg0Mzc1IC0xLjkzNzVxLTEuNTE1NjI1IC0wLjYyNSAtMy4zMjgxMjUgLTAuNjI1cS0xLjc2NTYyNSAwIC0zLjI4MTI1IDAuNTc4MTI1cS0xLjUgMC41NzgxMjUgLTIuNTkzNzUgMS42NDA2MjVxLTEuMDc4MTI1IDEuMDQ2ODc1IC0xLjY3MTg3NSAyLjVxLTAuNTkzNzUgMS40Mzc1IC0wLjU5Mzc1IDMuMTU2MjVxMCAxLjcwMzEyNSAwLjU5Mzc1IDMuMTQwNjI1cTAuNTkzNzUgMS40Mzc1IDEuNjcxODc1IDIuNTE1NjI1cTEuMDkzNzUgMS4wNjI1IDIuNTYyNSAxLjY0MDYyNXExLjQ4NDM3NSAwLjU3ODEyNSAzLjI4MTI1IDAuNTc4MTI1cTEuNjU2MjUgMCAzLjIwMzEyNSAtMC41MzEyNXExLjU2MjUgLTAuNTMxMjUgMi45Njg3NSAtMS43NjU2MjVsMi4zNTkzNzUgMy4wOTM3NXEtMS43NSAxLjQwNjI1IC00LjA3ODEyNSAyLjEyNXEtMi4zMTI1IDAuNzE4NzUgLTQuNjg3NSAwLjcxODc1em00LjgyODEyNSAtMy4zOTA2MjVsMCAtOC4zNzVsMy45Mzc1IDBsMCA4LjkyMTg3NWwtMy45Mzc1IC0wLjU0Njg3NXptOC4yODk2NzMgNy45MDYyNWwxLjg1OTM3NSAtNy4wNjI1bDAuNTQ2ODc1IDIuMzU5Mzc1cS0xLjEyNSAwIC0xLjg3NSAtMC42ODc1cS0wLjc1IC0wLjY4NzUgLTAuNzUgLTEuODc1cTAgLTEuMjAzMTI1IDAuNzUgLTEuOTIxODc1cTAuNzUgLTAuNzM0Mzc1IDEuODQzNzUgLTAuNzM0Mzc1cTEuMTI1IDAgMS44NTkzNzUgMC43NXEwLjczNDM3NSAwLjczNDM3NSAwLjczNDM3NSAxLjkwNjI1cTAgMC4zMjgxMjUgLTAuMDYyNSAwLjcwMzEyNXEtMC4wNjI1IDAuMzU5Mzc1IC0wLjIxODc1IDAuODQzNzVxLTAuMTQwNjI1IDAuNDY4NzUgLTAuNDUzMTI1IDEuMjAzMTI1bC0xLjY0MDYyNSA0LjUxNTYyNWwtMi41OTM3NSAwem0yNS41NDYyOTUgLTQuNjA5Mzc1cS0yLjY4NzUgMCAtNC43OTY4NzUgLTEuMTI1cS0yLjA5Mzc1IC0xLjE0MDYyNSAtMy4yODEyNSAtMy4xMjVxLTEuMTcxODc1IC0xLjk4NDM3NSAtMS4xNzE4NzUgLTQuNTE1NjI1cTAgLTIuNTYyNSAxLjE3MTg3NSAtNC41MzEyNXExLjE4NzUgLTEuOTY4NzUgMy4yODEyNSAtMy4wNzgxMjVxMi4xMDkzNzUgLTEuMTI1IDQuNzk2ODc1IC0xLjEyNXEyLjQ4NDM3NSAwIDQuMzkwNjI1IDEuMDE1NjI1cTEuOTA2MjUgMS4wIDIuOTA2MjUgMi45NTMxMjVsLTMuMDc4MTI1IDEuNzk2ODc1cS0wLjc2NTYyNSAtMS4yMTg3NSAtMS44NzUgLTEuNzk2ODc1cS0xLjA5Mzc1IC0wLjU3ODEyNSAtMi4zNzUgLTAuNTc4MTI1cS0xLjQ4NDM3NSAwIC0yLjY3MTg3NSAwLjY0MDYyNXEtMS4xNzE4NzUgMC42NDA2MjUgLTEuODQzNzUgMS44NDM3NXEtMC42NzE4NzUgMS4yMDMxMjUgLTAuNjcxODc1IDIuODU5Mzc1cTAgMS42NzE4NzUgMC42NzE4NzUgMi44NzVxMC42NzE4NzUgMS4xODc1IDEuODQzNzUgMS44MjgxMjVxMS4xODc1IDAuNjQwNjI1IDIuNjcxODc1IDAuNjQwNjI1cTEuMjgxMjUgMCAyLjM3NSAtMC41NzgxMjVxMS4xMDkzNzUgLTAuNTc4MTI1IDEuODc1IC0xLjc4MTI1bDMuMDc4MTI1IDEuNzgxMjVxLTEuMCAxLjkyMTg3NSAtMi45MDYyNSAyLjk2ODc1cS0xLjkwNjI1IDEuMDMxMjUgLTQuMzkwNjI1IDEuMDMxMjV6bTE4LjE2NDE4NSAwcS0yLjYwOTM3NSAwIC00LjY3MTg3NSAtMS4xMjVxLTIuMDQ2ODc1IC0xLjE0MDYyNSAtMy4yMzQzNzUgLTMuMTI1cS0xLjE3MTg3NSAtMS45ODQzNzUgLTEuMTcxODc1IC00LjUxNTYyNXEwIC0yLjU2MjUgMS4xNzE4NzUgLTQuNTMxMjVxMS4xODc1IC0xLjk2ODc1IDMuMjM0Mzc1IC0zLjA3ODEyNXEyLjA2MjUgLTEuMTI1IDQuNjcxODc1IC0xLjEyNXEyLjY1NjI1IDAgNC43MTg3NSAxLjEyNXEyLjA3ODEyNSAxLjEwOTM3NSAzLjIzNDM3NSAzLjA2MjVxMS4xNzE4NzUgMS45NTMxMjUgMS4xNzE4NzUgNC41NDY4NzVxMCAyLjUzMTI1IC0xLjE3MTg3NSA0LjUxNTYyNXEtMS4xNTYyNSAxLjk4NDM3NSAtMy4yMzQzNzUgMy4xMjVxLTIuMDYyNSAxLjEyNSAtNC43MTg3NSAxLjEyNXptMCAtMy40MjE4NzVxMS40ODQzNzUgMCAyLjYyNSAtMC42NDA2MjVxMS4xNTYyNSAtMC42NDA2MjUgMS44MTI1IC0xLjg0Mzc1cTAuNjU2MjUgLTEuMjE4NzUgMC42NTYyNSAtMi44NTkzNzVxMCAtMS42NTYyNSAtMC42NTYyNSAtMi44NTkzNzVxLTAuNjU2MjUgLTEuMjAzMTI1IC0xLjgxMjUgLTEuODQzNzVxLTEuMTQwNjI1IC0wLjY0MDYyNSAtMi41NzgxMjUgLTAuNjQwNjI1cS0xLjQ4NDM3NSAwIC0yLjYyNSAwLjY0MDYyNXEtMS4xMjUgMC42NDA2MjUgLTEuNzk2ODc1IDEuODQzNzVxLTAuNjcxODc1IDEuMjAzMTI1IC0wLjY3MTg3NSAyLjg1OTM3NXEwIDEuNjQwNjI1IDAuNjcxODc1IDIuODU5Mzc1cTAuNjcxODc1IDEuMjAzMTI1IDEuNzk2ODc1IDEuODQzNzVxMS4xNDA2MjUgMC42NDA2MjUgMi41NzgxMjUgMC42NDA2MjV6bTIwLjIwMjUxNSAzLjQyMTg3NXEtMi4xNzE4NzUgMCAtMy44NDM3NSAtMC44MTI1cS0xLjY1NjI1IC0wLjgxMjUgLTIuNTkzNzUgLTIuNDg0Mzc1cS0wLjkyMTg3NSAtMS42ODc1IC0wLjkyMTg3NSAtNC4yNWwwIC05Ljc2NTYyNWw0LjAgMGwwIDkuMjE4NzVxMCAyLjMxMjUgMS4wMzEyNSAzLjQ1MzEyNXExLjA0Njg3NSAxLjEyNSAyLjk2ODc1IDEuMTI1cTEuNDA2MjUgMCAyLjQzNzUgLTAuNTc4MTI1cTEuMDQ2ODc1IC0wLjU3ODEyNSAxLjY0MDYyNSAtMS43MTg3NXEwLjU5Mzc1IC0xLjE1NjI1IDAuNTkzNzUgLTIuODU5Mzc1bDAgLTguNjQwNjI1bDQuMCAwbDAgMTcuMDkzNzVsLTMuODEyNSAwbDAgLTQuNjA5Mzc1bDAuNjcxODc1IDEuNDA2MjVxLTAuODU5Mzc1IDEuNjcxODc1IC0yLjUzMTI1IDIuNTQ2ODc1cS0xLjY1NjI1IDAuODc1IC0zLjY0MDYyNSAwLjg3NXptMjQuMjQ1MTc4IC0xNy41cTIuMDYyNSAwIDMuNjcxODc1IDAuNzk2ODc1cTEuNjA5Mzc1IDAuNzk2ODc1IDIuNTMxMjUgMi40NTMxMjVxMC45Mzc1IDEuNjQwNjI1IDAuOTM3NSA0LjIzNDM3NWwwIDkuNzk2ODc1bC00LjAgMGwwIC05LjI4MTI1cTAgLTIuMjY1NjI1IC0xLjA3ODEyNSAtMy4zOTA2MjVxLTEuMDYyNSAtMS4xMjUgLTIuOTg0Mzc1IC0xLjEyNXEtMS40MDYyNSAwIC0yLjUgMC41NzgxMjVxLTEuMDc4MTI1IDAuNTc4MTI1IC0xLjY3MTg3NSAxLjcxODc1cS0wLjU5Mzc1IDEuMTI1IC0wLjU5Mzc1IDIuODU5Mzc1bDAgOC42NDA2MjVsLTQuMCAwbDAgLTE3LjA5Mzc1bDMuODEyNSAwbDAgNC42MDkzNzVsLTAuNjcxODc1IC0xLjQwNjI1cTAuODkwNjI1IC0xLjYyNSAyLjU5Mzc1IC0yLjVxMS43MTg3NSAtMC44OTA2MjUgMy45NTMxMjUgLTAuODkwNjI1em0xOC42NzAwNDQgMTcuNXEtMi44MjgxMjUgMCAtNC4zNTkzNzUgLTEuNDUzMTI1cS0xLjUzMTI1IC0xLjQ1MzEyNSAtMS41MzEyNSAtNC4yOTY4NzVsMCAtMTUuMzI4MTI1bDQuMCAwbDAgMTUuMjM0Mzc1cTAgMS4yMDMxMjUgMC42MjUgMS44NzVxMC42MjUgMC42NzE4NzUgMS43MzQzNzUgMC42NzE4NzVxMS4zNDM3NSAwIDIuMjUgLTAuNzAzMTI1bDEuMTA5Mzc1IDIuODU5Mzc1cS0wLjcwMzEyNSAwLjU2MjUgLTEuNzM0Mzc1IDAuODU5Mzc1cS0xLjAxNTYyNSAwLjI4MTI1IC0yLjA5Mzc1IDAuMjgxMjV6bS04LjcwMzEyNSAtMTMuOTg0Mzc1bDAgLTMuMTg3NWwxMS4zOTA2MjUgMGwwIDMuMTg3NWwtMTEuMzkwNjI1IDB6bTI1LjA1NjI3NCAxMy43NjU2MjVsMCAtMjIuNDA2MjVsNC4xNTYyNSAwbDAgMjIuNDA2MjVsLTQuMTU2MjUgMHptMTAuMjA4MDA4IDBsMCAtMjIuNDA2MjVsMy40MjE4NzUgMGwxNC4wNDY4NzUgMTcuMjVsLTEuNzAzMTI1IDBsMCAtMTcuMjVsNC4xMjUgMGwwIDIyLjQwNjI1bC0zLjQyMTg3NSAwbC0xNC4wNDY4NzUgLTE3LjI1bDEuNzAzMTI1IDBsMCAxNy4yNWwtNC4xMjUgMHptMzAuNDUxMjk0IDBsMCAtMTguODc1bC03LjQyMTg3NSAwbDAgLTMuNTMxMjVsMTkuMDE1NjI1IDBsMCAzLjUzMTI1bC03LjQyMTg3NSAwbDAgMTguODc1bC00LjE3MTg3NSAwem0xNi4yMzI3ODggNi4yMDMxMjVsLTMuODEyNSAwcTEuOTg0Mzc1IC0zLjUxNTYyNSAyLjg5MDYyNSAtNy4xNzE4NzVxMC45MjE4NzUgLTMuNjcxODc1IDAuOTIxODc1IC03Ljc5Njg3NXEwIC00LjEyNSAtMC45MjE4NzUgLTcuNzgxMjVxLTAuOTA2MjUgLTMuNjcxODc1IC0yLjg5MDYyNSAtNy4yMDMxMjVsMy44MTI1IDBxMS45MjE4NzUgMi44NTkzNzUgMi45MDYyNSA2LjcxODc1cTEuMCAzLjg0Mzc1IDEuMCA4LjI2NTYyNXEwIDQuNDA2MjUgLTEuMCA4LjIzNDM3NXEtMC45ODQzNzUgMy44MjgxMjUgLTIuOTA2MjUgNi43MzQzNzV6IiBmaWxsPSIjZmZmZmZmIi8+PHBhdGggZmlsbC1ydWxlPSJub256ZXJvIiBkPSJtMjkxLjY0NTk0IDUyMS4wODE2N2wtNy40MjE4NzUgLTIyLjQwNjI1bDQuMzI4MTI1IDBsNi42MjUgMjAuMjY1NjI1bC0yLjE1NjI1IDBsNi44OTA2MjUgLTIwLjI2NTYyNWwzLjg0Mzc1IDBsNi42ODc1IDIwLjI2NTYyNWwtMi4wOTM3NSAwbDYuNzk2ODc1IC0yMC4yNjU2MjVsMy45Njg3NSAwbC03LjQzNzUgMjIuNDA2MjVsLTQuNDA2MjUgMGwtNi4xMDkzNzUgLTE4LjI2NTYyNWwxLjE0MDYyNSAwbC02LjIwMzEyNSAxOC4yNjU2MjVsLTQuNDUzMTI1IDB6bTMwLjg2MjQ1NyAwbDAgLTIyLjQwNjI1bDQuMTU2MjUgMGwwIDIyLjQwNjI1bC00LjE1NjI1IDB6bTE0LjczOTI1OCAwbDAgLTE4Ljg3NWwtNy40MjE4NzUgMGwwIC0zLjUzMTI1bDE5LjAxNTYyNSAwbDAgMy41MzEyNWwtNy40MjE4NzUgMGwwIDE4Ljg3NWwtNC4xNzE4NzUgMHptMzAuNDY3MTYzIC0yMi40MDYyNWw0LjE1NjI1IDBsMCAyMi40MDYyNWwtNC4xNTYyNSAwbDAgLTIyLjQwNjI1em0tMTEuNTc4MTI1IDIyLjQwNjI1bC00LjE1NjI1IDBsMCAtMjIuNDA2MjVsNC4xNTYyNSAwbDAgMjIuNDA2MjV6bTExLjkwNjI1IC05LjU5Mzc1bC0xMi4yNjU2MjUgMGwwIC0zLjU2MjVsMTIuMjY1NjI1IDBsMCAzLjU2MjV6bTIyLjI2NzcgMTUuNzk2ODc1cS0xLjg5MDYyNSAtMi45MDYyNSAtMi45MDYyNSAtNi43MzQzNzVxLTEuMCAtMy44MjgxMjUgLTEuMCAtOC4yMzQzNzVxMCAtNC40MjE4NzUgMS4wIC04LjI2NTYyNXExLjAxNTYyNSAtMy44NTkzNzUgMi45MDYyNSAtNi43MTg3NWwzLjgxMjUgMHEtMS45NTMxMjUgMy41MzEyNSAtMi44NzUgNy4yMDMxMjVxLTAuOTA2MjUgMy42NTYyNSAtMC45MDYyNSA3Ljc4MTI1cTAgNC4xMjUgMC45MDYyNSA3Ljc5Njg3NXEwLjkyMTg3NSAzLjY1NjI1IDIuODc1IDcuMTcxODc1bC0zLjgxMjUgMHptOC40MTY1MzQgLTUuOTg0Mzc1cS0xLjA5Mzc1IDAgLTEuODU5Mzc1IC0wLjc1cS0wLjc2NTYyNSAtMC43NSAtMC43NjU2MjUgLTEuOTA2MjVxMCAtMS4yMDMxMjUgMC43NjU2MjUgLTEuOTIxODc1cTAuNzY1NjI1IC0wLjczNDM3NSAxLjg1OTM3NSAtMC43MzQzNzVxMS4wNzgxMjUgMCAxLjg0Mzc1IDAuNzM0Mzc1cTAuNzgxMjUgMC43MTg3NSAwLjc4MTI1IDEuOTIxODc1cTAgMS4xNTYyNSAtMC43ODEyNSAxLjkwNjI1cS0wLjc2NTYyNSAwLjc1IC0xLjg0Mzc1IDAuNzV6bTcuOTY4NzUgMHEtMS4wOTM3NSAwIC0xLjg1OTM3NSAtMC43NXEtMC43NjU2MjUgLTAuNzUgLTAuNzY1NjI1IC0xLjkwNjI1cTAgLTEuMjAzMTI1IDAuNzY1NjI1IC0xLjkyMTg3NXEwLjc2NTYyNSAtMC43MzQzNzUgMS44NTkzNzUgLTAuNzM0Mzc1cTEuMDc4MTI1IDAgMS44NDM3NSAwLjczNDM3NXEwLjc4MTI1IDAuNzE4NzUgMC43ODEyNSAxLjkyMTg3NXEwIDEuMTU2MjUgLTAuNzgxMjUgMS45MDYyNXEtMC43NjU2MjUgMC43NSAtMS44NDM3NSAwLjc1em04LjAgMHEtMS4wOTM3NSAwIC0xLjg1OTM3NSAtMC43NXEtMC43NjU2MjUgLTAuNzUgLTAuNzY1NjI1IC0xLjkwNjI1cTAgLTEuMjAzMTI1IDAuNzY1NjI1IC0xLjkyMTg3NXEwLjc2NTYyNSAtMC43MzQzNzUgMS44NTkzNzUgLTAuNzM0Mzc1cTEuMDc4MTI1IDAgMS44NDM3NSAwLjczNDM3NXEwLjc4MTI1IDAuNzE4NzUgMC43ODEyNSAxLjkyMTg3NXEwIDEuMTU2MjUgLTAuNzgxMjUgMS45MDYyNXEtMC43NjU2MjUgMC43NSAtMS44NDM3NSAwLjc1em04LjQxNjY1NjUgNS45ODQzNzVsLTMuODEyNSAwcTEuOTg0Mzc1IC0zLjUxNTYyNSAyLjg5MDYyNSAtNy4xNzE4NzVxMC45MjE4NzUgLTMuNjcxODc1IDAuOTIxODc1IC03Ljc5Njg3NXEwIC00LjEyNSAtMC45MjE4NzUgLTcuNzgxMjVxLTAuOTA2MjUgLTMuNjcxODc1IC0yLjg5MDYyNSAtNy4yMDMxMjVsMy44MTI1IDBxMS45MjE4NzUgMi44NTkzNzUgMi45MDYyNSA2LjcxODc1cTEuMCAzLjg0Mzc1IDEuMCA4LjI2NTYyNXEwIDQuNDA2MjUgLTEuMCA4LjIzNDM3NXEtMC45ODQzNzUgMy44MjgxMjUgLTIuOTA2MjUgNi43MzQzNzV6IiBmaWxsPSIjZmZmZmZmIi8+PHBhdGggZmlsbC1ydWxlPSJldmVub2RkIiBkPSJtMjg0LjE4NzQ0IDk0Mi43MDY1bDAgNjQuNDg4MjJsMTEuNTUxMjA4NSAwbC0yMy4xMDIzODYgMjMuMTAyNDE3bC0yMy4xMDIzNTYgLTIzLjEwMjQxN2wxMS41NTExNzggMGwwIC02NC40ODgyMnoiIGZpbGw9IiMxNDQ0OWEiLz48cGF0aCBmaWxsLXJ1bGU9ImV2ZW5vZGQiIGQ9Im0xNDM3Ljc0NzggOTQyLjcwNjJsMCA2NC40ODgxNmwxMS41NTExNDcgMGwtMjMuMTAyMjk1IDIzLjEwMjQxN2wtMjMuMTAyNDE3IC0yMy4xMDI0MTdsMTEuNTUxMTQ3IDBsMCAtNjQuNDg4MTZ6IiBmaWxsPSIjMTQ0NDlhIi8+PHBhdGggZmlsbC1ydWxlPSJldmVub2RkIiBkPSJtMTE2Mi40OTA2IDEwMzAuMzI2NWwwIC02NC40ODgxNmwtMTEuNTUxMTQ3IDBsMjMuMTAyMjk1IC0yMy4xMDIzNTZsMjMuMTAyNDE3IDIzLjEwMjM1NmwtMTEuNTUxMTQ3IDBsMCA2NC40ODgxNnoiIGZpbGw9IiMxNDQ0OWEiLz48cGF0aCBmaWxsLXJ1bGU9ImV2ZW5vZGQiIGQ9Im0yMzAwLjgxMzUgMTAzMC4zMjYzbDAgLTY0LjQ4ODIybC0xMS41NTEyNyAwbDIzLjEwMjI5NSAtMjMuMTAyMzU2bDIzLjEwMjU0IDIzLjEwMjM1NmwtMTEuNTUxMjcgMGwwIDY0LjQ4ODIyeiIgZmlsbD0iIzE0NDQ5YSIvPjwvZz48L3N2Zz4=;" vertex="1" parent="1">
          <mxGeometry width="1200" height="675" as="geometry" />
        </mxCell>
      </root>
    </mxGraphModel>
  </diagram>
</mxfile>
